<?xml version="1.0" encoding="UTF-8" standalone="no"?>
<!-- Created with Inkscape (http://www.inkscape.org/) -->

<svg
   xmlns:dc="http://purl.org/dc/elements/1.1/"
   xmlns:cc="http://creativecommons.org/ns#"
   xmlns:rdf="http://www.w3.org/1999/02/22-rdf-syntax-ns#"
   xmlns:svg="http://www.w3.org/2000/svg"
   xmlns="http://www.w3.org/2000/svg"
   xmlns:sodipodi="http://sodipodi.sourceforge.net/DTD/sodipodi-0.dtd"
   xmlns:inkscape="http://www.inkscape.org/namespaces/inkscape"
   width="181.77669mm"
   height="110.41062mm"
   viewBox="0 0 181.77669 110.41062"
   version="1.1"
   id="svg8"
   inkscape:version="0.92.3 (2405546, 2018-03-11)"
   sodipodi:docname="eastparc_basement.svg">
  <defs
     id="defs2">
    <style
       id="style815">.cls-1{fill:#bdccd4;}.cls-1,.cls-2,.cls-4,.cls-5,.cls-7{stroke:#fff;}.cls-1,.cls-2,.cls-4,.cls-5,.cls-6,.cls-7{stroke-miterlimit:10;}.cls-2{fill:#ccc;}.cls-3{fill:#93278f;}.cls-4,.cls-9{fill:#7ac943;}.cls-5,.cls-6{fill:none;}.cls-6{stroke:#ff0;}.cls-10,.cls-7{fill:#307abd;}.cls-8{font-size:12px;fill:#fff;}.cls-11,.cls-8{font-family:OpenSans-Bold, Open Sans;font-weight:700;}.cls-11{font-size:16.16px;}</style>
  </defs>
  <sodipodi:namedview
     id="base"
     pagecolor="#ffffff"
     bordercolor="#666666"
     borderopacity="1.0"
     inkscape:pageopacity="0.0"
     inkscape:pageshadow="2"
     inkscape:zoom="0.35"
     inkscape:cx="-235.05643"
     inkscape:cy="168.65"
     inkscape:document-units="mm"
     inkscape:current-layer="layer1"
     showgrid="false"
     fit-margin-top="0"
     fit-margin-left="0"
     fit-margin-right="0"
     fit-margin-bottom="0"
     inkscape:window-width="1366"
     inkscape:window-height="715"
     inkscape:window-x="-8"
     inkscape:window-y="-8"
     inkscape:window-maximized="1" />
  <metadata
     id="metadata5">
    <rdf:RDF>
      <cc:Work
         rdf:about="">
        <dc:format>image/svg+xml</dc:format>
        <dc:type
           rdf:resource="http://purl.org/dc/dcmitype/StillImage" />
        <dc:title></dc:title>
      </cc:Work>
    </rdf:RDF>
  </metadata>
  <g
     inkscape:label="Layer 1"
     inkscape:groupmode="layer"
     id="layer1"
     transform="translate(-45.183086,-83.044687)">
    <g
       id="g921"
       transform="matrix(0.26458333,0,0,0.26458333,-103.11587,71.138437)">
      <g
         data-name="Layer 3"
         id="Layer_3">
        <rect
           id="rect821"
           height="359"
           width="686.03003"
           y="46"
           x="561"
           class="cls-1"
           style="fill:#bdccd4;stroke:#ffffff;stroke-miterlimit:10" />
        <rect
           id="rect823"
           height="211"
           width="68.5"
           y="45.5"
           x="1178.5"
           class="cls-2"
           style="fill:#cccccc;stroke:#ffffff;stroke-miterlimit:10" />
        <rect
           id="rect825"
           height="130"
           width="448"
           y="162.5"
           x="672.5"
           class="cls-1"
           style="fill:#bdccd4;stroke:#ffffff;stroke-miterlimit:10" />
        <path
           id="path827"
           d="m 626.57,95.5 h -14.14 a 1.92,1.92 0 0 0 -1.93,1.93 v 14.14 a 1.92,1.92 0 0 0 1.93,1.93 h 14.14 a 1.92,1.92 0 0 0 1.93,-1.93 V 97.43 a 1.92,1.92 0 0 0 -1.93,-1.93 z m -6.43,11.57 h -1.93 V 109 a 0.64,0.64 0 0 1 -0.64,0.64 h -1.28 A 0.65,0.65 0 0 1 615.64,109 v -9 a 0.65,0.65 0 0 1 0.65,-0.64 h 3.85 a 3.86,3.86 0 1 1 0,7.71 z m 0,-5.14 h -1.93 v 2.57 h 1.93 a 1.29,1.29 0 1 0 0,-2.57 z"
           class="cls-3"
           inkscape:connector-curvature="0"
           style="fill:#93278f" />
        <path
           id="path829"
           d="m 626.57,335.5 h -14.14 a 1.92,1.92 0 0 0 -1.93,1.93 v 14.14 a 1.92,1.92 0 0 0 1.93,1.93 h 14.14 a 1.92,1.92 0 0 0 1.93,-1.93 v -14.14 a 1.92,1.92 0 0 0 -1.93,-1.93 z m -6.43,11.57 h -1.93 V 349 a 0.64,0.64 0 0 1 -0.64,0.64 h -1.28 A 0.65,0.65 0 0 1 615.64,349 v -9 a 0.65,0.65 0 0 1 0.65,-0.64 h 3.85 a 3.86,3.86 0 1 1 0,7.71 z m 0,-5.14 h -1.93 v 2.57 h 1.93 a 1.29,1.29 0 1 0 0,-2.57 z"
           class="cls-3"
           inkscape:connector-curvature="0"
           style="fill:#93278f" />
        <path
           id="path831"
           d="m 895.57,335.5 h -14.14 a 1.92,1.92 0 0 0 -1.93,1.93 v 14.14 a 1.92,1.92 0 0 0 1.93,1.93 h 14.14 a 1.92,1.92 0 0 0 1.93,-1.93 v -14.14 a 1.92,1.92 0 0 0 -1.93,-1.93 z m -6.43,11.57 h -1.93 V 349 a 0.64,0.64 0 0 1 -0.64,0.64 h -1.28 A 0.65,0.65 0 0 1 884.64,349 v -9 a 0.65,0.65 0 0 1 0.65,-0.64 h 3.85 a 3.86,3.86 0 1 1 0,7.71 z m 0,-5.14 h -1.93 v 2.57 h 1.93 a 1.29,1.29 0 1 0 0,-2.57 z"
           class="cls-3"
           inkscape:connector-curvature="0"
           style="fill:#93278f" />
        <path
           id="path833"
           d="m 895.57,95.5 h -14.14 a 1.92,1.92 0 0 0 -1.93,1.93 v 14.14 a 1.92,1.92 0 0 0 1.93,1.93 h 14.14 a 1.92,1.92 0 0 0 1.93,-1.93 V 97.43 a 1.92,1.92 0 0 0 -1.93,-1.93 z m -6.43,11.57 h -1.93 V 109 a 0.64,0.64 0 0 1 -0.64,0.64 h -1.28 A 0.65,0.65 0 0 1 884.64,109 v -9 a 0.65,0.65 0 0 1 0.65,-0.64 h 3.85 a 3.86,3.86 0 1 1 0,7.71 z m 0,-5.14 h -1.93 v 2.57 h 1.93 a 1.29,1.29 0 1 0 0,-2.57 z"
           class="cls-3"
           inkscape:connector-curvature="0"
           style="fill:#93278f" />
      </g>
      <g
         data-name="Layer 2"
         id="Layer_2">
        <g
           id="stairs">
          <path
             id="path836"
             d="m 962.58,206.5 -30,29.54 a 41.49,41.49 0 1 1 72.89,-29.54 z"
             class="cls-4"
             inkscape:connector-curvature="0"
             style="fill:#7ac943;stroke:#ffffff;stroke-miterlimit:10" />
          <line
             id="line838"
             y2="178"
             x2="991.08002"
             y1="206.5"
             x1="962.58002"
             class="cls-5"
             style="fill:none;stroke:#ffffff;stroke-miterlimit:10" />
          <line
             id="line840"
             y2="179"
             x2="935.58002"
             y1="206.5"
             x1="962.58002"
             class="cls-5"
             style="fill:none;stroke:#ffffff;stroke-miterlimit:10" />
          <line
             id="line842"
             y2="206.5"
             x2="962.58002"
             y1="167.5"
             x1="962.58002"
             class="cls-5"
             style="fill:none;stroke:#ffffff;stroke-miterlimit:10" />
          <line
             id="line844"
             y2="206.5"
             x2="922.58002"
             y1="206.5"
             x1="962.58002"
             class="cls-5"
             style="fill:none;stroke:#ffffff;stroke-miterlimit:10" />
          <line
             id="line846"
             y2="169.5"
             x2="977.58002"
             y1="206.5"
             x1="962.58002"
             class="cls-5"
             style="fill:none;stroke:#ffffff;stroke-miterlimit:10" />
          <line
             id="line848"
             y2="191.5"
             x2="926.58002"
             y1="206.5"
             x1="962.58002"
             class="cls-5"
             style="fill:none;stroke:#ffffff;stroke-miterlimit:10" />
          <line
             id="line850"
             y2="222.5"
             x2="924.58002"
             y1="206.5"
             x1="962.58002"
             class="cls-5"
             style="fill:none;stroke:#ffffff;stroke-miterlimit:10" />
          <line
             id="line852"
             y2="170.5"
             x2="948.58002"
             y1="206.5"
             x1="962.58002"
             class="cls-5"
             style="fill:none;stroke:#ffffff;stroke-miterlimit:10" />
          <line
             id="line854"
             y2="206.5"
             x2="962.58002"
             y1="191.5"
             x1="1001.58"
             class="cls-5"
             style="fill:none;stroke:#ffffff;stroke-miterlimit:10" />
        </g>
        <line
           id="line857"
           y2="195.84"
           x2="943.84998"
           y1="203.8"
           x1="946.79999"
           class="cls-6"
           style="fill:none;stroke:#ffff00;stroke-miterlimit:10" />
        <line
           id="line859"
           y2="195.84"
           x2="943.84998"
           y1="198.78999"
           x1="935.90002"
           class="cls-6"
           style="fill:none;stroke:#ffff00;stroke-miterlimit:10" />
        <path
           id="path861"
           d="m 951.38,228.28 c -11.12,-7 -14.66,-21.33 -7.9,-32.13"
           class="cls-6"
           inkscape:connector-curvature="0"
           style="fill:none;stroke:#ffff00;stroke-miterlimit:10" />
        <rect
           id="rect863"
           height="130"
           width="215"
           y="162.5"
           x="672.5"
           class="cls-7"
           style="fill:#307abd;stroke:#ffffff;stroke-miterlimit:10" />
        <rect
           id="rect865"
           height="34"
           width="38"
           y="162.5"
           x="1082.5"
           class="cls-4"
           style="fill:#7ac943;stroke:#ffffff;stroke-miterlimit:10" />
        <rect
           id="rect867"
           height="34"
           width="38"
           y="196.5"
           x="1082.5"
           class="cls-4"
           style="fill:#7ac943;stroke:#ffffff;stroke-miterlimit:10" />
        <rect
           id="rect869"
           height="34"
           width="38"
           y="230.5"
           x="1082.5"
           class="cls-4"
           style="fill:#7ac943;stroke:#ffffff;stroke-miterlimit:10" />
        <text
           id="text871"
           transform="translate(748.33,228.33)"
           class="cls-8"
           style="font-weight:700;font-size:12px;font-family:OpenSans-Bold, 'Open Sans';fill:#ffffff">ANGSANA</text>
        <rect
           id="rect873"
           height="19.389999"
           width="19.389999"
           y="442.64001"
           x="1090.26"
           class="cls-9"
           style="fill:#7ac943" />
        <rect
           id="rect875"
           height="19.389999"
           width="19.389999"
           y="442.91"
           x="871.44"
           class="cls-10"
           style="fill:#307abd" />
        <text
           id="text877"
           transform="translate(1120.54,458.18)"
           class="cls-11"
           style="font-weight:700;font-size:16.15999985px;font-family:OpenSans-Bold, 'Open Sans'">LIFT / STAIR</text>
        <text
           id="text879"
           transform="translate(901.79,458.27)"
           class="cls-11"
           style="font-weight:700;font-size:16.15999985px;font-family:OpenSans-Bold, 'Open Sans'">CONFERENCE ROOM</text>
      </g>
    </g>
  </g>
</svg>
