<svg xmlns="http://www.w3.org/2000/svg" viewBox="0 0 1260 500"><defs><style>.cls-1{fill:#bdccd4;}.cls-1,.cls-2,.cls-3,.cls-4,.cls-6,.cls-7,.cls-8{stroke:#fff;}.cls-1,.cls-2,.cls-3,.cls-4,.cls-5,.cls-6,.cls-7,.cls-8{stroke-miterlimit:10;}.cls-2{fill:#ccc;}.cls-11,.cls-3{fill:#7ac943;}.cls-4,.cls-5{fill:none;}.cls-5{stroke:#ff0;}.cls-10,.cls-6{fill:#ff0;}.cls-12,.cls-7{fill:#ff7bac;}.cls-13,.cls-8{fill:#307abd;}.cls-9{font-size:12px;}.cls-14,.cls-9{fill:#fff;}.cls-15,.cls-9{font-family:OpenSans-Bold, Open Sans;font-weight:700;}.cls-15{font-size:16.16px;}</style></defs><title>eastparc</title><g id="Layer_2" data-name="Layer 2"><polygon id="floor" class="cls-1" points="1212.5 225.5 1212.5 161.5 523.5 161.5 523.5 56.5 114.5 56.5 114.5 4.5 4.5 4.5 4.5 422.5 1212.5 422.5 1212.5 361.5 1254.5 361.5 1254.5 225.5 1212.5 225.5"/><g id="sekre"><rect id="secretariat" class="cls-2" x="71.5" y="4.5" width="43" height="52.5"/><rect id="make_up" data-name="make up" class="cls-2" x="114.5" y="56.5" width="148" height="35"/><rect id="VIP_1" data-name="VIP 1" class="cls-2" x="435.5" y="56.5" width="35" height="85"/><rect id="secretariat-2" data-name="secretariat" class="cls-2" x="4.5" y="4.5" width="67" height="52.5"/></g><g id="stairs"><polygon id="stair" class="cls-3" points="523.5 56.5 523.5 101.5 497.5 101.5 497.5 161.5 470.5 161.5 470.5 101.5 470.5 82.5 470.5 56.5 523.5 56.5"/><path class="cls-3" d="M849.5,205.5l30,29.54a41.49,41.49,0,1,0-72.89-29.54Z"/><line class="cls-4" x1="849.5" y1="205.5" x2="821" y2="177"/><line class="cls-4" x1="849.5" y1="205.5" x2="876.5" y2="178"/><line class="cls-4" x1="849.5" y1="166.5" x2="849.5" y2="205.5"/><line class="cls-4" x1="849.5" y1="205.5" x2="889.5" y2="205.5"/><line class="cls-4" x1="849.5" y1="205.5" x2="834.5" y2="168.5"/><line class="cls-4" x1="849.5" y1="205.5" x2="885.5" y2="190.5"/><line class="cls-4" x1="849.5" y1="205.5" x2="887.5" y2="221.5"/><line class="cls-4" x1="849.5" y1="205.5" x2="863.5" y2="169.5"/><line class="cls-4" x1="810.5" y1="190.5" x2="849.5" y2="205.5"/><path class="cls-3" d="M1255,288.5h-21.5v-18h-21v-45H1255v63Z"/><line class="cls-4" x1="1233.35" y1="288.5" x2="1255" y2="288.5"/><line class="cls-4" x1="1212.9" y1="270.5" x2="1255" y2="270.5"/><line class="cls-4" x1="1212.9" y1="261.5" x2="1255" y2="261.5"/><line class="cls-4" x1="1233.35" y1="279.5" x2="1255" y2="279.5"/><line class="cls-4" x1="1233.5" y1="251.5" x2="1233.5" y2="289"/><line class="cls-4" x1="1212.9" y1="251.5" x2="1255" y2="251.5"/></g><line class="cls-5" x1="865.28" y1="202.8" x2="868.23" y2="194.84"/><line class="cls-5" x1="876.18" y1="197.79" x2="868.23" y2="194.84"/><line class="cls-4" x1="498" y1="119.5" x2="471" y2="119.5"/><line class="cls-4" x1="498" y1="137.5" x2="471" y2="137.5"/><line class="cls-4" x1="523.5" y1="101.5" x2="471" y2="101.5"/><line class="cls-4" x1="523.5" y1="92.5" x2="471" y2="92.5"/><line class="cls-4" x1="498" y1="110.5" x2="471" y2="110.5"/><line class="cls-4" x1="498" y1="128.5" x2="471" y2="128.5"/><line class="cls-4" x1="498" y1="145.5" x2="471" y2="145.5"/><line class="cls-4" x1="498.5" y1="153.5" x2="471.5" y2="153.5"/><line class="cls-4" x1="523.5" y1="82.5" x2="471" y2="82.5"/><line class="cls-4" x1="498" y1="82.5" x2="498" y2="102"/><path class="cls-5" d="M860.7,227.28c11.13-7,14.66-21.33,7.9-32.13"/><line class="cls-5" x1="483.5" y1="130" x2="483.5" y2="169"/><line class="cls-5" x1="489.5" y1="136.5" x2="483.5" y2="130.5"/><line class="cls-5" x1="477.5" y1="136.5" x2="483.5" y2="130.5"/><line class="cls-5" x1="509.5" y1="100" x2="509.5" y2="74.5"/><line class="cls-5" x1="515.5" y1="93.5" x2="509.5" y2="99.5"/><line class="cls-5" x1="503.5" y1="93.5" x2="509.5" y2="99.5"/><line class="cls-5" x1="1243.5" y1="263" x2="1243.5" y2="293.5"/><line class="cls-5" x1="1238.69" y1="269.5" x2="1243.5" y2="263.5"/><line class="cls-5" x1="1248.31" y1="269.5" x2="1243.5" y2="263.5"/><line class="cls-5" x1="1222.92" y1="269" x2="1222.92" y2="243.5"/><line class="cls-5" x1="1218.11" y1="262.5" x2="1222.92" y2="268.5"/><line class="cls-5" x1="1227.74" y1="262.5" x2="1222.92" y2="268.5"/><rect class="cls-6" x="1103.5" y="335.5" width="109" height="87"/><rect class="cls-7" x="1054.5" y="365.5" width="49" height="57"/><rect class="cls-3" x="966.5" y="161.5" width="38" height="34"/><rect class="cls-3" x="966.5" y="195.5" width="38" height="34"/><rect class="cls-3" x="966.5" y="229.5" width="38" height="34"/><rect class="cls-7" x="1005.5" y="365.5" width="49" height="57"/><rect class="cls-6" x="896.5" y="335.5" width="109" height="87"/><rect class="cls-2" x="797.5" y="335.5" width="99" height="87"/><rect class="cls-6" x="1029.5" y="335.5" width="50" height="30" transform="translate(2109 701) rotate(180)"/><path d="M1063.94,355.36l.5,1a.55.55,0,0,1-.25.75l-2.3,1.16a1.13,1.13,0,0,1-1.52-.53l-2.21-4.7h-4.91a1.12,1.12,0,0,1-1.11-1c-1.2-8.34-1.13-7.83-1.14-8a2.25,2.25,0,1,1,2.58,2.23l.16,1.15h4.57a.56.56,0,0,1,.56.56v1.12a.56.56,0,0,1-.56.57h-4.25l.17,1.12h4.64a1.11,1.11,0,0,1,1,.65l2,4.3,1.27-.64a.55.55,0,0,1,.75.25Zm-6.49-1.18h-.87a3.94,3.94,0,1,1-5.85-4c-.13-.91-.24-1.68-.33-2.33a6.18,6.18,0,1,0,7.95,8.23Z"/><path d="M950,371a2.25,2.25,0,1,1-2.25,2.25A2.25,2.25,0,0,1,950,371m1.69,5.06h-.4a3.06,3.06,0,0,1-2.58,0h-.4a1.69,1.69,0,0,0-1.68,1.69v4.78a.84.84,0,0,0,.84.85H948v4.78a.85.85,0,0,0,.85.84h2.25a.85.85,0,0,0,.84-.84v-4.78h.56a.85.85,0,0,0,.85-.85v-4.78A1.69,1.69,0,0,0,951.69,376.06Z"/><path d="M1159,371a2.25,2.25,0,1,1-2.25,2.25A2.25,2.25,0,0,1,1159,371m4.19,12.45-1.68-6.75a.86.86,0,0,0-.82-.64h-.4a3.06,3.06,0,0,1-2.58,0h-.4a.86.86,0,0,0-.82.64l-1.68,6.75a.84.84,0,0,0,.82,1.05h2v3.66a.85.85,0,0,0,.85.84h1.12a.85.85,0,0,0,.85-.84V384.5h2a.84.84,0,0,0,.81-1.05Z"/><path d="M1031,385a2.25,2.25,0,1,1-2.25,2.25A2.25,2.25,0,0,1,1031,385m1.69,5.06h-.4a3.06,3.06,0,0,1-2.58,0h-.4a1.69,1.69,0,0,0-1.68,1.69v4.78a.84.84,0,0,0,.84.85h.56v4.78a.85.85,0,0,0,.85.84h2.25a.85.85,0,0,0,.84-.84v-4.78h.56a.85.85,0,0,0,.85-.85v-4.78A1.69,1.69,0,0,0,1032.69,390.06Z"/><path d="M1080,385a2.25,2.25,0,1,1-2.25,2.25A2.25,2.25,0,0,1,1080,385m4.19,12.45-1.68-6.75a.86.86,0,0,0-.82-.64h-.4a3.06,3.06,0,0,1-2.58,0h-.4a.86.86,0,0,0-.82.64l-1.68,6.75a.84.84,0,0,0,.82,1.05h2v3.66a.85.85,0,0,0,.85.84h1.12a.85.85,0,0,0,.85-.84V398.5h2a.84.84,0,0,0,.81-1.05Z"/><rect class="cls-8" x="4.5" y="335.5" width="309" height="87"/><rect class="cls-8" x="313.5" y="335.5" width="95" height="87"/><rect class="cls-2" x="408.5" y="335.5" width="58" height="87"/><rect class="cls-8" x="524.5" y="335.5" width="91" height="87"/><rect class="cls-2" x="466.5" y="335.5" width="59" height="87"/><rect class="cls-8" x="707.5" y="335.5" width="90" height="87"/><rect class="cls-8" x="615.5" y="335.5" width="92" height="87"/><rect class="cls-8" x="706.5" y="161" width="90" height="110.5"/><rect class="cls-8" x="614.5" y="161" width="92" height="110.5"/><rect class="cls-8" x="210.5" y="119.5" width="103" height="152"/><rect class="cls-8" x="107.5" y="119.5" width="103" height="152"/><rect class="cls-8" x="4.5" y="119.5" width="103" height="152"/><rect class="cls-2" x="524" y="216.5" width="90.5" height="55"/><rect class="cls-2" x="524" y="161.5" width="90.5" height="55"/><rect class="cls-2" x="313" y="216.5" width="90.5" height="55"/><rect class="cls-2" x="313" y="161.5" width="90.5" height="55"/><rect class="cls-2" x="313" y="105.5" width="90.5" height="56"/><text class="cls-9" transform="translate(154.33 383.33)"><tspan xml:space="preserve">IRIS                                                 HELICONIA                                            CARNATION             TULIP                DAHLIA</tspan></text><rect class="cls-2" x="1004.5" y="161.5" width="208" height="133"/><text class="cls-9" transform="translate(31.33 199.33)"><tspan xml:space="preserve">HIBISCUS           SUNFLOWER               LOTUS</tspan></text><text class="cls-9" transform="translate(628.33 220.33)"><tspan xml:space="preserve">MAGNOLIA          ORCHID</tspan></text><rect class="cls-10" x="1032.93" y="452.64" width="19.39" height="19.39"/><rect class="cls-10" x="1059.86" y="452.64" width="19.39" height="19.39"/><rect class="cls-10" x="1086.26" y="452.64" width="19.39" height="19.39"/><rect class="cls-11" x="681.46" y="452.82" width="19.39" height="19.39"/><rect class="cls-12" x="832.93" y="452.56" width="19.39" height="19.39"/><rect class="cls-12" x="859.33" y="452.56" width="19.39" height="19.39"/><rect class="cls-13" x="462.44" y="452.91" width="19.39" height="19.39"/><path d="M1048.91,465.12l.34.67a.38.38,0,0,1-.17.5l-1.53.77a.75.75,0,0,1-1-.35l-1.47-3.13h-3.27a.74.74,0,0,1-.74-.64c-.79-5.55-.75-5.21-.76-5.35a1.5,1.5,0,1,1,1.72,1.48l.11.77h3a.36.36,0,0,1,.37.37V461a.36.36,0,0,1-.37.37h-2.83l.11.75h3.09a.75.75,0,0,1,.68.43l1.35,2.87.84-.43a.37.37,0,0,1,.5.17Zm-4.32-.79H1044a2.62,2.62,0,1,1-3.9-2.65c-.08-.61-.16-1.12-.22-1.55a4.12,4.12,0,1,0,5.29,5.48Z"/><path d="M1069.55,456a1.5,1.5,0,1,1-1.5,1.5,1.5,1.5,0,0,1,1.5-1.5m1.12,3.37h-.26a2.1,2.1,0,0,1-1.72,0h-.26a1.12,1.12,0,0,0-1.12,1.12v3.18a.56.56,0,0,0,.56.56h.37v3.19a.56.56,0,0,0,.56.56h1.5a.56.56,0,0,0,.56-.56v-3.19h.38a.56.56,0,0,0,.56-.56v-3.18A1.13,1.13,0,0,0,1070.67,459.39Z"/><path d="M1096.23,456.29a1.5,1.5,0,1,1-1.49,1.5,1.5,1.5,0,0,1,1.49-1.5m2.8,8.28-1.13-4.49a.55.55,0,0,0-.54-.42h-.27a2.08,2.08,0,0,1-1.71,0h-.27a.55.55,0,0,0-.54.42l-1.13,4.49a.57.57,0,0,0,.55.7h1.31v2.44a.56.56,0,0,0,.56.56h.75a.56.56,0,0,0,.56-.56v-2.44h1.31a.57.57,0,0,0,.55-.7Z"/><path class="cls-14" d="M842.62,456.47a1.5,1.5,0,1,1-1.5,1.5,1.5,1.5,0,0,1,1.5-1.5m1.12,3.37h-.27a2.08,2.08,0,0,1-1.71,0h-.27a1.12,1.12,0,0,0-1.12,1.12v3.18a.56.56,0,0,0,.56.56h.38v3.19a.56.56,0,0,0,.56.56h1.5a.56.56,0,0,0,.56-.56V464.7h.37a.56.56,0,0,0,.56-.56V461A1.12,1.12,0,0,0,843.74,459.84Z"/><path class="cls-14" d="M869.3,456.47a1.5,1.5,0,1,1-1.5,1.5,1.5,1.5,0,0,1,1.5-1.5m2.79,8.29-1.12-4.5a.56.56,0,0,0-.55-.42h-.26a2.1,2.1,0,0,1-1.72,0h-.26a.57.57,0,0,0-.55.42l-1.12,4.5a.56.56,0,0,0,.54.69h1.31v2.44a.57.57,0,0,0,.57.56h.74a.57.57,0,0,0,.57-.56v-2.44h1.31a.56.56,0,0,0,.54-.69Z"/><text class="cls-15" transform="translate(889.41 467.64)">PRAYER ROOM</text><text class="cls-15" transform="translate(1116.34 468)">REST ROOM</text><text class="cls-15" transform="translate(711.54 468.18)">LIFT / STAIR</text><text class="cls-15" transform="translate(492.79 468.27)">CONFERENCE ROOM</text></g></svg>