<svg xmlns="http://www.w3.org/2000/svg" viewBox="0 0 1260 500"><defs><style>.cls-1{fill:#bdccd4;}.cls-1,.cls-2,.cls-3,.cls-4,.cls-6,.cls-7,.cls-8,.cls-9{stroke:#fff;}.cls-1,.cls-2,.cls-3,.cls-4,.cls-5,.cls-6,.cls-7,.cls-8,.cls-9{stroke-miterlimit:10;}.cls-13,.cls-2{fill:#ff931e;}.cls-14,.cls-3{fill:#7ac943;}.cls-4,.cls-5{fill:none;}.cls-5{stroke:#ff0;}.cls-12,.cls-6{fill:#ff0;}.cls-16,.cls-7{fill:#307abd;}.cls-15,.cls-8{fill:#ff7bac;}.cls-9{fill:#ccc;}.cls-10,.cls-11{font-size:12px;}.cls-10,.cls-17{fill:#fff;}.cls-10,.cls-11,.cls-18{font-family:OpenSans-Bold, Open Sans;font-weight:700;}.cls-18{font-size:16.16px;}</style></defs><title>eastparc-4</title><g id="Layer_2" data-name="Layer 2"><polygon id="floor" class="cls-1" points="1213.5 226.5 1213.5 162.5 524.5 162.5 524.5 57.5 115.5 57.5 115.5 5.5 5.5 5.5 5.5 423.5 1213.5 423.5 1213.5 362.5 1255.5 362.5 1255.5 226.5 1213.5 226.5"/><g id="sekre"><rect id="secretariat" class="cls-2" x="312.5" y="57.5" width="53" height="105"/><rect id="make_up" data-name="make up" class="cls-2" x="365.5" y="57.5" width="53" height="105"/><rect id="VIP_1" data-name="VIP 1" class="cls-2" x="418.5" y="57.5" width="53" height="105"/></g><g id="stairs"><polygon id="stair" class="cls-3" points="471.5 57.5 471.5 102.5 497.5 102.5 497.5 162.5 524.5 162.5 524.5 102.5 524.5 83.5 524.5 57.5 471.5 57.5"/><path class="cls-3" d="M850.5,206.5l30,29.54a41.49,41.49,0,1,0-72.89-29.54Z"/><line class="cls-4" x1="850.5" y1="206.5" x2="822" y2="178"/><line class="cls-4" x1="850.5" y1="206.5" x2="877.5" y2="179"/><line class="cls-4" x1="850.5" y1="167.5" x2="850.5" y2="206.5"/><line class="cls-4" x1="850.5" y1="206.5" x2="890.5" y2="206.5"/><line class="cls-4" x1="850.5" y1="206.5" x2="835.5" y2="169.5"/><line class="cls-4" x1="850.5" y1="206.5" x2="886.5" y2="191.5"/><line class="cls-4" x1="850.5" y1="206.5" x2="888.5" y2="222.5"/><line class="cls-4" x1="850.5" y1="206.5" x2="864.5" y2="170.5"/><line class="cls-4" x1="811.5" y1="191.5" x2="850.5" y2="206.5"/><path class="cls-3" d="M1256,289.5h-21.5v-18h-21v-45H1256v63Z"/><line class="cls-4" x1="1234.35" y1="289.5" x2="1256" y2="289.5"/><line class="cls-4" x1="1213.9" y1="271.5" x2="1256" y2="271.5"/><line class="cls-4" x1="1213.9" y1="262.5" x2="1256" y2="262.5"/><line class="cls-4" x1="1234.35" y1="280.5" x2="1256" y2="280.5"/><line class="cls-4" x1="1234.5" y1="252.5" x2="1234.5" y2="290"/><line class="cls-4" x1="1213.9" y1="252.5" x2="1256" y2="252.5"/></g><line class="cls-5" x1="866.28" y1="203.8" x2="869.23" y2="195.84"/><line class="cls-5" x1="877.18" y1="198.79" x2="869.23" y2="195.84"/><line class="cls-4" x1="497.5" y1="120.5" x2="524.5" y2="120.5"/><line class="cls-4" x1="497.5" y1="138.5" x2="524.5" y2="138.5"/><line class="cls-4" x1="472" y1="102.5" x2="524.5" y2="102.5"/><line class="cls-4" x1="472" y1="93.5" x2="524.5" y2="93.5"/><line class="cls-4" x1="497.5" y1="111.5" x2="524.5" y2="111.5"/><line class="cls-4" x1="497.5" y1="129.5" x2="524.5" y2="129.5"/><line class="cls-4" x1="497.5" y1="146.5" x2="524.5" y2="146.5"/><line class="cls-4" x1="497" y1="154.5" x2="524" y2="154.5"/><line class="cls-4" x1="472" y1="83.5" x2="524.5" y2="83.5"/><line class="cls-4" x1="497.5" y1="83.5" x2="497.5" y2="103"/><path class="cls-5" d="M861.7,228.28c11.13-7,14.66-21.33,7.9-32.13"/><line class="cls-5" x1="510.5" y1="131" x2="510.5" y2="170"/><line class="cls-5" x1="504.5" y1="137.5" x2="510.5" y2="131.5"/><line class="cls-5" x1="516.5" y1="137.5" x2="510.5" y2="131.5"/><line class="cls-5" x1="484.5" y1="101" x2="484.5" y2="75.5"/><line class="cls-5" x1="478.5" y1="94.5" x2="484.5" y2="100.5"/><line class="cls-5" x1="490.5" y1="94.5" x2="484.5" y2="100.5"/><line class="cls-5" x1="1244.5" y1="264" x2="1244.5" y2="294.5"/><line class="cls-5" x1="1239.69" y1="270.5" x2="1244.5" y2="264.5"/><line class="cls-5" x1="1249.31" y1="270.5" x2="1244.5" y2="264.5"/><line class="cls-5" x1="1223.92" y1="270" x2="1223.92" y2="244.5"/><line class="cls-5" x1="1219.11" y1="263.5" x2="1223.92" y2="269.5"/><line class="cls-5" x1="1228.74" y1="263.5" x2="1223.92" y2="269.5"/><rect class="cls-6" x="1104.5" y="336.5" width="109" height="87"/><rect class="cls-7" x="57.5" y="215.5" width="564" height="208"/><rect class="cls-8" x="1055.5" y="366.5" width="49" height="57"/><rect class="cls-3" x="967.5" y="162.5" width="38" height="34"/><polygon id="not_used" data-name="not used" class="cls-9" points="115.5 57.5 115.5 5.5 5.5 5.5 5.5 57.5 5.5 110.5 5.5 162.5 312.5 162.5 312.5 57.5 115.5 57.5"/><rect class="cls-9" x="1005.5" y="162.5" width="155" height="133"/><rect class="cls-9" x="1160.5" y="162.5" width="53" height="133"/><rect class="cls-3" x="967.5" y="196.5" width="38" height="34"/><rect class="cls-3" x="967.5" y="230.5" width="38" height="34"/><rect class="cls-8" x="1006.5" y="366.5" width="49" height="57"/><rect class="cls-6" x="897.5" y="336.5" width="109" height="87"/><rect class="cls-2" x="800.5" y="336.5" width="97" height="87"/><rect class="cls-6" x="1030.5" y="336.5" width="50" height="30" transform="translate(2111 703) rotate(180)"/><path d="M1064.94,356.36l.5,1a.55.55,0,0,1-.25.75l-2.3,1.16a1.13,1.13,0,0,1-1.52-.53l-2.21-4.7h-4.91a1.12,1.12,0,0,1-1.11-1c-1.2-8.34-1.13-7.83-1.14-8a2.25,2.25,0,1,1,2.58,2.23l.16,1.15h4.57a.56.56,0,0,1,.56.56v1.12a.56.56,0,0,1-.56.57h-4.25l.17,1.12h4.64a1.11,1.11,0,0,1,1,.65l2,4.3,1.27-.64a.55.55,0,0,1,.75.25Zm-6.49-1.18h-.87a3.94,3.94,0,1,1-5.85-4c-.13-.91-.24-1.68-.33-2.33a6.18,6.18,0,1,0,7.95,8.23Z"/><path d="M951,372a2.25,2.25,0,1,1-2.25,2.25A2.25,2.25,0,0,1,951,372m1.69,5.06h-.4a3.06,3.06,0,0,1-2.58,0h-.4a1.69,1.69,0,0,0-1.68,1.69v4.78a.84.84,0,0,0,.84.85H949v4.78a.85.85,0,0,0,.85.84h2.25a.85.85,0,0,0,.84-.84v-4.78h.56a.85.85,0,0,0,.85-.85v-4.78A1.69,1.69,0,0,0,952.69,377.06Z"/><path d="M1160,372a2.25,2.25,0,1,1-2.25,2.25A2.25,2.25,0,0,1,1160,372m4.19,12.45-1.68-6.75a.86.86,0,0,0-.82-.64h-.4a3.06,3.06,0,0,1-2.58,0h-.4a.86.86,0,0,0-.82.64l-1.68,6.75a.84.84,0,0,0,.82,1.05h2v3.66a.85.85,0,0,0,.85.84h1.12a.85.85,0,0,0,.85-.84V385.5h2a.84.84,0,0,0,.81-1.05Z"/><path d="M1032,386a2.25,2.25,0,1,1-2.25,2.25A2.25,2.25,0,0,1,1032,386m1.69,5.06h-.4a3.06,3.06,0,0,1-2.58,0h-.4a1.69,1.69,0,0,0-1.68,1.69v4.78a.84.84,0,0,0,.84.85h.56v4.78a.85.85,0,0,0,.85.84h2.25a.85.85,0,0,0,.84-.84v-4.78h.56a.85.85,0,0,0,.85-.85v-4.78A1.69,1.69,0,0,0,1033.69,391.06Z"/><path d="M1081,386a2.25,2.25,0,1,1-2.25,2.25A2.25,2.25,0,0,1,1081,386m4.19,12.45-1.68-6.75a.86.86,0,0,0-.82-.64h-.4a3.06,3.06,0,0,1-2.58,0h-.4a.86.86,0,0,0-.82.64l-1.68,6.75a.84.84,0,0,0,.82,1.05h2v3.66a.85.85,0,0,0,.85.84h1.12a.85.85,0,0,0,.85-.84V399.5h2a.84.84,0,0,0,.81-1.05Z"/><text class="cls-10" transform="translate(271.33 326.33)">THE GRAND BALLROOM</text><text class="cls-11" transform="translate(436.33 114.33)">VIP</text><text class="cls-11" transform="translate(840.33 384.33)">VIP</text><rect class="cls-12" x="1032.93" y="452.64" width="19.39" height="19.39"/><rect class="cls-12" x="1059.86" y="452.64" width="19.39" height="19.39"/><rect class="cls-12" x="1086.26" y="452.64" width="19.39" height="19.39"/><rect class="cls-13" x="472.93" y="452.73" width="19.39" height="19.39"/><rect class="cls-14" x="681.46" y="452.82" width="19.39" height="19.39"/><rect class="cls-15" x="832.93" y="452.56" width="19.39" height="19.39"/><rect class="cls-15" x="859.33" y="452.56" width="19.39" height="19.39"/><rect class="cls-16" x="254.44" y="452.91" width="19.39" height="19.39"/><path d="M1048.91,465.12l.34.67a.38.38,0,0,1-.17.5l-1.53.77a.75.75,0,0,1-1-.35l-1.47-3.13h-3.27a.74.74,0,0,1-.74-.64c-.79-5.55-.75-5.21-.76-5.35a1.5,1.5,0,1,1,1.72,1.48l.11.77h3a.36.36,0,0,1,.37.37V461a.36.36,0,0,1-.37.37h-2.83l.11.75h3.09a.75.75,0,0,1,.68.43l1.35,2.87.84-.43a.37.37,0,0,1,.5.17Zm-4.32-.79H1044a2.62,2.62,0,1,1-3.9-2.65c-.08-.61-.16-1.12-.22-1.55a4.12,4.12,0,1,0,5.29,5.48Z"/><path d="M1069.55,456a1.5,1.5,0,1,1-1.5,1.5,1.5,1.5,0,0,1,1.5-1.5m1.12,3.37h-.26a2.1,2.1,0,0,1-1.72,0h-.26a1.12,1.12,0,0,0-1.12,1.12v3.18a.56.56,0,0,0,.56.56h.37v3.19a.56.56,0,0,0,.56.56h1.5a.56.56,0,0,0,.56-.56v-3.19h.38a.56.56,0,0,0,.56-.56v-3.18A1.13,1.13,0,0,0,1070.67,459.39Z"/><path d="M1096.23,456.29a1.5,1.5,0,1,1-1.49,1.5,1.5,1.5,0,0,1,1.49-1.5m2.8,8.28-1.13-4.49a.55.55,0,0,0-.54-.42h-.27a2.08,2.08,0,0,1-1.71,0h-.27a.55.55,0,0,0-.54.42l-1.13,4.49a.57.57,0,0,0,.55.7h1.31v2.44a.56.56,0,0,0,.56.56h.75a.56.56,0,0,0,.56-.56v-2.44h1.31a.57.57,0,0,0,.55-.7Z"/><path class="cls-17" d="M842.62,456.47a1.5,1.5,0,1,1-1.5,1.5,1.5,1.5,0,0,1,1.5-1.5m1.12,3.37h-.27a2.08,2.08,0,0,1-1.71,0h-.27a1.12,1.12,0,0,0-1.12,1.12v3.18a.56.56,0,0,0,.56.56h.38v3.19a.56.56,0,0,0,.56.56h1.5a.56.56,0,0,0,.56-.56V464.7h.37a.56.56,0,0,0,.56-.56V461A1.12,1.12,0,0,0,843.74,459.84Z"/><path class="cls-17" d="M869.3,456.47a1.5,1.5,0,1,1-1.5,1.5,1.5,1.5,0,0,1,1.5-1.5m2.79,8.29-1.12-4.5a.56.56,0,0,0-.55-.42h-.26a2.1,2.1,0,0,1-1.72,0h-.26a.57.57,0,0,0-.55.42l-1.12,4.5a.56.56,0,0,0,.54.69h1.31v2.44a.57.57,0,0,0,.57.56h.74a.57.57,0,0,0,.57-.56v-2.44h1.31a.56.56,0,0,0,.54-.69Z"/><text class="cls-18" transform="translate(889.41 467.64)">PRAYER ROOM</text><text class="cls-18" transform="translate(1116.34 468)">REST ROOM</text><text class="cls-18" transform="translate(503.54 467.82)">COMMITTEE ROOM</text><text class="cls-18" transform="translate(711.54 468.18)">LIFT / STAIR</text><text class="cls-18" transform="translate(284.79 468.27)">CONFERENCE ROOM</text></g></svg>