<?xml version="1.0" encoding="UTF-8"?>
<!DOCTYPE svg PUBLIC "-//W3C//DTD SVG 1.1//EN" "http://www.w3.org/Graphics/SVG/1.1/DTD/svg11.dtd">
<!-- Creator: CorelDRAW X7 -->
<svg xmlns="http://www.w3.org/2000/svg" xml:space="preserve" width="12.9921in" height="19.0157in" version="1.1" style="shape-rendering:geometricPrecision; text-rendering:geometricPrecision; image-rendering:optimizeQuality; fill-rule:evenodd; clip-rule:evenodd"
viewBox="0 0 12992 19016"
 xmlns:xlink="http://www.w3.org/1999/xlink">
 <defs>
  <style type="text/css">
   <![CDATA[
    .str0 {stroke:#555555;stroke-width:6.94488}
    .str1 {stroke:#555555;stroke-width:3}
    .fil2 {fill:#D09C0F}
    .fil0 {fill:#DDDDDD}
    .fil3 {fill:#555555;fill-rule:nonzero}
    .fil1 {fill:url(#id0)}
   ]]>
  </style>
  <linearGradient id="id0" gradientUnits="userSpaceOnUse" x1="4124.8" y1="3194.09" x2="5415.23" y2="1903.66">
   <stop offset="0" style="stop-opacity:1; stop-color:#F8B815"/>
   <stop offset="1" style="stop-opacity:1; stop-color:#F8CD2D"/>
  </linearGradient>
 </defs>
 <g id="Layer_x0020_1">
  <metadata id="CorelCorpID_0Corel-Layer"/>
  <rect class="fil0" x="918" y="513" width="7705" height="5058"/>
  <g id="_2224425659312">
   <g>
    <polygon class="fil1 str0" points="4140,1889 5400,1889 5400,3003 5179,3209 4140,3209 "/>
    <polygon class="fil2 str1" points="5217,3047 5400,3001 5179,3209 "/>
    <path class="fil3" d="M4696 2455c0,3 0,6 0,9 -1,2 -1,4 -2,6 -1,2 -2,3 -4,4 -1,1 -2,1 -4,1l-178 0c-5,0 -9,-1 -13,-4 -4,-3 -6,-8 -6,-16l0 -331c0,-8 2,-13 6,-16 4,-3 8,-4 13,-4l176 0c2,0 3,0 4,1 2,1 3,2 3,4 1,1 2,4 2,6 1,3 1,6 1,10 0,3 0,6 -1,9 0,2 -1,4 -2,6 0,2 -1,3 -3,4 -1,0 -2,1 -4,1l-145 0 0 116 125 0c1,0 3,1 4,2 1,0 2,2 3,3 1,2 1,4 2,6 0,3 0,6 0,10 0,3 0,6 0,9 -1,2 -1,4 -2,6 -1,1 -2,3 -3,3 -1,1 -3,1 -4,1l-125 0 0 133 147 0c2,0 3,0 4,1 2,1 3,2 4,4 1,1 1,4 2,6 0,3 0,6 0,10zm366 -171c0,32 -4,60 -12,84 -8,24 -21,44 -36,60 -16,16 -35,28 -58,35 -23,8 -51,12 -82,12l-79 0c-5,0 -9,-1 -13,-4 -4,-3 -6,-8 -6,-16l0 -331c0,-8 2,-13 6,-16 4,-3 8,-4 13,-4l84 0c32,0 59,4 82,12 22,8 40,21 55,36 15,16 27,35 34,57 8,22 12,47 12,75zm-52 2c0,-20 -2,-39 -7,-56 -5,-17 -13,-32 -23,-45 -11,-13 -25,-22 -41,-30 -16,-7 -37,-10 -63,-10l-50 0 0 289 51 0c23,0 43,-3 60,-9 16,-6 30,-15 41,-27 11,-12 19,-28 24,-46 6,-19 8,-41 8,-66zm-242 674c1,4 2,7 2,10 0,2 -1,4 -2,6 -2,1 -4,2 -8,2 -3,1 -8,1 -14,1 -6,0 -11,0 -14,-1 -4,0 -6,0 -8,-1 -2,-1 -3,-2 -4,-3 -1,-1 -2,-2 -3,-4l-32 -91 -154 0 -30 90c-1,1 -2,3 -3,4 -1,1 -2,2 -4,3 -2,1 -4,2 -8,2 -3,1 -7,1 -13,1 -5,0 -10,0 -13,-1 -4,0 -6,-1 -8,-3 -1,-1 -2,-3 -2,-6 0,-2 1,-5 3,-10l124 -345c1,-2 2,-4 3,-5 2,-1 3,-2 6,-3 2,-1 5,-1 9,-2 4,0 8,0 14,0 6,0 11,0 15,0 4,1 8,1 10,2 3,1 4,2 6,3 1,2 2,3 3,5l125 346zm-160 -305l-1 0 -64 185 130 0 -65 -185zm421 218c0,17 -3,33 -9,46 -7,14 -16,25 -27,35 -11,9 -25,16 -40,21 -16,5 -32,7 -50,7 -12,0 -24,-1 -35,-3 -10,-2 -20,-5 -28,-8 -8,-3 -15,-6 -21,-9 -6,-3 -10,-6 -12,-9 -2,-2 -4,-5 -5,-8 -1,-4 -1,-9 -1,-14 0,-5 0,-8 0,-11 1,-3 1,-5 2,-7 1,-1 2,-2 3,-3 1,-1 2,-1 4,-1 3,0 6,2 11,5 5,3 11,7 19,10 8,4 17,8 28,11 11,3 23,5 37,5 11,0 21,-1 30,-4 9,-3 16,-7 23,-12 6,-6 11,-12 14,-20 4,-7 6,-16 6,-26 0,-10 -3,-19 -7,-27 -5,-7 -12,-14 -19,-19 -8,-6 -17,-11 -27,-16 -10,-5 -21,-9 -31,-14 -11,-5 -21,-11 -31,-16 -10,-6 -19,-13 -26,-21 -8,-8 -15,-18 -20,-29 -4,-10 -7,-23 -7,-38 0,-16 3,-30 9,-42 5,-12 13,-22 23,-30 10,-9 22,-15 36,-19 14,-5 29,-7 45,-7 8,0 16,1 25,2 8,2 16,4 23,6 7,3 14,5 20,8 5,3 9,6 11,7 2,2 3,4 4,5 0,1 1,2 1,4 0,1 1,3 1,6 0,2 0,5 0,9 0,3 0,6 0,9 0,2 -1,5 -2,7 0,1 -1,3 -2,4 -1,0 -2,1 -4,1 -2,0 -5,-1 -9,-4 -5,-3 -10,-6 -17,-9 -6,-4 -14,-7 -23,-9 -9,-3 -19,-5 -30,-5 -10,0 -19,2 -27,5 -8,2 -14,6 -19,11 -5,4 -9,10 -11,16 -3,6 -4,13 -4,20 0,10 2,19 7,27 5,7 11,14 19,19 8,6 17,11 28,16 10,5 20,10 31,15 10,5 21,10 31,16 10,5 19,12 27,20 8,8 14,18 19,28 5,11 7,24 7,39z"/>
   </g>
   <path class="fil3" d="M3214 4172c0,3 0,6 -1,8 0,2 -1,4 -1,6 -1,1 -2,2 -3,3 -1,1 -3,1 -4,1l-155 0c-4,0 -8,-1 -11,-4 -4,-2 -5,-7 -5,-13l0 -289c0,-6 1,-11 5,-13 3,-3 7,-4 11,-4l153 0c2,0 3,0 4,1 1,0 2,1 3,3 0,2 1,3 1,6 1,2 1,5 1,8 0,3 0,6 -1,8 0,2 -1,4 -1,5 -1,2 -2,3 -3,4 -1,0 -2,1 -4,1l-126 0 0 101 108 0c2,0 3,0 4,1 1,1 2,2 3,3 0,1 1,3 1,6 1,2 1,5 1,8 0,3 0,5 -1,8 0,2 -1,4 -1,5 -1,1 -2,2 -3,3 -1,0 -2,1 -4,1l-108 0 0 115 128 0c1,0 3,1 4,1 1,1 2,2 3,3 0,2 1,4 1,6 1,2 1,5 1,8z"/>
   <path id="1" class="fil3" d="M3464 4184c0,1 0,2 -1,3 -1,1 -2,2 -3,3 -1,0 -3,1 -6,1 -2,0 -5,1 -8,1 -4,0 -7,-1 -9,-1 -2,0 -4,-1 -6,-1 -1,-1 -2,-2 -3,-3 -1,-1 -1,-2 -1,-3l0 -30c-12,13 -24,23 -37,30 -12,7 -26,11 -42,11 -16,0 -30,-4 -42,-10 -11,-6 -21,-15 -28,-26 -7,-11 -13,-24 -16,-38 -3,-15 -5,-31 -5,-47 0,-19 2,-37 6,-52 4,-16 11,-29 19,-40 8,-11 18,-20 30,-26 12,-5 26,-8 42,-8 13,0 25,2 36,8 11,6 22,14 32,26l0 -131c0,-1 1,-2 1,-3 1,-1 2,-2 4,-3 1,0 3,-1 6,-1 3,-1 6,-1 10,-1 4,0 7,0 10,1 3,0 5,1 6,1 2,1 3,2 4,3 0,1 1,2 1,3l0 333zm-42 -158c-11,-14 -21,-25 -32,-32 -10,-7 -21,-11 -32,-11 -11,0 -20,2 -27,7 -7,5 -13,12 -18,20 -4,8 -8,18 -10,28 -2,10 -3,21 -3,31 0,12 1,23 3,34 1,10 4,20 9,29 4,8 10,15 17,20 7,5 16,7 27,7 5,0 11,0 16,-2 5,-1 10,-4 15,-7 6,-4 11,-8 17,-14 6,-6 12,-12 18,-21l0 -89z"/>
   <path id="2" class="fil3" d="M3582 4184c0,1 -1,2 -1,3 -1,1 -2,2 -4,3 -1,0 -3,1 -6,1 -3,0 -6,1 -10,1 -4,0 -8,-1 -10,-1 -3,0 -5,-1 -7,-1 -1,-1 -2,-2 -3,-3 -1,-1 -1,-2 -1,-3l0 -225c0,-1 0,-2 1,-3 1,-1 2,-2 3,-3 2,0 4,-1 7,-1 2,-1 6,-1 10,-1 4,0 7,0 10,1 3,0 5,1 6,1 2,1 3,2 4,3 0,1 1,2 1,3l0 225zm4 -301c0,10 -2,16 -5,20 -4,3 -11,5 -21,5 -9,0 -16,-2 -20,-5 -3,-3 -5,-10 -5,-19 0,-10 2,-17 6,-20 3,-4 10,-5 20,-5 10,0 16,1 20,5 3,3 5,10 5,19z"/>
   <path id="3" class="fil3" d="M3774 4167c0,5 0,9 -1,12 0,2 -1,5 -3,6 -1,1 -3,3 -6,4 -2,1 -5,2 -9,3 -3,0 -7,1 -11,1 -3,1 -7,1 -11,1 -12,0 -22,-1 -30,-4 -8,-3 -15,-8 -20,-14 -6,-7 -10,-15 -12,-24 -2,-10 -4,-21 -4,-34l0 -131 -31 0c-3,0 -5,-1 -6,-4 -2,-3 -3,-7 -3,-13 0,-3 1,-6 1,-8 0,-2 1,-4 2,-5 0,-2 1,-3 2,-3 1,-1 3,-1 4,-1l31 0 0 -54c0,-1 1,-2 1,-3 1,-1 2,-2 4,-3 1,0 3,-1 6,-1 3,-1 6,-1 10,-1 4,0 8,0 10,1 3,0 5,1 7,1 1,1 2,2 3,3 0,1 1,2 1,3l0 54 57 0c1,0 3,0 4,1 1,0 1,1 2,3 1,1 1,3 2,5 0,2 0,5 0,8 0,6 0,10 -2,13 -1,3 -3,4 -6,4l-57 0 0 125c0,16 2,27 7,35 4,8 12,12 24,12 4,0 7,0 10,-1 3,-1 6,-2 8,-3 2,0 4,-1 6,-2 2,-1 3,-1 5,-1 0,0 1,0 2,0 1,1 1,2 2,3 0,1 0,3 1,5 0,2 0,4 0,7z"/>
   <path id="4" class="fil3" d="M4033 4069c0,18 -3,35 -7,50 -5,16 -13,29 -22,40 -10,11 -22,20 -36,26 -14,7 -31,10 -50,10 -19,0 -35,-3 -48,-9 -14,-5 -26,-13 -35,-24 -9,-10 -16,-23 -20,-38 -5,-15 -7,-32 -7,-51 0,-18 3,-35 7,-50 5,-16 12,-29 22,-40 9,-11 21,-20 36,-26 14,-6 31,-9 50,-9 18,0 34,2 48,8 14,5 25,13 34,24 9,10 16,23 21,38 4,15 7,32 7,51zm-43 2c0,-12 -1,-23 -4,-34 -2,-11 -6,-20 -11,-29 -5,-8 -12,-14 -21,-19 -9,-5 -20,-7 -33,-7 -12,0 -23,2 -31,6 -9,5 -16,11 -22,19 -6,8 -10,17 -13,28 -3,11 -4,23 -4,35 0,13 1,24 4,35 2,11 6,20 11,29 5,8 12,14 21,19 9,5 20,7 33,7 12,0 23,-2 31,-7 9,-4 17,-10 22,-18 6,-8 10,-17 13,-28 2,-11 4,-23 4,-36z"/>
   <path id="5" class="fil3" d="M4225 3973c0,4 0,7 0,10 0,2 0,4 -1,6 0,1 -1,2 -2,3 -1,1 -2,1 -3,1 -1,0 -3,0 -5,-1 -2,-1 -4,-2 -6,-2 -3,-1 -5,-2 -8,-3 -3,0 -7,-1 -10,-1 -4,0 -8,1 -12,3 -4,2 -9,4 -13,8 -4,4 -9,9 -14,16 -5,6 -10,14 -16,23l0 148c0,1 0,2 -1,3 0,1 -1,2 -3,3 -2,0 -4,1 -6,1 -3,0 -6,1 -11,1 -4,0 -7,-1 -10,-1 -2,0 -4,-1 -6,-1 -2,-1 -3,-2 -3,-3 -1,-1 -1,-2 -1,-3l0 -225c0,-1 0,-3 1,-3 0,-1 1,-2 3,-3 1,-1 3,-1 5,-2 3,0 6,0 10,0 3,0 6,0 9,0 2,1 4,1 6,2 1,1 2,2 2,3 1,0 1,2 1,3l0 33c6,-9 12,-17 18,-22 5,-6 10,-11 15,-14 5,-3 10,-5 14,-7 5,-1 10,-1 15,-1 2,0 4,0 7,0 3,0 6,1 9,1 3,1 5,2 8,3 2,0 4,1 5,2 1,1 2,2 2,2 0,1 0,2 1,3 0,1 0,3 0,5 0,3 0,6 0,9z"/>
   <path id="6" class="fil3" d="M4349 3861c0,5 0,9 0,14 -1,4 -2,8 -3,12 -1,4 -3,8 -5,11 -1,4 -4,8 -7,12l-34 51c-1,1 -2,3 -3,4 -1,1 -2,1 -4,2 -1,1 -3,1 -5,1 -2,0 -5,1 -8,1 -3,0 -5,-1 -7,-1 -2,0 -4,0 -4,-1 -1,-1 -2,-1 -2,-2 0,-1 0,-3 1,-4l33 -69 0 -31c0,-5 1,-8 2,-11 1,-3 2,-5 4,-6 2,-2 5,-3 8,-3 3,-1 6,-1 11,-1 4,0 7,0 10,1 3,0 6,1 8,3 2,1 3,3 4,6 1,3 1,6 1,11z"/>
   <path id="7" class="fil3" d="M4533 4122c0,12 -2,22 -7,31 -4,9 -10,17 -18,23 -8,6 -17,11 -28,14 -11,3 -23,5 -36,5 -8,0 -15,-1 -22,-2 -8,-1 -14,-3 -20,-5 -6,-2 -10,-4 -14,-6 -4,-2 -7,-4 -9,-5 -2,-2 -3,-4 -4,-7 -1,-3 -1,-7 -1,-13 0,-3 0,-5 0,-7 0,-3 1,-4 1,-6 1,-1 2,-2 2,-3 1,0 2,-1 4,-1 1,0 4,2 8,4 3,2 8,5 13,7 5,3 11,5 18,8 8,2 16,3 25,3 7,0 13,-1 19,-2 6,-2 11,-4 15,-7 4,-3 7,-7 9,-11 3,-5 4,-10 4,-16 0,-7 -2,-12 -5,-16 -3,-5 -8,-8 -13,-12 -5,-3 -11,-6 -18,-9 -7,-2 -13,-5 -20,-8 -7,-3 -14,-6 -21,-9 -7,-4 -13,-8 -18,-13 -5,-6 -10,-12 -13,-19 -3,-7 -5,-16 -5,-26 0,-9 2,-17 5,-25 4,-8 9,-15 16,-21 7,-6 15,-11 25,-15 11,-4 22,-5 36,-5 6,0 12,0 18,1 6,1 12,2 16,4 5,2 9,3 13,5 3,2 6,3 8,5 1,1 2,2 3,3 1,1 1,3 1,4 1,1 1,3 1,4 0,2 0,4 0,7 0,3 0,5 0,7 0,2 -1,4 -1,5 -1,2 -2,3 -2,3 -1,1 -2,1 -3,1 -2,0 -4,-1 -7,-3 -2,-1 -6,-3 -11,-5 -4,-3 -9,-5 -16,-6 -6,-2 -13,-3 -20,-3 -7,0 -14,1 -19,2 -5,2 -10,4 -13,7 -3,3 -6,6 -8,10 -2,4 -2,8 -2,13 0,7 1,12 5,16 3,5 7,9 13,12 5,3 11,6 18,9 7,3 14,5 21,8 7,3 14,6 21,10 6,3 13,8 18,12 5,6 10,11 13,18 3,7 5,16 5,25z"/>
   <path id="8" class="fil3" d="M4954 4175c1,4 2,6 2,9 0,2 -1,4 -2,5 -1,1 -3,2 -6,2 -4,0 -8,1 -13,1 -5,0 -9,0 -12,-1 -3,0 -6,0 -7,-1 -2,-1 -3,-1 -4,-2 0,-1 -1,-3 -2,-4l-28 -79 -134 0 -26 78c-1,1 -2,3 -2,4 -1,1 -2,2 -4,3 -2,0 -4,1 -7,1 -3,0 -6,1 -11,1 -5,0 -9,-1 -12,-1 -3,0 -5,-1 -7,-2 -1,-2 -1,-3 -1,-5 0,-3 0,-6 2,-9l108 -301c1,-2 2,-3 3,-4 1,-1 3,-2 5,-3 2,-1 4,-1 8,-1 3,-1 7,-1 12,-1 5,0 10,0 13,1 4,0 7,0 9,1 2,1 4,2 5,3 1,1 2,3 2,4l109 301zm-139 -265l-1 0 -55 161 112 0 -56 -161z"/>
   <path id="9" class="fil3" d="M5145 4122c0,12 -3,22 -7,31 -4,9 -10,17 -18,23 -8,6 -17,11 -28,14 -11,3 -23,5 -36,5 -8,0 -15,-1 -23,-2 -7,-1 -13,-3 -19,-5 -6,-2 -11,-4 -15,-6 -4,-2 -7,-4 -8,-5 -2,-2 -4,-4 -4,-7 -1,-3 -2,-7 -2,-13 0,-3 1,-5 1,-7 0,-3 1,-4 1,-6 1,-1 1,-2 2,-3 1,0 2,-1 3,-1 2,0 5,2 8,4 4,2 8,5 14,7 5,3 11,5 18,8 7,2 16,3 25,3 7,0 13,-1 19,-2 6,-2 10,-4 15,-7 4,-3 7,-7 9,-11 2,-5 4,-10 4,-16 0,-7 -2,-12 -5,-16 -4,-5 -8,-8 -13,-12 -5,-3 -11,-6 -18,-9 -7,-2 -14,-5 -21,-8 -7,-3 -14,-6 -20,-9 -7,-4 -13,-8 -18,-13 -6,-6 -10,-12 -13,-19 -3,-7 -5,-16 -5,-26 0,-9 2,-17 5,-25 4,-8 9,-15 15,-21 7,-6 16,-11 26,-15 10,-4 22,-5 36,-5 6,0 12,0 18,1 6,1 11,2 16,4 5,2 9,3 13,5 3,2 6,3 7,5 2,1 3,2 4,3 0,1 1,3 1,4 0,1 1,3 1,4 0,2 0,4 0,7 0,3 0,5 0,7 0,2 -1,4 -1,5 -1,2 -2,3 -3,3 0,1 -1,1 -2,1 -2,0 -4,-1 -7,-3 -3,-1 -6,-3 -11,-5 -4,-3 -10,-5 -16,-6 -6,-2 -13,-3 -21,-3 -7,0 -13,1 -18,2 -5,2 -10,4 -13,7 -4,3 -6,6 -8,10 -2,4 -3,8 -3,13 0,7 2,12 5,16 4,5 8,9 13,12 6,3 12,6 19,9 6,3 13,5 20,8 8,3 15,6 21,10 7,3 13,8 19,12 5,6 9,11 13,18 3,7 5,16 5,25z"/>
   <path id="10" class="fil3" d="M5345 4122c0,12 -2,22 -7,31 -4,9 -10,17 -18,23 -8,6 -17,11 -28,14 -11,3 -23,5 -36,5 -8,0 -15,-1 -22,-2 -8,-1 -14,-3 -20,-5 -6,-2 -10,-4 -14,-6 -4,-2 -7,-4 -9,-5 -2,-2 -3,-4 -4,-7 -1,-3 -1,-7 -1,-13 0,-3 0,-5 0,-7 0,-3 1,-4 1,-6 1,-1 2,-2 2,-3 1,0 2,-1 4,-1 1,0 4,2 8,4 3,2 8,5 13,7 5,3 11,5 18,8 8,2 16,3 25,3 7,0 13,-1 19,-2 6,-2 11,-4 15,-7 4,-3 7,-7 9,-11 3,-5 4,-10 4,-16 0,-7 -2,-12 -5,-16 -3,-5 -8,-8 -13,-12 -5,-3 -11,-6 -18,-9 -7,-2 -13,-5 -20,-8 -7,-3 -14,-6 -21,-9 -7,-4 -13,-8 -18,-13 -5,-6 -10,-12 -13,-19 -3,-7 -5,-16 -5,-26 0,-9 2,-17 5,-25 4,-8 9,-15 16,-21 7,-6 15,-11 25,-15 11,-4 22,-5 36,-5 6,0 12,0 18,1 6,1 12,2 16,4 5,2 9,3 13,5 3,2 6,3 8,5 1,1 2,2 3,3 1,1 1,3 1,4 1,1 1,3 1,4 0,2 0,4 0,7 0,3 0,5 0,7 0,2 -1,4 -1,5 -1,2 -2,3 -2,3 -1,1 -2,1 -3,1 -2,0 -4,-1 -7,-3 -2,-1 -6,-3 -11,-5 -4,-3 -9,-5 -16,-6 -6,-2 -13,-3 -20,-3 -7,0 -14,1 -19,2 -5,2 -10,4 -13,7 -3,3 -6,6 -8,10 -2,4 -2,8 -2,13 0,7 1,12 5,16 3,5 7,9 13,12 5,3 11,6 18,9 7,3 14,5 21,8 7,3 14,6 21,10 6,3 13,8 18,12 5,6 10,11 13,18 3,7 5,16 5,25z"/>
   <path id="11" class="fil3" d="M5445 4184c0,1 0,2 -1,3 -1,1 -2,2 -3,3 -2,0 -4,1 -7,1 -2,0 -6,1 -10,1 -4,0 -7,-1 -10,-1 -3,0 -5,-1 -6,-1 -2,-1 -3,-2 -4,-3 0,-1 0,-2 0,-3l0 -225c0,-1 0,-2 0,-3 1,-1 2,-2 4,-3 1,0 3,-1 6,-1 3,-1 6,-1 10,-1 4,0 8,0 10,1 3,0 5,1 7,1 1,1 2,2 3,3 1,1 1,2 1,3l0 225zm5 -301c0,10 -2,16 -6,20 -4,3 -10,5 -20,5 -10,0 -17,-2 -20,-5 -4,-3 -6,-10 -6,-19 0,-10 2,-17 6,-20 4,-4 10,-5 20,-5 10,0 17,1 20,5 4,3 6,10 6,19z"/>
   <path id="12" class="fil3" d="M5662 4122c0,12 -2,22 -6,31 -4,9 -10,17 -18,23 -8,6 -17,11 -28,14 -11,3 -23,5 -36,5 -8,0 -16,-1 -23,-2 -7,-1 -14,-3 -19,-5 -6,-2 -11,-4 -15,-6 -4,-2 -7,-4 -9,-5 -1,-2 -3,-4 -4,-7 0,-3 -1,-7 -1,-13 0,-3 0,-5 1,-7 0,-3 0,-4 1,-6 0,-1 1,-2 2,-3 1,0 2,-1 3,-1 2,0 5,2 8,4 4,2 8,5 13,7 6,3 12,5 19,8 7,2 15,3 25,3 7,0 13,-1 19,-2 5,-2 10,-4 14,-7 4,-3 8,-7 10,-11 2,-5 3,-10 3,-16 0,-7 -1,-12 -5,-16 -3,-5 -7,-8 -12,-12 -6,-3 -12,-6 -18,-9 -7,-2 -14,-5 -21,-8 -7,-3 -14,-6 -21,-9 -6,-4 -12,-8 -18,-13 -5,-6 -9,-12 -12,-19 -4,-7 -5,-16 -5,-26 0,-9 1,-17 5,-25 3,-8 8,-15 15,-21 7,-6 16,-11 26,-15 10,-4 22,-5 36,-5 6,0 12,0 18,1 6,1 11,2 16,4 5,2 9,3 12,5 4,2 6,3 8,5 2,1 3,2 4,3 0,1 1,3 1,4 0,1 0,3 1,4 0,2 0,4 0,7 0,3 0,5 0,7 -1,2 -1,4 -2,5 0,2 -1,3 -2,3 -1,1 -2,1 -3,1 -1,0 -3,-1 -6,-3 -3,-1 -7,-3 -11,-5 -5,-3 -10,-5 -16,-6 -6,-2 -13,-3 -21,-3 -7,0 -13,1 -18,2 -6,2 -10,4 -13,7 -4,3 -7,6 -8,10 -2,4 -3,8 -3,13 0,7 2,12 5,16 3,5 8,9 13,12 5,3 12,6 18,9 7,3 14,5 21,8 7,3 14,6 21,10 7,3 13,8 18,12 6,6 10,11 13,18 4,7 5,16 5,25z"/>
   <path id="13" class="fil3" d="M5832 4167c0,5 0,9 -1,12 -1,2 -2,5 -3,6 -1,1 -3,3 -6,4 -3,1 -6,2 -9,3 -3,0 -7,1 -11,1 -4,1 -7,1 -11,1 -12,0 -22,-1 -30,-4 -8,-3 -15,-8 -21,-14 -5,-7 -9,-15 -11,-24 -3,-10 -4,-21 -4,-34l0 -131 -31 0c-3,0 -5,-1 -7,-4 -1,-3 -2,-7 -2,-13 0,-3 0,-6 1,-8 0,-2 1,-4 1,-5 1,-2 2,-3 3,-3 1,-1 2,-1 4,-1l31 0 0 -54c0,-1 0,-2 1,-3 1,-1 2,-2 3,-3 2,0 4,-1 7,-1 2,-1 6,-1 10,-1 4,0 7,0 10,1 3,0 5,1 6,1 2,1 3,2 4,3 0,1 1,2 1,3l0 54 57 0c1,0 2,0 3,1 1,0 2,1 3,3 1,1 1,3 2,5 0,2 0,5 0,8 0,6 -1,10 -2,13 -2,3 -4,4 -6,4l-57 0 0 125c0,16 2,27 6,35 5,8 13,12 25,12 4,0 7,0 10,-1 3,-1 6,-2 8,-3 2,0 4,-1 6,-2 2,-1 3,-1 4,-1 1,0 2,0 3,0 0,1 1,2 1,3 1,1 1,3 2,5 0,2 0,4 0,7z"/>
   <path id="14" class="fil3" d="M6050 4184c0,2 -1,4 -2,5 -1,1 -3,1 -6,2 -2,0 -5,1 -10,1 -4,0 -8,-1 -10,-1 -3,-1 -5,-1 -6,-2 -1,-1 -2,-3 -2,-5l0 -22c-9,10 -20,18 -32,24 -12,6 -25,9 -39,9 -12,0 -22,-2 -32,-5 -9,-3 -18,-7 -24,-13 -7,-6 -12,-13 -16,-22 -4,-8 -6,-18 -6,-29 0,-12 3,-23 8,-33 5,-9 13,-17 22,-23 10,-6 22,-11 36,-14 14,-3 30,-5 47,-5l31 0 0 -17c0,-9 -1,-16 -3,-23 -2,-7 -4,-12 -9,-17 -4,-4 -9,-8 -15,-10 -7,-2 -15,-3 -24,-3 -11,0 -20,1 -28,3 -8,3 -15,6 -21,9 -6,3 -11,5 -15,8 -4,2 -7,3 -9,3 -2,0 -3,0 -4,-1 -1,0 -2,-1 -2,-3 -1,-1 -2,-3 -2,-5 0,-2 0,-4 0,-7 0,-4 0,-7 0,-9 1,-3 2,-5 5,-7 2,-2 6,-5 11,-8 6,-3 12,-6 19,-8 7,-2 15,-4 24,-6 8,-2 17,-2 25,-2 16,0 30,1 42,5 11,4 20,9 27,16 7,7 12,16 15,27 3,10 5,22 5,36l0 152zm-41 -103l-35 0c-11,0 -21,1 -30,3 -8,2 -15,5 -20,9 -6,3 -10,8 -12,13 -3,5 -4,11 -4,18 0,12 3,21 11,28 7,7 18,10 31,10 11,0 21,-2 30,-8 9,-5 19,-14 29,-25l0 -48z"/>
   <path id="15" class="fil3" d="M6319 4184c0,1 0,2 -1,3 -1,1 -2,2 -3,3 -2,0 -4,1 -6,1 -3,0 -6,1 -10,1 -5,0 -8,-1 -11,-1 -3,0 -5,-1 -6,-1 -2,-1 -3,-2 -3,-3 -1,-1 -1,-2 -1,-3l0 -132c0,-13 -1,-23 -3,-31 -2,-8 -5,-14 -9,-20 -4,-6 -9,-10 -15,-13 -6,-3 -13,-5 -21,-5 -10,0 -20,4 -31,11 -10,8 -21,18 -32,33l0 157c0,1 0,2 -1,3 -1,1 -2,2 -3,3 -2,0 -4,1 -6,1 -3,0 -6,1 -11,1 -4,0 -7,-1 -10,-1 -2,0 -5,-1 -6,-1 -2,-1 -3,-2 -3,-3 -1,-1 -1,-2 -1,-3l0 -225c0,-1 0,-3 0,-3 1,-1 2,-2 3,-3 2,-1 4,-1 6,-2 3,0 6,0 10,0 3,0 6,0 9,0 2,1 4,1 5,2 2,1 3,2 3,3 1,0 1,2 1,3l0 30c13,-15 25,-25 38,-32 12,-6 25,-9 38,-9 15,0 27,2 38,7 10,5 18,12 24,21 7,8 11,18 14,29 3,12 4,26 4,42l0 137z"/>
   <path id="16" class="fil3" d="M6506 4167c0,5 0,9 -1,12 0,2 -1,5 -3,6 -1,1 -3,3 -6,4 -2,1 -5,2 -9,3 -3,0 -7,1 -11,1 -3,1 -7,1 -11,1 -12,0 -22,-1 -30,-4 -8,-3 -15,-8 -20,-14 -6,-7 -10,-15 -12,-24 -2,-10 -4,-21 -4,-34l0 -131 -31 0c-3,0 -5,-1 -6,-4 -2,-3 -2,-7 -2,-13 0,-3 0,-6 0,-8 1,-2 1,-4 2,-5 0,-2 1,-3 2,-3 1,-1 3,-1 4,-1l31 0 0 -54c0,-1 1,-2 1,-3 1,-1 2,-2 4,-3 1,0 3,-1 6,-1 3,-1 6,-1 10,-1 4,0 8,0 10,1 3,0 5,1 7,1 1,1 2,2 3,3 1,1 1,2 1,3l0 54 57 0c2,0 3,0 4,1 1,0 2,1 2,3 1,1 2,3 2,5 0,2 0,5 0,8 0,6 0,10 -2,13 -1,3 -3,4 -6,4l-57 0 0 125c0,16 2,27 7,35 4,8 12,12 24,12 4,0 7,0 10,-1 3,-1 6,-2 8,-3 3,0 5,-1 6,-2 2,-1 3,-1 5,-1 1,0 1,0 2,0 1,1 1,2 2,3 0,1 1,3 1,5 0,2 0,4 0,7z"/>
  </g>
 </g>
</svg>
