<?xml version="1.0" encoding="UTF-8"?>
<!DOCTYPE svg PUBLIC "-//W3C//DTD SVG 1.1//EN" "http://www.w3.org/Graphics/SVG/1.1/DTD/svg11.dtd">
<!-- Creator: CorelDRAW X7 -->
<svg xmlns="http://www.w3.org/2000/svg" xml:space="preserve" width="12.9921in" height="19.0157in" version="1.1" style="shape-rendering:geometricPrecision; text-rendering:geometricPrecision; image-rendering:optimizeQuality; fill-rule:evenodd; clip-rule:evenodd"
viewBox="0 0 12992 19016"
 xmlns:xlink="http://www.w3.org/1999/xlink">
 <defs>
  <style type="text/css">
   <![CDATA[
    .str0 {stroke:#E6E7E8;stroke-width:3}
    .fil0 {fill:#FEFEFE}
    .fil2 {fill:#005897}
    .fil1 {fill:#D82223}
    .fil3 {fill:black;fill-rule:nonzero}
    .fil4 {fill:#005897;fill-rule:nonzero}
    .fil5 {fill:#D82223;fill-rule:nonzero}
   ]]>
  </style>
 </defs>
 <g id="Layer_x0020_1">
  <metadata id="CorelCorpID_0Corel-Layer"/>
  <rect class="fil0 str0" x="918" y="5974" width="7705" height="5058"/>
  <g id="_2224425509680">
   <path class="fil1" d="M2496 8081l1695 0c58,0 72,94 27,122 -60,37 -311,-13 -395,27 -39,18 -88,70 -88,124l0 411 151 6c20,0 38,4 38,-17l0 -334c66,0 115,-5 184,-5 127,0 242,26 308,-70 44,-64 36,-165 36,-247 0,-143 -96,-211 -239,-211l-1717 0 0 194z"/>
   <path class="fil2" d="M3107 8154l0 161c0,13 4,17 17,17l172 0 0 433 206 0 0 -433 156 0c12,0 16,-4 16,-17l0 -178 -550 0c-13,0 -17,4 -17,17z"/>
   <path class="fil2" d="M2496 8315c0,13 4,17 17,17l172 0 0 433 200 0 0 -433 161 0c13,0 17,-4 17,-17l0 -161c0,-13 -4,-17 -17,-17l-550 0 0 178z"/>
   <path class="fil3" d="M2519 9084l0 -172 34 0 40 121c4,12 7,20 9,26 2,-6 5,-16 9,-28l41 -119 30 0 0 172 -21 0 0 -144 -50 144 -21 0 -49 -147 0 147 -22 0zm285 -16c-8,7 -15,11 -23,14 -7,3 -15,4 -23,4 -14,0 -24,-3 -31,-10 -8,-6 -11,-15 -11,-25 0,-6 1,-12 4,-17 2,-5 6,-9 11,-12 4,-3 9,-5 15,-7 4,-1 10,-2 19,-3 17,-2 29,-5 37,-7 0,-3 0,-5 0,-6 0,-8 -2,-14 -6,-18 -5,-5 -13,-7 -24,-7 -10,0 -17,2 -22,5 -5,4 -8,10 -10,19l-21 -3c2,-9 5,-16 9,-22 5,-5 11,-9 19,-12 8,-3 18,-5 28,-5 11,0 20,2 26,4 7,3 12,6 15,10 3,3 5,8 7,14 0,4 1,10 1,19l0 28c0,20 0,32 1,38 1,5 3,10 5,15l-22 0c-2,-5 -3,-10 -4,-16zm-2 -47c-7,3 -19,6 -34,8 -9,1 -15,3 -19,4 -3,2 -6,4 -8,7 -2,3 -3,6 -3,10 0,6 2,10 6,14 5,4 11,6 19,6 8,0 15,-2 22,-6 6,-3 11,-8 14,-14 2,-5 3,-12 3,-21l0 -8zm106 44l3 18c-6,2 -11,2 -16,2 -7,0 -13,-1 -18,-3 -4,-3 -7,-6 -8,-10 -2,-4 -3,-12 -3,-25l0 -72 -16 0 0 -16 16 0 0 -31 21 -12 0 43 21 0 0 16 -21 0 0 73c0,6 1,10 1,12 1,2 2,3 4,4 2,1 4,2 7,2 2,0 5,-1 9,-1zm112 -22l22 3c-3,13 -10,23 -19,30 -9,7 -21,10 -35,10 -19,0 -33,-5 -44,-17 -10,-11 -15,-26 -15,-47 0,-20 5,-37 16,-48 10,-12 24,-18 41,-18 17,0 31,6 41,17 11,12 16,28 16,48 0,1 0,3 0,6l-93 0c1,13 5,24 12,31 7,7 15,11 26,11 7,0 14,-2 19,-6 6,-4 10,-11 13,-20zm-69 -34l70 0c-1,-10 -4,-18 -8,-23 -7,-8 -16,-12 -26,-12 -10,0 -18,3 -25,9 -6,7 -10,16 -11,26zm124 75l0 -125 19 0 0 19c5,-9 9,-14 13,-17 4,-3 9,-5 14,-5 7,0 14,3 22,7l-8 20c-5,-3 -10,-5 -15,-5 -5,0 -9,2 -13,4 -3,3 -6,7 -7,12 -3,7 -4,16 -4,25l0 65 -21 0zm86 -148l0 -24 22 0 0 24 -22 0zm0 148l0 -125 22 0 0 125 -22 0zm141 -16c-7,7 -15,11 -22,14 -7,3 -15,4 -23,4 -14,0 -25,-3 -32,-10 -7,-6 -11,-15 -11,-25 0,-6 1,-12 4,-17 3,-5 7,-9 11,-12 5,-3 10,-5 15,-7 4,-1 11,-2 19,-3 17,-2 30,-5 38,-7 0,-3 0,-5 0,-6 0,-8 -2,-14 -6,-18 -6,-5 -14,-7 -24,-7 -10,0 -18,2 -22,5 -5,4 -9,10 -11,19l-20 -3c1,-9 5,-16 9,-22 4,-5 10,-9 19,-12 8,-3 17,-5 28,-5 10,0 19,2 26,4 6,3 11,6 14,10 4,3 6,8 7,14 1,4 1,10 1,19l0 28c0,20 1,32 1,38 1,5 3,10 6,15l-23 0c-2,-5 -3,-10 -4,-16zm-1 -47c-8,3 -19,6 -35,8 -8,1 -15,3 -18,4 -4,2 -7,4 -9,7 -1,3 -2,6 -2,10 0,6 2,10 6,14 4,4 10,6 19,6 8,0 15,-2 21,-6 7,-3 11,-8 14,-14 3,-5 4,-12 4,-21l0 -8zm59 63l0 -172 22 0 0 172 -22 0zm52 -38l21 -3c1,8 5,15 10,19 5,5 13,7 22,7 10,0 17,-2 22,-6 5,-4 7,-9 7,-14 0,-5 -2,-8 -6,-11 -3,-2 -11,-4 -22,-7 -15,-4 -26,-7 -32,-10 -6,-3 -10,-7 -14,-12 -3,-5 -4,-11 -4,-17 0,-5 1,-10 4,-15 2,-5 6,-9 10,-12 3,-2 8,-4 13,-6 6,-2 12,-3 19,-3 9,0 18,2 25,5 8,3 13,6 16,11 4,5 6,11 8,19l-21 3c-1,-6 -4,-11 -8,-15 -4,-3 -11,-5 -19,-5 -10,0 -17,1 -21,5 -4,3 -6,6 -6,11 0,2 1,5 3,7 1,2 4,4 8,6 2,1 8,2 18,5 15,4 26,7 32,10 5,2 10,6 13,11 4,5 6,11 6,18 0,7 -3,14 -7,20 -4,6 -10,11 -17,14 -8,3 -17,5 -27,5 -16,0 -28,-3 -37,-10 -8,-7 -13,-16 -16,-30zm197 -18l21 -2c1,9 3,16 7,22 4,5 10,10 17,13 8,4 17,5 27,5 8,0 16,-1 23,-4 6,-2 11,-6 14,-10 4,-5 5,-10 5,-15 0,-5 -1,-10 -4,-14 -4,-4 -9,-7 -16,-10 -4,-2 -15,-5 -30,-8 -16,-4 -27,-8 -34,-11 -8,-5 -14,-10 -18,-16 -4,-7 -6,-14 -6,-22 0,-8 3,-16 8,-24 4,-7 12,-13 21,-17 10,-4 20,-6 32,-6 12,0 23,2 33,6 10,4 17,10 23,18 5,8 8,17 8,27l-22 2c-1,-11 -5,-19 -12,-25 -6,-5 -16,-8 -30,-8 -13,0 -23,3 -30,8 -6,5 -9,11 -9,18 0,6 2,11 7,15 4,4 15,8 34,12 18,5 31,8 38,11 10,5 17,11 22,18 5,7 7,15 7,24 0,9 -3,18 -8,26 -5,8 -12,14 -22,19 -10,4 -21,6 -33,6 -16,0 -29,-2 -39,-6 -11,-5 -19,-12 -25,-21 -6,-9 -9,-19 -9,-31zm252 10l21 3c-3,14 -8,25 -18,33 -9,8 -20,12 -34,12 -17,0 -31,-5 -41,-16 -10,-12 -15,-27 -15,-48 0,-14 2,-25 6,-35 5,-10 11,-18 21,-23 9,-5 18,-8 29,-8 14,0 25,4 33,11 9,7 14,16 17,29l-21 3c-2,-8 -5,-15 -10,-19 -5,-4 -11,-6 -18,-6 -11,0 -19,4 -26,11 -7,8 -10,20 -10,36 0,17 3,29 10,37 6,7 14,11 25,11 8,0 15,-3 20,-8 6,-5 10,-13 11,-23zm45 -102l0 -24 21 0 0 24 -21 0zm0 148l0 -125 21 0 0 125 -21 0zm145 -41l21 3c-3,13 -9,23 -19,30 -9,7 -21,10 -35,10 -18,0 -33,-5 -43,-17 -11,-11 -16,-26 -16,-47 0,-20 5,-37 16,-48 11,-12 25,-18 42,-18 16,0 30,6 40,17 11,12 16,28 16,48 0,1 0,3 0,6l-93 0c1,13 5,24 12,31 7,7 16,11 26,11 8,0 14,-2 20,-6 5,-4 9,-11 13,-20zm-69 -34l69 0c-1,-10 -4,-18 -8,-23 -7,-8 -15,-12 -26,-12 -10,0 -18,3 -25,9 -6,7 -10,16 -10,26zm124 75l0 -125 18 0 0 18c10,-14 23,-21 40,-21 7,0 14,2 21,5 6,2 11,6 14,10 3,4 5,10 6,16 1,4 1,10 1,20l0 77 -21 0 0 -76c0,-9 0,-15 -2,-19 -2,-5 -5,-8 -9,-10 -4,-3 -9,-4 -14,-4 -9,0 -17,3 -24,8 -6,6 -9,17 -9,33l0 68 -21 0zm220 -46l21 3c-2,14 -8,25 -17,33 -10,8 -21,12 -35,12 -17,0 -30,-5 -40,-16 -11,-12 -16,-27 -16,-48 0,-14 2,-25 7,-35 4,-10 11,-18 20,-23 9,-5 19,-8 30,-8 13,0 24,4 33,11 8,7 14,16 16,29l-20 3c-2,-8 -6,-15 -11,-19 -5,-4 -11,-6 -18,-6 -10,0 -19,4 -25,11 -7,8 -10,20 -10,36 0,17 3,29 9,37 7,7 15,11 25,11 9,0 15,-3 21,-8 6,-5 9,-13 10,-23zm130 5l22 3c-3,13 -10,23 -19,30 -9,7 -21,10 -35,10 -18,0 -33,-5 -43,-17 -11,-11 -16,-26 -16,-47 0,-20 5,-37 16,-48 10,-12 24,-18 41,-18 17,0 31,6 41,17 11,12 16,28 16,48 0,1 0,3 0,6l-93 0c1,13 5,24 12,31 7,7 15,11 26,11 7,0 14,-2 19,-6 6,-4 10,-11 13,-20zm-69 -34l70 0c-1,-10 -4,-18 -8,-23 -7,-8 -16,-12 -26,-12 -10,0 -18,3 -25,9 -6,7 -10,16 -11,26zm289 54c-7,8 -14,14 -23,17 -8,4 -17,6 -26,6 -18,0 -32,-6 -42,-18 -8,-9 -13,-20 -13,-32 0,-10 4,-20 11,-29 6,-8 17,-16 30,-22 -8,-9 -13,-16 -15,-22 -3,-5 -4,-11 -4,-16 0,-10 4,-19 12,-27 8,-7 18,-11 30,-11 12,0 22,4 29,11 8,7 11,16 11,26 0,16 -10,30 -32,42l31 39c3,-7 6,-15 8,-24l22 4c-4,15 -9,28 -15,37 7,11 16,19 26,26l-14 17c-8,-5 -17,-13 -26,-24zm-43 -89c9,-5 15,-10 18,-14 2,-4 4,-9 4,-14 0,-6 -2,-10 -6,-14 -4,-4 -8,-6 -14,-6 -5,0 -10,2 -14,6 -4,3 -6,8 -6,13 0,3 1,6 2,9 2,3 4,6 6,9l10 11zm30 73l-39 -48c-11,6 -19,13 -23,19 -4,5 -6,11 -6,17 0,7 3,14 8,21 6,8 14,11 24,11 6,0 13,-1 19,-5 7,-4 13,-9 17,-15zm151 37l0 -172 124 0 0 20 -101 0 0 53 94 0 0 20 -94 0 0 58 105 0 0 21 -128 0zm163 0l0 -125 19 0 0 18c9,-14 22,-21 40,-21 7,0 14,2 20,5 6,2 11,6 14,10 3,4 6,10 7,16 1,4 1,10 1,20l0 77 -21 0 0 -76c0,-9 -1,-15 -3,-19 -1,-5 -4,-8 -8,-10 -4,-3 -9,-4 -15,-4 -9,0 -17,3 -23,8 -7,6 -10,17 -10,33l0 68 -21 0zm136 10l20 3c1,6 4,11 7,14 6,3 13,5 22,5 10,0 17,-2 23,-5 5,-4 8,-10 10,-17 1,-4 2,-13 2,-27 -9,11 -21,17 -35,17 -17,0 -30,-7 -39,-19 -10,-12 -14,-27 -14,-44 0,-12 2,-23 6,-33 4,-10 11,-18 19,-23 8,-6 17,-9 28,-9 15,0 27,6 37,18l0 -15 19 0 0 108c0,19 -2,33 -6,41 -4,8 -10,14 -18,19 -9,5 -20,7 -32,7 -15,0 -27,-3 -36,-10 -9,-7 -13,-17 -13,-30zm17 -75c0,16 3,28 10,36 6,7 15,11 24,11 10,0 18,-4 25,-11 6,-8 9,-19 9,-35 0,-15 -3,-27 -10,-34 -6,-8 -15,-12 -24,-12 -9,0 -17,4 -24,11 -7,8 -10,19 -10,34zm127 -83l0 -24 21 0 0 24 -21 0zm0 148l0 -125 21 0 0 125 -21 0zm59 0l0 -125 19 0 0 18c9,-14 22,-21 40,-21 7,0 14,2 20,5 7,2 11,6 14,10 4,4 6,10 7,16 1,4 1,10 1,20l0 77 -21 0 0 -76c0,-9 -1,-15 -2,-19 -2,-5 -5,-8 -9,-10 -4,-3 -9,-4 -15,-4 -9,0 -16,3 -23,8 -6,6 -10,17 -10,33l0 68 -21 0zm225 -41l22 3c-4,13 -10,23 -19,30 -10,7 -21,10 -36,10 -18,0 -32,-5 -43,-17 -11,-11 -16,-26 -16,-47 0,-20 5,-37 16,-48 11,-12 25,-18 42,-18 17,0 30,6 41,17 10,12 15,28 15,48 0,1 0,3 0,6l-92 0c0,13 4,24 11,31 7,7 16,11 26,11 8,0 14,-2 20,-6 5,-4 10,-11 13,-20zm-69 -34l69 0c-1,-10 -4,-18 -8,-23 -7,-8 -15,-12 -26,-12 -10,0 -18,3 -24,9 -7,7 -10,16 -11,26zm209 34l21 3c-3,13 -9,23 -19,30 -9,7 -21,10 -35,10 -18,0 -33,-5 -43,-17 -11,-11 -16,-26 -16,-47 0,-20 5,-37 16,-48 11,-12 25,-18 42,-18 16,0 30,6 40,17 11,12 16,28 16,48 0,1 0,3 0,6l-93 0c1,13 5,24 12,31 7,7 16,11 26,11 8,0 14,-2 20,-6 5,-4 9,-11 13,-20zm-69 -34l69 0c-1,-10 -4,-18 -8,-23 -7,-8 -16,-12 -26,-12 -10,0 -18,3 -25,9 -6,7 -10,16 -10,26zm123 75l0 -125 19 0 0 19c5,-9 9,-14 14,-17 4,-3 8,-5 13,-5 7,0 14,3 22,7l-8 20c-5,-3 -10,-5 -15,-5 -5,0 -9,2 -12,4 -4,3 -7,7 -8,12 -3,7 -4,16 -4,25l0 65 -21 0zm87 -148l0 -24 21 0 0 24 -21 0zm0 148l0 -125 21 0 0 125 -21 0zm59 0l0 -125 19 0 0 18c9,-14 23,-21 40,-21 7,0 14,2 21,5 6,2 10,6 14,10 3,4 5,10 6,16 1,4 1,10 1,20l0 77 -21 0 0 -76c0,-9 -1,-15 -2,-19 -2,-5 -5,-8 -9,-10 -4,-3 -9,-4 -15,-4 -9,0 -16,3 -23,8 -6,6 -9,17 -9,33l0 68 -22 0zm136 10l21 3c0,6 3,11 7,14 5,3 12,5 21,5 10,0 18,-2 23,-5 5,-4 9,-10 11,-17 1,-4 1,-13 1,-27 -9,11 -21,17 -34,17 -17,0 -31,-7 -40,-19 -9,-12 -14,-27 -14,-44 0,-12 2,-23 6,-33 5,-10 11,-18 19,-23 8,-6 18,-9 29,-9 14,0 27,6 36,18l0 -15 19 0 0 108c0,19 -1,33 -5,41 -4,8 -11,14 -19,19 -9,5 -19,7 -32,7 -14,0 -26,-3 -35,-10 -10,-7 -14,-17 -14,-30zm18 -75c0,16 3,28 9,36 7,7 15,11 25,11 9,0 17,-4 24,-11 7,-8 10,-19 10,-35 0,-15 -4,-27 -10,-34 -7,-8 -15,-12 -25,-12 -9,0 -17,4 -24,11 -6,8 -9,19 -9,34z"/>
   <g>
    <path class="fil4" d="M4582 8099l0 -196 -74 0 0 -26 178 0 0 26 -74 0 0 196 -30 0zm311 0l-38 0 -70 -88 -34 0 0 88 -30 0 0 -222 58 0c12,0 23,1 31,2 9,2 17,5 25,10 8,5 14,11 18,19 5,8 7,18 7,29 0,17 -4,30 -12,41 -9,11 -20,19 -34,24l79 97zm-64 -159c0,-7 -1,-12 -3,-17 -2,-5 -6,-9 -11,-13 -4,-2 -9,-4 -14,-5 -6,-2 -13,-2 -21,-2l-29 0 0 83 26 0c8,0 16,-1 23,-2 6,-2 12,-5 17,-9 4,-5 7,-10 9,-15 2,-6 3,-13 3,-20zm71 159l74 -222 37 0 74 222 -31 0 -20 -62 -85 0 -19 62 -30 0zm126 -88l-34 -103 -34 103 68 0zm251 88l-32 0 -98 -191 0 191 -27 0 0 -222 41 0 89 175 0 -175 27 0 0 222zm121 3c-16,0 -30,-1 -41,-5 -12,-3 -22,-7 -32,-12l0 -37 2 0c10,9 21,16 33,21 12,5 24,8 35,8 17,0 29,-3 37,-10 8,-7 13,-16 13,-27 0,-9 -3,-16 -7,-21 -4,-6 -11,-10 -21,-13 -6,-2 -13,-3 -18,-5 -6,-1 -13,-3 -22,-5 -7,-2 -14,-4 -20,-7 -6,-3 -11,-7 -16,-12 -5,-5 -8,-11 -11,-18 -2,-6 -3,-14 -3,-22 0,-18 7,-33 20,-45 14,-13 32,-19 54,-19 12,0 24,2 35,4 11,3 21,6 31,11l0 35 -2 0c-7,-7 -16,-12 -27,-17 -11,-5 -23,-7 -35,-7 -14,0 -25,3 -33,9 -9,7 -13,15 -13,26 0,9 3,16 8,22 5,5 12,9 21,12 6,2 14,4 23,6 9,2 16,4 22,6 16,4 27,11 34,21 7,9 10,21 10,34 0,9 -1,18 -5,26 -3,8 -8,16 -15,21 -7,7 -15,12 -24,15 -9,4 -20,5 -33,5zm-816 337l0 -195 -74 0 0 -26 178 0 0 26 -74 0 0 195 -30 0zm139 0l0 -221 139 0 0 26 -109 0 0 61 102 0 0 26 -102 0 0 82 109 0 0 26 -139 0zm271 4c-15,0 -28,-2 -40,-7 -12,-5 -23,-12 -31,-22 -9,-10 -16,-22 -21,-36 -5,-14 -7,-31 -7,-49 0,-19 2,-35 7,-49 5,-13 11,-25 20,-36 9,-10 20,-17 32,-22 12,-6 25,-8 40,-8 8,0 15,0 21,2 7,1 13,2 18,4 5,1 10,3 15,5 5,2 10,5 15,8l0 35 -3 0c-2,-2 -6,-5 -10,-8 -4,-4 -9,-7 -14,-10 -6,-3 -12,-6 -19,-8 -7,-2 -14,-3 -23,-3 -9,0 -18,2 -27,6 -8,4 -15,10 -22,17 -6,8 -11,17 -14,29 -4,11 -6,24 -6,38 0,15 2,28 6,39 4,11 9,20 15,27 6,8 13,13 22,17 8,4 17,5 26,5 9,0 16,-1 24,-3 7,-2 13,-4 19,-7 5,-4 10,-7 14,-10 4,-3 7,-6 10,-8l2 0 0 35c-5,2 -10,4 -14,7 -4,2 -10,4 -16,6 -6,2 -12,3 -18,4 -5,1 -12,2 -21,2zm270 -4l-29 0 0 -108 -102 0 0 108 -29 0 0 -221 29 0 0 87 102 0 0 -87 29 0 0 221z"/>
    <path class="fil5" d="M4670 8625c0,10 -2,19 -5,27 -4,9 -8,16 -14,22 -8,8 -17,14 -27,17 -10,4 -23,6 -39,6l-25 0 0 83 -30 0 0 -222 56 0c13,0 24,1 33,4 9,2 18,5 25,10 8,6 14,13 19,22 4,8 7,19 7,31zm-31 1c0,-8 -1,-14 -4,-20 -2,-6 -6,-10 -12,-14 -4,-3 -10,-5 -16,-6 -6,-1 -14,-2 -23,-2l-24 0 0 88 20 0c12,0 21,-1 29,-3 7,-2 13,-6 18,-10 4,-5 7,-10 9,-15 2,-5 3,-11 3,-18zm150 158c-13,0 -25,-2 -34,-5 -10,-3 -18,-8 -25,-15 -8,-8 -13,-17 -16,-28 -4,-11 -5,-24 -5,-40l0 -138 29 0 0 138c0,10 1,19 2,26 2,7 4,13 8,19 4,5 9,10 16,13 7,3 15,5 25,5 9,0 17,-2 24,-5 7,-3 13,-8 17,-13 4,-6 6,-12 7,-19 2,-7 2,-15 2,-25l0 -139 30 0 0 138c0,16 -2,29 -5,40 -3,11 -8,20 -16,28 -7,7 -15,12 -25,15 -9,4 -21,5 -34,5zm285 -72c0,11 -2,20 -6,29 -4,8 -9,15 -17,21 -8,6 -17,11 -26,14 -10,2 -22,4 -37,4l-64 0 0 -222 59 0c16,0 28,1 36,2 7,1 15,3 22,7 8,5 14,10 18,17 3,7 5,15 5,24 0,11 -3,20 -8,28 -6,8 -13,15 -23,19l0 2c13,3 23,10 31,19 7,10 10,22 10,36zm-41 -99c0,-6 -1,-10 -2,-14 -2,-4 -5,-7 -9,-9 -5,-3 -10,-5 -16,-5 -6,-1 -14,-1 -24,-1l-28 0 0 64 33 0c10,0 16,0 21,-1 4,-1 8,-3 13,-6 5,-3 8,-7 10,-11 1,-5 2,-11 2,-17zm11 100c0,-9 -1,-15 -4,-21 -2,-5 -7,-10 -14,-13 -5,-3 -10,-4 -15,-5 -6,-1 -14,-1 -24,-1l-33 0 0 81 24 0c13,0 23,-1 30,-2 8,-1 14,-3 20,-7 5,-4 9,-8 12,-13 2,-5 4,-12 4,-19zm202 67l-129 0 0 -222 30 0 0 195 99 0 0 27zm113 0l-86 0 0 -23 28 0 0 -176 -28 0 0 -23 86 0 0 23 -28 0 0 176 28 0 0 23zm136 4c-14,0 -28,-3 -40,-8 -12,-5 -22,-12 -31,-21 -9,-10 -16,-22 -21,-36 -5,-15 -7,-31 -7,-50 0,-18 2,-34 7,-48 5,-14 12,-26 21,-36 8,-10 19,-18 31,-23 12,-5 26,-8 41,-8 7,0 14,1 20,2 7,1 13,3 18,4 5,2 10,4 15,6 5,2 10,4 15,7l0 36 -2 0c-3,-3 -6,-6 -10,-9 -4,-3 -9,-6 -15,-10 -6,-3 -12,-5 -19,-7 -6,-2 -14,-3 -23,-3 -9,0 -18,2 -26,6 -9,4 -16,9 -23,17 -6,7 -11,17 -14,28 -4,11 -5,24 -5,38 0,15 1,28 5,39 4,11 9,20 15,28 6,7 14,13 22,16 8,4 17,6 26,6 9,0 17,-1 24,-3 7,-2 14,-5 19,-8 6,-3 10,-6 14,-9 4,-4 7,-6 10,-9l2 0 0 36c-5,2 -10,4 -14,6 -4,2 -9,4 -16,6 -6,2 -12,4 -17,5 -6,1 -13,2 -22,2zm86 -4l74 -222 37 0 74 222 -31 0 -20 -62 -84 0 -20 62 -30 0zm126 -87l-34 -104 -34 104 68 0zm128 87l0 -195 -74 0 0 -27 178 0 0 27 -74 0 0 195 -30 0zm217 0l-86 0 0 -23 28 0 0 -176 -28 0 0 -23 86 0 0 23 -28 0 0 176 28 0 0 23zm206 -196c8,10 15,22 20,36 4,14 7,31 7,49 0,18 -3,34 -7,49 -5,14 -11,26 -20,36 -9,10 -20,18 -32,23 -12,5 -25,7 -39,7 -15,0 -29,-2 -41,-7 -12,-5 -22,-13 -31,-23 -8,-10 -15,-22 -19,-36 -5,-15 -7,-31 -7,-49 0,-19 2,-35 7,-49 4,-14 11,-26 19,-36 9,-10 19,-17 31,-22 12,-6 26,-8 41,-8 15,0 28,2 40,8 12,5 23,12 31,22zm-4 85c0,-15 -2,-27 -5,-39 -3,-11 -7,-20 -13,-28 -6,-7 -13,-13 -21,-17 -9,-4 -18,-6 -28,-6 -11,0 -20,2 -28,6 -8,4 -15,9 -21,17 -6,8 -11,17 -14,29 -3,11 -5,24 -5,38 0,29 7,51 19,67 12,15 28,23 49,23 20,0 37,-8 49,-23 12,-16 18,-38 18,-67zm234 111l-33 0 -98 -191 0 191 -27 0 0 -222 42 0 89 176 0 -176 27 0 0 222zm120 4c-16,0 -29,-2 -41,-5 -11,-4 -22,-8 -31,-13l0 -37 2 0c9,9 20,17 33,22 12,5 24,7 35,7 16,0 28,-3 37,-10 8,-7 12,-16 12,-27 0,-9 -2,-16 -6,-21 -5,-6 -12,-10 -21,-13 -7,-2 -13,-3 -19,-5 -5,-1 -12,-3 -21,-5 -8,-2 -14,-4 -20,-7 -6,-3 -12,-7 -16,-12 -5,-5 -9,-11 -11,-17 -3,-7 -4,-15 -4,-23 0,-18 7,-33 21,-45 14,-12 32,-19 54,-19 12,0 24,2 35,4 11,3 21,6 30,11l0 35 -2 0c-7,-6 -16,-12 -27,-17 -11,-5 -22,-7 -34,-7 -14,0 -25,3 -34,10 -8,6 -12,14 -12,25 0,9 2,16 7,22 5,6 12,10 22,12 6,2 14,4 23,6 9,2 16,4 22,6 15,4 26,11 33,21 7,9 11,21 11,35 0,8 -2,17 -5,25 -4,9 -9,16 -15,22 -7,6 -15,11 -24,14 -9,4 -20,6 -34,6z"/>
   </g>
   <path class="fil4" d="M6798 8782l-45 0 0 -12 15 0 0 -93 -15 0 0 -12 45 0 0 12 -15 0 0 93 15 0 0 12zm103 0l-17 0 -52 -101 0 101 -15 0 0 -117 23 0 47 93 0 -93 14 0 0 117zm70 2c-8,0 -15,-1 -21,-4 -7,-2 -12,-6 -17,-11 -5,-5 -8,-12 -11,-19 -2,-8 -4,-17 -4,-26 0,-10 2,-19 4,-26 3,-7 6,-14 11,-19 5,-5 10,-9 17,-12 6,-3 13,-4 21,-4 4,0 8,0 11,1 4,0 7,1 10,2 2,1 5,2 7,3 3,1 6,2 8,4l0 18 -1 0c-1,-1 -3,-2 -5,-4 -2,-2 -5,-3 -8,-5 -3,-2 -6,-3 -10,-4 -3,-1 -7,-2 -12,-2 -5,0 -10,1 -14,3 -5,2 -9,5 -12,9 -3,4 -6,9 -8,15 -1,6 -2,13 -2,21 0,8 1,15 3,20 1,6 4,11 7,15 4,4 8,7 12,9 4,2 9,3 14,3 4,0 9,-1 12,-2 4,-1 8,-2 11,-4 3,-2 5,-3 7,-5 2,-2 4,-3 5,-5l1 0 0 19c-2,1 -5,2 -7,4 -2,1 -5,2 -8,3 -4,1 -7,2 -10,2 -3,1 -6,1 -11,1zm73 -2l-19 0 0 -22 19 0 0 22z"/>
  </g>
 </g>
</svg>
