<?xml version="1.0" encoding="utf-8"?>
<!-- Generator: Adobe Illustrator 22.1.0, SVG Export Plug-In . SVG Version: 6.00 Build 0)  -->
<svg version="1.1" id="Layer_1" xmlns="http://www.w3.org/2000/svg" xmlns:xlink="http://www.w3.org/1999/xlink" x="0px" y="0px"
	 viewBox="0 0 935.4 1369.1" style="enable-background:new 0 0 935.4 1369.1;" xml:space="preserve">
<style type="text/css">
	.st0{fill:#324388;}
	.st1{fill:#FEFEFE;}
</style>
<rect x="100.7" y="384.8" class="st0" width="348.7" height="233.9"/>
<path class="st1" d="M322.3,486.5H349v6.9h-16.7v5.1h15.6v6.6h-15.6v6.4h17.2v7.3h-27.2V486.5z M292.5,486.4h26.8v6.9h-16.8v5.1H318
	v6.6h-15.6v6.3h17.2v7.3h-27.2V486.4z M262.7,486.4h26.8v6.9h-16.8v5.1h15.6v6.6h-15.6v6.3H290v7.3h-27.3V486.4z M249.3,486.4h10
	v32.3h-10V486.4z"/>
<path id="dalam_banget_1_" class="st1" d="M-7724.1,502.3h16383 M222.1-7507.1v16383 M233.4,511.6c-2.2,2.2-8.2,12.2-11.3,12.2
	c-2.9,0-8.8-8.4-11-10.6c-2.2-2.2-10.6-7.6-10.6-11c0-3.8,7.9-8.4,10.1-10.6c2.2-2.2,8-11,11.4-11c3.4,0,10.4,9.5,12.6,11.7
	c2.2,2.2,9,6.9,9,9.9C243.7,505.3,235.6,509.4,233.4,511.6z"/>
<path id="dalam" class="st0" d="M-7724.1,502.3h16383 M222.1-7507.1v16383 M231.1,511.2c-1.5,1.5-6.8,6.3-9,6.3
	c-2.1,0-7.4-4.7-9-6.3c-1.5-1.5-6.3-6.5-6.3-8.9c0-2.7,4.7-7.4,6.3-8.9c1.5-1.5,6.5-6.3,9-6.3c2.4,0,7.4,4.7,9,6.3
	c1.5,1.5,6.3,6.8,6.3,8.9C237.4,504.4,232.6,509.7,231.1,511.2z"/>
<path id="dalam_banget" class="st1" d="M-7724.1,502.3h16383 M222.1-7507.1v16383 M230.3,510.4c-1.4,1.4-6.1,5.7-8.1,5.7
	c-1.9,0-6.7-4.3-8.1-5.7c-1.4-1.4-5.7-6-5.7-8.1c0-2.4,4.3-6.7,5.7-8.1c1.4-1.4,5.9-5.7,8.1-5.7c2.2,0,6.7,4.3,8.1,5.7
	c1.4,1.4,5.7,6.2,5.7,8.1C236,504.2,231.7,509,230.3,510.4z"/>
<path class="st1" d="M221.6,486c1-0.2,1.7,0.1,2.4,0.6c0.2,0.1,0.4,0.2,0.6,0.4c0.4,0.3,0.7,0.6,1.2,0.9c0.5,0.4,0.6,0.5,1.1,0.9
	c0.5,0.4,1.7,1.4,2.2,1.9c0.1,0.1,0.1,0.1,0.3,0.2c0.2,0.1,1.7,1.6,1.7,1.7l0.4,0.4c0.4,0.3,0.1,0.1,0.4,0.4
	c0.6,0.7,1.4,1.7,2.1,2.3c0.5,0.5,2.2,2.7,2.7,3.3c0.3,0.4,0.6,0.7,0.9,1.2c0.1,0.2,0.3,0.4,0.4,0.6c0.1,0.2,0.3,0.5,0.3,0.6
	c0.2,0.9,0.1,1.1-0.3,1.7c0,0.1-0.1,0.1-0.1,0.3c-0.1,0.1-0.1,0.2-0.2,0.4c-0.1,0.2-1,1.5-1.2,1.7c-0.1,0.1-0.1,0.1-0.2,0.3
	c-0.1,0.1-0.1,0.1-0.3,0.3c-0.6,0.7-1.2,1.4-1.8,2.1c-0.2,0.1-0.3,0.4-0.4,0.5l-1.9,2c-0.4,0.4-2.5,2.5-3.1,2.9
	c-0.4,0.4-0.4,0.4-1.1,0.9l-1.1,0.9c-0.4,0.4-1.7,1.4-2.2,1.7c-0.2,0.1-1.1,0.6-1.3,0.6c-1.2,0.1-1.4-0.2-2-0.4l-0.9-0.6
	c-0.3-0.1-0.1-0.2-0.6-0.4c-0.8-0.6-0.8-0.6-1.6-1.3l-2.2-1.9l-2.6-2.4c-0.4-0.3-0.7-0.7-1-1c-0.1-0.2-0.3-0.4-0.4-0.5
	c-0.8-0.8-0.6-0.6-1.2-1.3c-0.4-0.5-0.7-0.6-1.2-1.4c-0.4-0.6-0.7-0.9-1.2-1.6c-0.2-0.1-0.3-0.4-0.4-0.6c-0.4-0.4-1-1.3-1.2-1.8
	c-0.3-1.1,0.6-2.3,1-2.9c0.3-0.4,0.5-0.8,0.8-1.2c0.2-0.2,0.3-0.3,0.5-0.5c0.3-0.4,1-1.2,1.4-1.6c0.4-0.4,0.6-0.6,1-1l1.4-1.5
	c0.1-0.3,0.2-0.2,0.5-0.4c0.6-0.5,1.4-1.4,2-1.9l1-1c0.4-0.3,0.7-0.6,1.1-0.9c0.5-0.4,0.5-0.4,1.1-0.9c1.2-1.1,1.2-0.9,2.2-1.7
	c0.2-0.1,0.4-0.3,0.6-0.4C221.4,486.1,221,486.1,221.6,486z M234.5,509.6c2.5-2.5,5.7-4.3,8.4-6.6c0.8-0.8,0.6-0.5,0.7-1.2
	c0.1-0.4,0-0.3-0.1-0.6c-0.3-0.4-0.5-0.6-1-0.9c-0.1-0.1-0.1-0.1-0.1-0.1l-0.6-0.4c-0.2-0.1-0.4-0.3-0.5-0.4
	c-0.6-0.5-1.3-0.9-1.8-1.4l-1.8-1.4c-0.2-0.2-0.4-0.2-0.7-0.5c-0.4-0.4-0.8-0.8-1.3-1.2c-0.3-0.2-0.7-0.6-1-0.9l-0.9-0.9l-3.7-3.7
	c-0.6-0.6-1-1-1.5-1.7c-0.3-0.4-0.6-0.6-0.9-0.9l-1.2-1.4c-0.1-0.1-0.1-0.2-0.3-0.4l-1.9-2.5c-0.1-0.1-0.1-0.2-0.2-0.4
	c-0.2-0.2-0.3-0.4-0.5-0.7c-0.1-0.4-0.6-0.7-1.1-0.9c-0.4-0.1-0.6,0.1-0.9,0.2c-0.2,0.2-0.4,0.4-0.6,0.6l-0.8,1.1
	c-0.4,0.5-1.1,1.2-1.4,1.7c-0.5,0.7-1.2,1.4-1.7,2.1c-0.1,0.1-0.1,0.2-0.3,0.4c-0.3,0.3-0.6,0.6-0.9,0.9c-0.2,0.3-0.4,0.5-0.6,0.7
	l-0.9,0.9c-0.6,0.6-0.4,0.4-0.9,0.9l-0.6,0.7c-0.5,0.5-1,1-1.6,1.5c-0.4,0.4-0.8,0.9-1.3,1.2c-0.7,0.5-1.5,1.4-2.3,2.1
	c-0.2,0.2-0.2,0.2-0.5,0.4c-0.4,0.1-0.6,0.4-0.9,0.6c-0.1,0.1-0.2,0.2-0.4,0.3c-0.1,0.1-0.2,0.1-0.4,0.3l-1.8,1.4
	c-0.9,0.6-1.7,1-2.5,1.9c-0.3,0.3-0.6,0.6-0.7,1.1c0,0.3,0.1,0.3,0.2,0.4c0.6,0.9,2,1.4,2.8,2.2c0.5,0.5,0.7,0.4,1.1,0.8l0.4,0.3
	c0.4,0.3,1,0.9,1.4,1.2c0.7,0.4,1.4,1.1,2,1.7c0.4,0.4,0.9,0.8,1.4,1.2l0.6,0.6c0.4,0.3,0.6,0.6,0.9,0.9c0.1,0.1,0.2,0.1,0.4,0.3
	c0.4,0.4,2.2,2.1,2.5,2.4c0.3,0.4,1.1,1.4,1.4,1.7c0.4,0.4,0.9,0.8,1.2,1.3l1.4,1.7c0.1,0.1,0.1,0.2,0.2,0.4
	c0.1,0.1,0.2,0.2,0.3,0.4c0.2,0.3,0.4,0.4,0.6,0.7c0.2,0.3,0.4,0.5,0.5,0.8c0.2,0.2,0.4,0.4,0.5,0.6l0.5,0.8
	c0.3,0.4,1.1,1.1,1.6,0.8c0.2-0.1,1.1-1,1.3-1.2c0.4-0.6,0.9-1.2,1.3-1.8C227.4,516.4,231.4,512.7,234.5,509.6z"/>
<path class="st1" d="M231,517.1c0.4,0,0.9,0.1,1.2,0.4c0.4,0.2,0.7,0.5,0.9,0.9c0.2,0.4,0.3,0.8,0.3,1.2c0,0.4-0.1,0.9-0.3,1.2
	c-0.2,0.4-0.5,0.7-0.9,0.9c-0.4,0.2-0.8,0.3-1.2,0.3s-0.8-0.1-1.2-0.3c-0.4-0.2-0.6-0.6-0.9-0.9c-0.2-0.4-0.3-0.8-0.3-1.2
	c0-0.4,0.1-0.8,0.3-1.2c0.2-0.4,0.5-0.6,0.9-0.9C230.2,517.2,230.6,517.1,231,517.1z M231,517.6c-0.3,0-0.6,0.1-0.9,0.2
	c-0.3,0.2-0.6,0.4-0.7,0.7c-0.2,0.4-0.3,0.6-0.3,1c0,0.4,0.1,0.6,0.3,1c0.1,0.3,0.4,0.5,0.7,0.7c0.3,0.1,0.6,0.2,0.9,0.2
	c0.4,0,0.7-0.1,1-0.2c0.3-0.2,0.6-0.4,0.7-0.7c0.1-0.4,0.3-0.6,0.3-1c0-0.4-0.1-0.6-0.3-1c-0.2-0.3-0.4-0.5-0.7-0.7
	C231.7,517.7,231.3,517.6,231,517.6z M229.9,520.8v-2.6h0.5c0.5,0,0.8,0,0.9,0c0.1,0.1,0.3,0.1,0.4,0.1c0.1,0.1,0.2,0.1,0.3,0.2
	c0.1,0.1,0.1,0.3,0.1,0.4c0,0.2-0.1,0.4-0.1,0.5c-0.1,0.1-0.3,0.2-0.5,0.3c0.1,0,0.1,0,0.1,0.1c0.1,0,0.1,0.1,0.1,0.2
	c0.1,0,0.1,0.1,0.2,0.3l0.3,0.5h-0.6l-0.2-0.4c-0.1-0.2-0.2-0.4-0.4-0.5c-0.1-0.1-0.2-0.1-0.4-0.1h-0.1v1H229.9z M230.4,519.4h0.2
	c0.4,0,0.5,0,0.6-0.1c0.1,0,0.1,0,0.2-0.1c0-0.1,0-0.1,0-0.2c0-0.1,0-0.1,0-0.2c-0.1-0.1-0.1-0.1-0.2-0.1c-0.1-0.1-0.3-0.1-0.6-0.1
	h-0.2V519.4z"/>
<g>
	<path class="st1" d="M189.3,483.8c0.1,0.5,0.3,1,0.5,1.5c0.1,0.6,0.7-0.1,1.4,0.1c0.6,0.1,0.9,0.4,1.2,0.7c0.7,0.6,0.6,1.1-0.1,1.7
		c-1.4,1.2-5.5,1.7-7.1,1.4c-1.2-0.1-3.7-0.5-4.6-1.2c-0.1-0.1-0.4-0.3-0.5-0.4c-0.5-0.4-0.4-0.8,0-1.3c0.5-0.6,1.1-0.8,1.8-1.1
		c0.4-0.1,1-0.2,1.4-0.4l-0.7-0.5c-0.6-0.5-1.1-0.9-1.6-0.8c-1,0.1-1.7,0.5-2.6,1.1c-0.3,0.1-0.5,0.3-0.7,0.4
		c-0.4,0.3-0.4,0.2-0.6,0.6c-0.4,0.6-0.6,1.2-0.1,1.9c0.4,0.5,0.8,0.9,1.4,1.1c0.4,0.1,0.6,0.2,0.9,0.4c0.5,0.2,2.3,0.6,2.9,0.7
		c2.7,0.5,5.3,0.4,8,0c0.3-0.1,0.6-0.2,0.9-0.3c0.8-0.1,1.2-0.3,1.8-0.6c0.8-0.4,1.7-1.1,1.7-2c-0.1-0.4-0.2-0.6-0.4-0.9
		c-0.2-0.3-1-0.9-1.4-1c0.4-0.2,0.4-0.1,0.6-0.2L189.3,483.8z"/>
	<path class="st1" d="M184.4,497.3c0.4,0.1,2.3,0.1,2.9,0.1l-0.3-6.6h-2.3L184.4,497.3z"/>
	<path class="st1" d="M183.5,482.4h1.6l-0.2,6.5h2l-0.2-6.5l1.7-0.1c0-0.2-2.4-6.6-2.5-6.8L183.5,482.4z"/>
</g>
<path class="st1" d="M476.6,510c-1.6,1.6-6.9,6.4-9.1,6.4c-2.1,0-7.5-4.8-9.1-6.4c-1.6-1.6-6.4-6.7-6.4-9.1c0-2.7,4.8-7.5,6.4-9.1
	c1.6-1.6,6.6-6.4,9.1-6.4c2.4,0,7.5,4.8,9.1,6.4c1.6,1.6,6.4,6.9,6.4,9.1C483,503,478.2,508.4,476.6,510z"/>
</svg>
