<?xml version="1.0" encoding="UTF-8"?>
<!DOCTYPE svg PUBLIC "-//W3C//DTD SVG 1.1//EN" "http://www.w3.org/Graphics/SVG/1.1/DTD/svg11.dtd">
<!-- Creator: CorelDRAW X7 -->
<svg xmlns="http://www.w3.org/2000/svg" xml:space="preserve" width="9.76433in" height="3.75075in" version="1.1" style="shape-rendering:geometricPrecision; text-rendering:geometricPrecision; image-rendering:optimizeQuality; fill-rule:evenodd; clip-rule:evenodd"
viewBox="0 0 9764 3751"
 xmlns:xlink="http://www.w3.org/1999/xlink">
 <defs>
  <style type="text/css">
   <![CDATA[
    .fil0 {fill:none}
    .fil7 {fill:#D7DF36}
    .fil6 {fill:#8FC74A}
    .fil5 {fill:#3AB778}
    .fil3 {fill:#307ABD}
    .fil4 {fill:#306BA4}
    .fil2 {fill:#201E1E;fill-rule:nonzero}
    .fil1 {fill:#201E1E;fill-rule:nonzero}
   ]]>
  </style>
     <clipPath id="id0">
      <rect x="1467" y="2274" width="503" height="473"/>
     </clipPath>
     <clipPath id="id1">
      <rect x="2747" y="1017" width="747" height="850"/>
     </clipPath>
     <clipPath id="id2">
      <rect x="883" y="1864" width="2000" height="920"/>
     </clipPath>
 </defs>
 <g id="Layer_x0020_1">
  <metadata id="CorelCorpID_0Corel-Layer"/>
  <g id="_2437188196544">
   <polygon class="fil0" points="4,-9 9768,-9 9768,3742 4,3742 "/>
   <g>
    <polygon class="fil1" points="4121,2559 4367,2559 4367,1241 4121,1241 "/>
    <path class="fil1" d="M5763 2394c-136,133 -311,195 -501,195 -490,0 -697,-337 -699,-679 -2,-345 222,-695 699,-695 179,0 348,68 484,201l-166 160c-87,-84 -203,-124 -318,-124 -318,0 -456,237 -454,458 2,218 128,446 454,446 115,0 244,-47 331,-134l170 172z"/>
    <path class="fil1" d="M6736 1559c-45,-75 -170,-146 -313,-146 -184,0 -273,77 -273,175 0,114 136,147 294,165 275,34 531,106 531,420 0,294 -260,420 -554,420 -269,0 -476,-83 -574,-324l207 -107c59,145 211,209 371,209 156,0 303,-55 303,-198 0,-124 -130,-175 -305,-194 -269,-32 -518,-103 -518,-399 0,-271 268,-382 511,-384 205,0 418,58 518,262l-198 101z"/>
    <path class="fil1" d="M7508 1467l-418 0 0 -226c380,0 702,0 1084,0l0 226 -418 0 0 1092 -248 0 0 -1092z"/>
   </g>
   <g>
    <path class="fil2" d="M4376 772l0 217c0,68 -46,109 -130,109 -84,0 -130,-41 -130,-109l0 -217c0,-7 6,-11 19,-11l4 0c14,0 19,4 19,11l0 218c0,43 38,72 88,72 51,0 88,-30 88,-72l0 -218c0,-7 6,-11 19,-11l4 0c14,0 19,4 19,11z"/>
    <path class="fil2" d="M5012 789c0,8 -10,28 -16,28 -5,0 -28,-21 -74,-21 -84,0 -112,49 -112,132 0,72 22,134 107,134 25,0 48,-3 61,-6l0 -96 -55 0c-7,0 -10,-4 -10,-14l0 -8c0,-10 3,-14 10,-14l83 0c10,0 14,4 14,14l0 126c0,27 -52,34 -106,34 -95,0 -147,-53 -147,-166 0,-119 55,-172 154,-172 47,0 91,16 91,29z"/>
    <path class="fil2" d="M5742 772l0 314c0,7 -6,10 -19,10l-3 0c-14,0 -19,-3 -19,-10l0 -256 -1 2 -95 165 -11 6 -19 0 -10 -6 -96 -168 -1 -2 0 259c0,7 -6,10 -19,10l-4 0c-13,0 -19,-3 -19,-10l0 -314c0,-7 6,-11 19,-11l18 0c11,0 17,4 20,9l90 156 12 30 12 -27 90 -159c3,-5 9,-9 20,-9l16 0c13,0 19,4 19,11z"/>
   </g>
   <g>
    <polygon class="fil0" points="1748,928 4,1866 3492,3742 "/>
    <polygon class="fil3" points="3492,-9 1748,928 3492,3742 "/>
    <polygon class="fil4" points="1748,928 4,1866 3492,3742 "/>
    <g style="clip-path:url(#id0)">
     <image x="1467" y="2274" width="503" height="473" xlink:href="icst2018_Images\icst2018_ImgID1.png"/>
    </g>
    <polygon class="fil5" points="-10,3760 1186,1866 1969,2277 "/>
    <polygon class="fil6" points="2881,2756 1186,1866 2750,1866 "/>
    <polygon class="fil0" points="1178,1990 2748,1890 "/>
    <polygon class="fil0" points="1178,1990 2748,1890 "/>
    <polygon class="fil7" points="3980,464 1186,1866 2750,1866 "/>
    <polygon class="fil0" points="1178,1990 2748,1890 "/>
    <polygon class="fil0" points="1178,1990 2748,1890 "/>
    <g style="clip-path:url(#id1)">
     <image x="2747" y="1017" width="747" height="850" xlink:href="icst2018_Images\icst2018_ImgID2.png"/>
    </g>
    <g style="clip-path:url(#id2)">
     <image x="883" y="1864" width="2000" height="920" xlink:href="icst2018_Images\icst2018_ImgID3.png"/>
    </g>
   </g>
   <path class="fil2" d="M8268 2203c0,-104 98,-136 186,-136 90,0 187,37 187,142 0,99 -100,139 -186,139 -70,1 -153,18 -153,101l0 74 334 0 0 36 -371 0 0 -109c0,-108 99,-136 189,-136 63,0 153,-23 153,-105 0,-86 -86,-109 -153,-109 -65,0 -149,22 -149,103l-37 0z"/>
   <path class="fil2" d="M8756 2374c0,208 298,207 298,0l0 -116c0,-207 -298,-207 -298,0l0 116zm-37 -116c0,-255 372,-254 372,0l0 116c0,254 -372,255 -372,0l0 -116z"/>
   <polygon class="fil2" points="9139,2527 9221,2527 9221,2107 9139,2107 9139,2074 9258,2074 9258,2527 9340,2527 9340,2559 9139,2559 "/>
   <path class="fil2" d="M9596 2071c48,0 86,10 114,32 27,21 41,51 41,89 0,25 -7,47 -21,65 -14,19 -34,33 -60,42 33,10 59,26 77,47 18,21 28,47 28,78 0,43 -16,77 -48,102 -32,25 -75,37 -130,37 -55,0 -99,-12 -131,-37 -32,-24 -48,-58 -48,-101 0,-31 10,-57 29,-79 19,-21 45,-37 78,-47 -26,-9 -47,-24 -62,-42 -14,-19 -22,-41 -22,-66 0,-38 14,-67 42,-88 28,-22 66,-32 113,-32zm1 40c-36,0 -68,8 -88,23 -20,16 -26,33 -26,61 0,27 6,45 27,61 20,15 52,23 87,23 35,0 67,-8 86,-23 20,-16 26,-34 26,-61 0,-28 -6,-45 -26,-61 -19,-15 -51,-23 -86,-23zm-1 214c-41,0 -78,9 -101,27 -23,17 -35,41 -35,72 0,33 12,54 35,73 23,18 60,31 102,31 41,0 78,-13 101,-31 23,-19 35,-40 35,-73 0,-30 -12,-54 -35,-72 -24,-18 -60,-27 -102,-27z"/>
  </g>
 </g>
</svg>
