<svg id="Layer_1" data-name="Layer 1" xmlns="http://www.w3.org/2000/svg" viewBox="0 0 124.56 42.04"><defs><style>.cls-1{fill:#610c3a;}</style></defs><title>ajstd-logo</title><path id="path831" class="cls-1" d="M32.85,30.06c-2,0-3.13-1.18-5.33-5.86L16.46.92c0-.18-.56-.14-.61,0L6,24.25C4,28.88,2.74,30.06.21,30.06c-.28,0-.28.56,0,.56,1.92,0,2.9-.19,5.15-.19,2.44,0,3.66.19,5.53.19.28,0,.28-.56,0-.56-4.12,0-5.57-1.55-3.93-5.39l4-9.55h8.81l5.43,11.47c1.27,2.72.61,3.47-2.72,3.47-.28,0-.28.56,0,.56,1.74,0,3-.19,5-.19,1.68,0,3.65.19,5.38.19.29,0,.29-.56,0-.56ZM11.4,14.13l3.75-8.85,4.17,8.85Z" transform="translate(0 0)"/><path id="path859" class="cls-1" d="M50.58,6.83c0-2.72,1.49-5.3,5.19-5.3,4.59,0,6.42,4.12,6.7,6.61.1.28.56.23.56,0l-.28-5.39c0-.33-.28-.61-.75-.8A13.89,13.89,0,0,0,56.52.83c-4.3,0-8.71,2.39-8.71,7.31,0,4.35,3.28,6.32,6.65,8.33s6.79,4.08,6.79,8.57c0,4.08-2.81,5.39-5.57,5.39-5,0-7.35-4.5-8.15-8.24-.09-.24-.61-.19-.56.09l.61,6.37c.05.47.09.7.42.89a14.11,14.11,0,0,0,6.6,1.64c6.23,0,9.65-3.56,9.65-8s-3.6-6.51-7.07-8.62S50.58,10.71,50.58,6.83Z" transform="translate(0 0)"/><path id="path875" class="cls-1" d="M75.26,2.19c3.84,0,4.54.14,4.54,2.95V26.82c0,2.72-.7,3.24-4.59,3.24-.14,0-.14.56,0,.56,1.69,0,3.8-.1,6.09-.1,2.49,0,4.45.1,6.14.1.19,0,.19-.56,0-.56-3.94,0-4.54-.52-4.54-3.24V5.23c0-2.76.6-3,4.54-3,4.17,0,5.81,1.73,6,6.56,0,.18.57.18.57,0,0-1.46.23-6.7.42-8.57,0-.24-.47-.24-.52,0-.33,1-1.45,1.17-3.56,1.17-2.39,0-4.63.14-9,.14-3.51,0-6.74-.05-9.41-.14-.89,0-2.48-.1-2.48-1,0-.33-.56-.29-.56,0,0,2.1-.43,6.88-.66,8.43,0,.18.51.18.56,0,.8-4.77,2.58-6.6,6.51-6.6Z" transform="translate(0 0)"/><path id="path901" class="cls-1" d="M108.68,30.8c8.62,0,15.88-5.94,15.88-15.31C124.56,7.43,118,1.25,108,1.25c-1.69,0-4.31.24-6.37.24s-3.94-.14-5.48-.14c-.14,0-.14.56,0,.56,3.42,0,4,.56,4,3.23V26.82c0,2.72-.66,3.24-4.08,3.24-.14,0-.14.56,0,.56,1.5,0,3.47-.1,5.53-.1s5.2.28,7,.28Zm-.47-.7c-4.12,0-5-1.22-5-3.79V5.23c0-2.85,1.46-3.28,5.25-3.28C116.18,2,121,8.37,121,16.52,121,25.33,115.61,30.1,108.21,30.1Z" transform="translate(0 0)"/><g id="g1056"><g id="text126699"><path id="path126711-5" class="cls-1" d="M33.17,1.35c-.14,0-.14.56,0,.56,3.94,0,4.59.56,4.6,3.23V31.91c0,4.79-1.44,8.23-4,9.63-.15.05.05.55.25.5,5.24-2.3,6.89-5.14,6.89-12.48V6.78s0,0,0,0V5.24c0-2.67.47-3.33,3.47-3.33.14,0,.14-.56,0-.56-1.36,0-3.05.14-5.07.14-2.25,0-4.31-.14-6.09-.14Z" transform="translate(0 0)"/></g></g></svg>