<svg id="Layer_1" data-name="Layer 1" xmlns="http://www.w3.org/2000/svg" viewBox="0 0 348.7 233.9"><defs><style>.cls-1{fill:#610c3a;}.cls-2{fill:#fff;}</style></defs><title>ajstd</title><g id="Layer_1-2" data-name="Layer_1"><g id="_1848508970096" data-name=" 1848508970096"><rect class="cls-1" width="348.7" height="233.9"/></g></g><path id="path831" class="cls-2" d="M135.19,129c-2.61,0-4.17-1.56-7.1-7.79l-14.71-31c-.06-.25-.75-.19-.81,0l-13.15,31c-2.62,6.17-4.3,7.73-7.66,7.73-.38,0-.38.75,0,.75,2.55,0,3.86-.25,6.85-.25,3.24,0,4.86.25,7.35.25.38,0,.38-.75,0-.75-5.48,0-7.41-2.06-5.23-7.17l5.36-12.71h11.72L125,124.36c1.68,3.61.81,4.61-3.62,4.61-.37,0-.37.75,0,.75,2.31,0,4-.25,6.61-.25,2.24,0,4.86.25,7.16.25.38,0,.38-.75,0-.75Zm-28.54-21.19,5-11.78,5.54,11.78Z" transform="translate(0 0)"/><path id="path859" class="cls-2" d="M158.78,98.06c0-3.62,2-7,6.91-7,6.11,0,8.54,5.48,8.92,8.78.12.38.74.32.74,0L175,92.64c0-.44-.37-.81-1-1.06a18.38,18.38,0,0,0-7.29-1.5c-5.73,0-11.59,3.18-11.59,9.72,0,5.8,4.36,8.42,8.85,11.1s9,5.42,9,11.4c0,5.42-3.74,7.17-7.42,7.17-6.61,0-9.79-6-10.85-11-.12-.31-.81-.25-.74.13l.81,8.47c.06.62.12.94.56,1.19a18.74,18.74,0,0,0,8.79,2.18c8.28,0,12.83-4.74,12.83-10.66s-4.79-8.66-9.41-11.47C163.14,105.72,158.78,103.23,158.78,98.06Z" transform="translate(0 0)"/><path id="path875" class="cls-2" d="M191.62,91.89c5.11,0,6,.19,6,3.93v28.85c0,3.62-.94,4.3-6.11,4.3-.18,0-.18.75,0,.75,2.25,0,5.05-.13,8.1-.13,3.31,0,5.92.13,8.17.13.25,0,.25-.75,0-.75-5.24,0-6.05-.68-6.05-4.3V95.94c0-3.68.81-4,6.05-4,5.54,0,7.73,2.31,8,8.72.06.25.74.25.74,0,0-1.93.31-8.91.56-11.4,0-.31-.62-.31-.68,0-.44,1.31-1.93,1.56-4.74,1.56-3.18,0-6.17.18-12,.18-4.67,0-9-.06-12.52-.18-1.19,0-3.31-.13-3.31-1.37,0-.44-.74-.38-.74,0a111.39,111.39,0,0,1-.88,11.21c0,.25.69.25.75.07,1.06-6.36,3.43-8.79,8.66-8.79Z" transform="translate(0 0)"/><path id="path901" class="cls-2" d="M236.1,130c11.47,0,21.13-7.92,21.13-20.38,0-10.72-8.73-19-22-19-2.25,0-5.74.31-8.48.31s-5.24-.18-7.29-.18c-.19,0-.19.75,0,.75,4.55,0,5.36.74,5.36,4.3v28.85c0,3.62-.87,4.3-5.42,4.3-.19,0-.19.75,0,.75,2,0,4.61-.13,7.35-.13,2.93,0,6.92.38,9.35.38Zm-.63-.94c-5.48,0-6.66-1.62-6.66-5v-28c0-3.8,1.93-4.36,7-4.36,10.28,0,16.7,8.54,16.7,19.38C252.49,122.68,245.32,129,235.47,129Z" transform="translate(0 0)"/><g id="g1056"><g id="text126699"><path id="path126711-5" class="cls-2" d="M135.61,90.77c-.18,0-.18.75,0,.75,5.24,0,6.11.75,6.12,4.3v35.62c0,6.37-1.92,10.95-5.38,12.81-.2.07.07.74.33.67,7-3.06,9.17-6.84,9.17-16.6V98s0,0,0,0V96c0-3.56.62-4.43,4.62-4.43.18,0,.18-.75,0-.75-1.81,0-4.06.19-6.74.19-3,0-5.74-.19-8.11-.19Z" transform="translate(0 0)"/></g></g></svg>