<svg id="Layer_1" data-name="Layer 1" xmlns="http://www.w3.org/2000/svg" viewBox="0 0 236.7 42.5"><defs><style>.cls-1{fill:#eb5e00;}.cls-2{fill:#fff;}</style></defs><title>e3s-logo</title><g id="Layer_1-2" data-name="Layer_1"><g id="_1848508970096" data-name=" 1848508970096"><path class="cls-1" d="M5.8-.1H230.9a5.87,5.87,0,0,1,5.8,5.8V36.6a5.8,5.8,0,0,1-5.8,5.8H5.8A5.87,5.87,0,0,1,0,36.6V5.7A5.74,5.74,0,0,1,5.8-.1Z" transform="translate(0 0.1)"/><path class="cls-2" d="M9.7,12.5h9.5v3.2H13v3.1h6.2V22H13v4.5h6.2v3.3H9.7Zm15.2,4.3H21.7a4.72,4.72,0,0,1,1.4-3.1,5.35,5.35,0,0,1,4-1.6,5,5,0,0,1,3.6,1.3,4.12,4.12,0,0,1,1.4,3.2,4.28,4.28,0,0,1-.6,2.2,5.07,5.07,0,0,1-1.9,1.6A4.27,4.27,0,0,1,32,22a4.47,4.47,0,0,1,.9,2.8,5.44,5.44,0,0,1-1.7,4,6.37,6.37,0,0,1-4.4,1.7,5.65,5.65,0,0,1-4.2-1.6,5.79,5.79,0,0,1-1.7-4.2h3.3a2.89,2.89,0,0,0,.9,2,2.67,2.67,0,0,0,1.8.7,2.56,2.56,0,0,0,1.9-.8,2.41,2.41,0,0,0,.7-1.8,2.46,2.46,0,0,0-1-2,4.86,4.86,0,0,0-3-.9V19.1a6,6,0,0,0,1.8-.4,2.28,2.28,0,0,0,.9-.8,1.78,1.78,0,0,0,.4-1,1.35,1.35,0,0,0-.5-1.2,2.31,2.31,0,0,0-2.6,0C25.4,16,25.1,16.3,24.9,16.8ZM45,14.9l-2.4,2.2c-.9-1.2-1.7-1.8-2.6-1.8a1.5,1.5,0,0,0-1.1.4.75.75,0,0,0-.4.7,1.4,1.4,0,0,0,.3.9,20.44,20.44,0,0,0,2.4,2.2c1.3,1.1,2,1.7,2.3,2a5.79,5.79,0,0,1,1.4,1.9,4.48,4.48,0,0,1,.4,2,4.54,4.54,0,0,1-1.5,3.5,5.64,5.64,0,0,1-3.9,1.4,6.65,6.65,0,0,1-3.2-.9,7.93,7.93,0,0,1-2.4-2.9l2.8-1.7c.9,1.5,1.8,2.3,2.9,2.3a1.62,1.62,0,0,0,1.4-.5,1.56,1.56,0,0,0,.6-1.2,1.58,1.58,0,0,0-.5-1.2,16.09,16.09,0,0,0-1.9-1.9,18.23,18.23,0,0,1-3.7-3.5,5.21,5.21,0,0,1-.8-2.5,3.92,3.92,0,0,1,1.4-3.1,4.67,4.67,0,0,1,3.4-1.3,4.42,4.42,0,0,1,2.5.6A9.64,9.64,0,0,1,45,14.9Z" transform="translate(0 0.1)"/><path class="cls-2" d="M58.3,15.2h1.3l2.5,8.9,3.5-8.9h.2l3.5,8.9,2.6-8.9h1.2L69.6,27.4h-.2l-3.6-9.3-3.7,9.3h-.2Zm24.6,9.3,1,.5a4.66,4.66,0,0,1-1.2,1.5,11,11,0,0,1-1.4.9,5.26,5.26,0,0,1-1.8.4A4.26,4.26,0,0,1,76,26.3a4.38,4.38,0,0,1-1.3-3.2A4.89,4.89,0,0,1,75.8,20a4.19,4.19,0,0,1,3.6-1.7,4.33,4.33,0,0,1,3.7,1.8,5,5,0,0,1,1,3.1H76a4,4,0,0,0,1,2.6,3.31,3.31,0,0,0,2.4,1,3.08,3.08,0,0,0,1.3-.3,13.39,13.39,0,0,0,1.2-.6C82.2,25.5,82.5,25,82.9,24.5Zm0-2.5a3,3,0,0,0-.7-1.5,2.91,2.91,0,0,0-1.2-.9,4.15,4.15,0,0,0-1.6-.3,3.17,3.17,0,0,0-2.3.9A4.75,4.75,0,0,0,76,22.1h6.9Zm3.5,5.4V14.9h1.2v5a5.79,5.79,0,0,1,1.7-1.4,4.48,4.48,0,0,1,2-.4,4.31,4.31,0,0,1,3.2,1.4,4.6,4.6,0,0,1,1.4,3.4,4.18,4.18,0,0,1-1.4,3.3,4.46,4.46,0,0,1-5.3.9,4.28,4.28,0,0,1-1.6-1.4v1.7Zm4.7-.8a3.09,3.09,0,0,0,1.8-.5,2.74,2.74,0,0,0,1.3-1.3,3.2,3.2,0,0,0,.5-1.9,3.09,3.09,0,0,0-.5-1.8,3.53,3.53,0,0,0-1.3-1.4,3.49,3.49,0,0,0-3.6,0A3.48,3.48,0,0,0,87.9,21a4.06,4.06,0,0,0-.4,1.9,4,4,0,0,0,1,2.6A3.63,3.63,0,0,0,91.1,26.6ZM107,18.1a4.54,4.54,0,0,1,3.5,1.5,4.79,4.79,0,0,1,1.2,3.3,4.6,4.6,0,0,1-1.3,3.3,4.67,4.67,0,0,1-3.5,1.4,4.6,4.6,0,0,1-3.4-1.4,4.71,4.71,0,0,1-1.4-3.3,4.45,4.45,0,0,1,1.3-3.3A5.08,5.08,0,0,1,107,18.1Zm0,1.2a3.19,3.19,0,0,0-2.4,1.1,3.63,3.63,0,0,0-1.1,2.6,2.9,2.9,0,0,0,.5,1.8,3.48,3.48,0,0,0,1.3,1.4,3.29,3.29,0,0,0,1.7.4,3.66,3.66,0,0,0,1.8-.4,3.48,3.48,0,0,0,1.3-1.4,3.74,3.74,0,0,0,.5-1.8,3.63,3.63,0,0,0-1.1-2.6A3.07,3.07,0,0,0,107,19.3Zm10.7-4.4v1.2a2.61,2.61,0,0,0-1.1-.3,1.27,1.27,0,0,0-.6.1c-.1.1-.2.1-.3.3a5.53,5.53,0,0,0-.1.9v1.2h1.9v1h-1.9v8.1h-1.2V19.3h-1.2v-1h1.2V16.9c0-.6.1-1.2.1-1.4a1.17,1.17,0,0,1,.6-.6,2.37,2.37,0,0,1,1-.3A4.15,4.15,0,0,1,117.7,14.9Zm18,2.5-.9.8a7,7,0,0,0-1.9-1.6,5.33,5.33,0,0,0-2.4-.6,5,5,0,0,0-2.7.7,4.35,4.35,0,0,0-1.9,1.9,6,6,0,0,0-.7,2.7,4.85,4.85,0,0,0,1.6,3.7,5.28,5.28,0,0,0,3.9,1.5,5.5,5.5,0,0,0,4.3-2l.9.7a5.78,5.78,0,0,1-2.3,1.8,7.31,7.31,0,0,1-3,.6,6.12,6.12,0,0,1-5.1-2.2,6.78,6.78,0,0,1-1.6-4.4,5.83,5.83,0,0,1,1.9-4.5,6.41,6.41,0,0,1,4.7-1.8,7.45,7.45,0,0,1,3.1.6A20.82,20.82,0,0,1,135.7,17.4Zm6.5.7a4.54,4.54,0,0,1,3.5,1.5,4.37,4.37,0,0,1,1.2,3.3,4.6,4.6,0,0,1-1.3,3.3,4.67,4.67,0,0,1-3.5,1.4,4.6,4.6,0,0,1-3.4-1.4,4.71,4.71,0,0,1-1.4-3.3,4.45,4.45,0,0,1,1.3-3.3A5.08,5.08,0,0,1,142.2,18.1Zm0,1.2a3.19,3.19,0,0,0-2.4,1.1,3.63,3.63,0,0,0-1.1,2.6,2.9,2.9,0,0,0,.5,1.8,3.48,3.48,0,0,0,1.3,1.4,3.29,3.29,0,0,0,1.7.4,3.66,3.66,0,0,0,1.8-.4,3.48,3.48,0,0,0,1.3-1.4,3.74,3.74,0,0,0,.5-1.8,3.63,3.63,0,0,0-1.1-2.6A3.07,3.07,0,0,0,142.2,19.3Zm6.9-1h1.2V20a5.21,5.21,0,0,1,1.6-1.4,3.2,3.2,0,0,1,1.9-.5,3.45,3.45,0,0,1,1.8.5,5.26,5.26,0,0,1,1.2,1.4,6.1,6.1,0,0,1,.4,2.7v4.6H156V23a11,11,0,0,0-.1-2.1,2.48,2.48,0,0,0-.8-1.4,2.3,2.3,0,0,0-1.4-.4,2.64,2.64,0,0,0-1.9.7,2.83,2.83,0,0,0-1.1,1.7,11.72,11.72,0,0,0-.2,2.4v3.3h-1.2V18.3Zm14.2-3.4v1.2a2.61,2.61,0,0,0-1.1-.3,1.27,1.27,0,0,0-.6.1c-.1.1-.2.1-.3.3a5.53,5.53,0,0,0-.1.9v1.2h1.9v1h-1.9v8.1H160V19.3h-1.2v-1H160V16.9c0-.6.1-1.2.1-1.4a1.17,1.17,0,0,1,.6-.6,2.37,2.37,0,0,1,1-.3A3.81,3.81,0,0,1,163.3,14.9Zm9.3,9.6,1,.5a4.66,4.66,0,0,1-1.2,1.5,11,11,0,0,1-1.4.9,4.78,4.78,0,0,1-1.8.4,4.54,4.54,0,0,1-3.5-1.5,4.28,4.28,0,0,1-1.2-3.2,5.45,5.45,0,0,1,1-3.1,4.37,4.37,0,0,1,3.7-1.7,4.59,4.59,0,0,1,3.7,1.8,5,5,0,0,1,1,3.1h-8.2a4.61,4.61,0,0,0,1,2.6,3.49,3.49,0,0,0,2.4,1,3.93,3.93,0,0,0,1.4-.3,5.42,5.42,0,0,0,1.1-.6C171.9,25.5,172.2,25,172.6,24.5Zm0-2.5a4.24,4.24,0,0,0-.6-1.5,4.14,4.14,0,0,0-1.2-.9,3.65,3.65,0,0,0-1.5-.3,3.17,3.17,0,0,0-2.3.9,3.22,3.22,0,0,0-1.1,1.9h6.7Zm3-3.7h1.2v1.4a4.35,4.35,0,0,1,1.1-1.2,3.37,3.37,0,0,1,1.2-.4,2.28,2.28,0,0,1,1.1.3l-.6,1a1.27,1.27,0,0,0-.6-.1,1.58,1.58,0,0,0-1.2.5,2.73,2.73,0,0,0-.8,1.4,19.06,19.06,0,0,0-.2,3.2v3h-1.2Zm13.3,6.2,1,.5a4.66,4.66,0,0,1-1.2,1.5,11,11,0,0,1-1.4.9,4.78,4.78,0,0,1-1.8.4,4.54,4.54,0,0,1-3.5-1.5,4.38,4.38,0,0,1-1.3-3.2,4.89,4.89,0,0,1,1.1-3.1,4.19,4.19,0,0,1,3.6-1.7,4.33,4.33,0,0,1,3.7,1.8,5,5,0,0,1,1,3.1H182a4,4,0,0,0,1,2.6,3.49,3.49,0,0,0,2.4,1,3.93,3.93,0,0,0,1.4-.3,5.42,5.42,0,0,0,1.1-.6C188.2,25.5,188.5,25,188.9,24.5Zm0-2.5a4.24,4.24,0,0,0-.6-1.5,4.14,4.14,0,0,0-1.2-.9,4,4,0,0,0-1.5-.3,3.17,3.17,0,0,0-2.3.9,3.22,3.22,0,0,0-1.1,1.9h6.7Zm3.4-3.7h1.2V20a5.21,5.21,0,0,1,1.6-1.4,3.2,3.2,0,0,1,1.9-.5,4.07,4.07,0,0,1,1.8.5A5.26,5.26,0,0,1,200,20a6.1,6.1,0,0,1,.4,2.7v4.6h-1.2V23c0-1-.1-1.7-.1-2.1a2.48,2.48,0,0,0-.8-1.4,2.41,2.41,0,0,0-1.5-.4,2.81,2.81,0,0,0-1.9.7,3.53,3.53,0,0,0-1.2,1.7,14.23,14.23,0,0,0-.1,2.4v3.3h-1.2V18.3Zm19.2,1.9-.9.6a4.22,4.22,0,0,0-3.3-1.6,3.93,3.93,0,0,0-2.8,1.1,3.63,3.63,0,0,0-1.1,2.6,3.39,3.39,0,0,0,.5,1.9,4.67,4.67,0,0,0,1.4,1.4,4.55,4.55,0,0,0,2,.5,4,4,0,0,0,3.3-1.7l.9.6a4.13,4.13,0,0,1-1.7,1.5,5.14,5.14,0,0,1-2.5.6,5.24,5.24,0,0,1-3.6-1.4,4.6,4.6,0,0,1-1.4-3.4,4.75,4.75,0,0,1,.6-2.4,4.9,4.9,0,0,1,1.8-1.7,6,6,0,0,1,2.7-.6,4.67,4.67,0,0,1,1.7.3,6.11,6.11,0,0,1,1.4.7A2,2,0,0,1,211.5,20.2Zm10,4.3,1,.5a4.66,4.66,0,0,1-1.2,1.5,11,11,0,0,1-1.4.9,4.78,4.78,0,0,1-1.8.4,4.54,4.54,0,0,1-3.5-1.5,4.38,4.38,0,0,1-1.3-3.2,4.89,4.89,0,0,1,1.1-3.1,4.19,4.19,0,0,1,3.6-1.7,4.33,4.33,0,0,1,3.7,1.8,5,5,0,0,1,1,3.1h-8.2a4,4,0,0,0,1,2.6,3.49,3.49,0,0,0,2.4,1,3.93,3.93,0,0,0,1.4-.3,3.88,3.88,0,0,0,1.1-.6A17.1,17.1,0,0,0,221.5,24.5Zm0-2.5a4.24,4.24,0,0,0-.6-1.5,4.14,4.14,0,0,0-1.2-.9,4,4,0,0,0-1.5-.3,3.17,3.17,0,0,0-2.3.9,3.22,3.22,0,0,0-1.1,1.9h6.7Zm8-2.6-.8.8a2.59,2.59,0,0,0-1.8-.9,1.28,1.28,0,0,0-1,.4,1.22,1.22,0,0,0-.4.9,1.14,1.14,0,0,0,.3.8,4.56,4.56,0,0,0,1.4,1,4.14,4.14,0,0,1,1.7,1.3,1.87,1.87,0,0,1,.5,1.4,2.56,2.56,0,0,1-.8,1.9,3,3,0,0,1-2,.8,2.3,2.3,0,0,1-1.4-.4,3.78,3.78,0,0,1-1.2-.9l.7-.9a2.76,2.76,0,0,0,1.9,1,1.75,1.75,0,0,0,1.2-.4,1.17,1.17,0,0,0,.5-1.1,1.61,1.61,0,0,0-.3-.9,4.16,4.16,0,0,0-1.5-1,5,5,0,0,1-1.7-1.2,2.3,2.3,0,0,1-.4-1.4,2.34,2.34,0,0,1,.7-1.7,2.27,2.27,0,0,1,1.8-.7A3.33,3.33,0,0,1,229.5,19.4Z" transform="translate(0 0.1)"/></g></g></svg>