<?xml version="1.0" encoding="utf-8"?>
<!-- Generator: Adobe Illustrator 22.1.0, SVG Export Plug-In . SVG Version: 6.00 Build 0)  -->
<svg version="1.1" id="Layer_1" xmlns="http://www.w3.org/2000/svg" xmlns:xlink="http://www.w3.org/1999/xlink" x="0px" y="0px"
	 viewBox="0 0 348.7 233.9" style="enable-background:new 0 0 348.7 233.9;" xml:space="preserve">
<style type="text/css">
	.st0{fill:#EB5E00;}
	.st1{fill:#FEFEFE;}
</style>
<g id="Layer_x0020_1">
	<g id="_1848508970096">
		<rect x="0" y="0" class="st0" width="348.7" height="233.9"/>
		<g>
			<path class="st1" d="M61.8,95.6h225.1c3.2,0,5.8,2.7,5.8,5.8v30.9c0,3.2-2.6,5.8-5.8,5.8H61.8c-3.2,0-5.8-2.7-5.8-5.8v-30.9
				C55.9,98.3,58.5,95.6,61.8,95.6z"/>
			<path class="st0" d="M65.7,108.2h9.5v3.2H69v3.1h6.2v3.2H69v4.5h6.2v3.3h-9.5V108.2z M80.9,112.5h-3.2c0.1-1.3,0.6-2.3,1.4-3.1
				c1.1-1.1,2.4-1.6,4-1.6c1.4,0,2.7,0.4,3.6,1.3c1,0.9,1.4,2,1.4,3.2c0,0.8-0.2,1.5-0.6,2.2c-0.4,0.6-1.1,1.2-1.9,1.6
				c1.1,0.3,1.9,0.9,2.4,1.6c0.6,0.8,0.9,1.7,0.9,2.8c0,1.6-0.6,2.9-1.7,4c-1.2,1.1-2.7,1.7-4.4,1.7s-3.1-0.5-4.2-1.6
				c-1-1-1.7-2.4-1.7-4.2h3.3c0.1,0.9,0.4,1.6,0.9,2c0.4,0.4,1.1,0.7,1.8,0.7c0.8,0,1.4-0.3,1.9-0.8c0.5-0.5,0.7-1.1,0.7-1.8
				c0-0.8-0.3-1.4-1-2c-0.6-0.6-1.7-0.8-3-0.9v-2.8c0.8-0.1,1.4-0.2,1.8-0.4c0.4-0.2,0.6-0.4,0.9-0.8c0.2-0.3,0.4-0.6,0.4-1
				c0-0.5-0.1-0.9-0.5-1.2c-0.4-0.3-0.8-0.4-1.3-0.4c-0.5,0-0.9,0.1-1.3,0.4C81.4,111.7,81.1,112,80.9,112.5z M101,110.6l-2.4,2.2
				c-0.9-1.2-1.7-1.8-2.6-1.8c-0.4,0-0.8,0.1-1.1,0.4c-0.3,0.2-0.4,0.4-0.4,0.7c0,0.4,0.1,0.6,0.3,0.9c0.3,0.4,1.1,1.1,2.4,2.2
				c1.3,1.1,2,1.7,2.3,2c0.6,0.6,1.2,1.3,1.4,1.9c0.3,0.6,0.4,1.3,0.4,2c0,1.4-0.5,2.6-1.5,3.5c-1,0.9-2.3,1.4-3.9,1.4
				c-1.2,0-2.3-0.4-3.2-0.9c-0.9-0.6-1.7-1.6-2.4-2.9l2.8-1.7c0.9,1.5,1.8,2.3,2.9,2.3c0.6,0,1.1-0.1,1.4-0.5
				c0.4-0.4,0.6-0.7,0.6-1.2c0-0.4-0.1-0.8-0.5-1.2c-0.3-0.4-0.9-1-1.9-1.9c-1.9-1.5-3.2-2.7-3.7-3.5c-0.5-0.9-0.8-1.7-0.8-2.5
				c0-1.2,0.4-2.2,1.4-3.1c0.9-0.9,2.1-1.3,3.4-1.3c0.9,0,1.7,0.1,2.5,0.6C99.3,108.8,100.2,109.5,101,110.6z"/>
			<path class="st0" d="M114.3,110.9h1.3l2.5,8.9l3.5-8.9h0.2l3.5,8.9l2.6-8.9h1.2l-3.5,12.2h-0.2l-3.6-9.3l-3.7,9.3h-0.2
				L114.3,110.9z M138.9,120.2l1,0.5c-0.4,0.6-0.7,1.2-1.2,1.5s-0.9,0.7-1.4,0.9c-0.5,0.2-1.2,0.4-1.8,0.4c-1.5,0-2.7-0.5-3.5-1.5
				c-0.9-0.9-1.3-2-1.3-3.2c0-1.2,0.4-2.2,1.1-3.1c0.9-1.2,2.1-1.7,3.6-1.7c1.6,0,2.8,0.6,3.7,1.8c0.6,0.8,1,1.8,1,3.1H132
				c0,1,0.4,1.9,1,2.6c0.6,0.6,1.4,1,2.4,1c0.4,0,0.9-0.1,1.3-0.3s0.9-0.4,1.2-0.6C138.2,121.2,138.5,120.7,138.9,120.2z
				 M138.9,117.7c-0.1-0.6-0.4-1.2-0.7-1.5c-0.3-0.4-0.6-0.6-1.2-0.9c-0.5-0.2-1-0.3-1.6-0.3c-0.9,0-1.7,0.3-2.3,0.9
				c-0.4,0.4-0.8,1-1.1,1.9H138.9z M142.4,123.1v-12.5h1.2v5c0.5-0.6,1-1,1.7-1.4c0.6-0.3,1.3-0.4,2-0.4c1.2,0,2.4,0.5,3.2,1.4
				c0.9,0.9,1.4,2,1.4,3.4c0,1.3-0.4,2.4-1.4,3.3c-0.9,0.9-2,1.4-3.3,1.4c-0.7,0-1.4-0.2-2-0.5c-0.6-0.3-1.2-0.8-1.6-1.4v1.7H142.4z
				 M147.1,122.3c0.6,0,1.2-0.1,1.8-0.5c0.6-0.3,1-0.7,1.3-1.3c0.4-0.6,0.5-1.2,0.5-1.9c0-0.6-0.1-1.2-0.5-1.8
				c-0.3-0.6-0.8-1.1-1.3-1.4c-0.6-0.4-1.2-0.5-1.8-0.5c-0.6,0-1.2,0.1-1.8,0.5c-0.6,0.3-1,0.7-1.4,1.3c-0.3,0.6-0.4,1.2-0.4,1.9
				c0,1,0.4,1.9,1,2.6C145.2,121.9,146.1,122.3,147.1,122.3z M163,113.8c1.4,0,2.6,0.5,3.5,1.5c0.8,0.9,1.2,2,1.2,3.3
				c0,1.2-0.4,2.4-1.3,3.3c-0.9,0.9-2,1.4-3.5,1.4c-1.4,0-2.5-0.5-3.4-1.4c-0.9-0.9-1.4-2.1-1.4-3.3c0-1.3,0.4-2.4,1.3-3.3
				C160.5,114.3,161.6,113.8,163,113.8z M163,115c-0.9,0-1.8,0.4-2.4,1.1c-0.7,0.7-1.1,1.6-1.1,2.6c0,0.6,0.1,1.3,0.5,1.8
				c0.3,0.6,0.7,1,1.3,1.4c0.5,0.3,1.1,0.4,1.7,0.4c0.6,0,1.3-0.1,1.8-0.4c0.6-0.4,1-0.8,1.3-1.4c0.3-0.5,0.5-1.2,0.5-1.8
				c0-1-0.4-1.9-1.1-2.6C164.8,115.3,164,115,163,115z M173.7,110.6v1.2c-0.4-0.2-0.8-0.3-1.1-0.3c-0.2,0-0.4,0-0.6,0.1
				c-0.1,0.1-0.2,0.1-0.3,0.3c0,0.1-0.1,0.4-0.1,0.9v1.2h1.9v1h-1.9v8.1h-1.2v-8.1h-1.2v-1h1.2v-1.4c0-0.6,0.1-1.2,0.1-1.4
				c0.1-0.3,0.4-0.5,0.6-0.6s0.6-0.3,1-0.3C172.7,110.3,173.2,110.4,173.7,110.6z M191.7,113.1l-0.9,0.8c-0.6-0.7-1.2-1.2-1.9-1.6
				c-0.8-0.4-1.6-0.6-2.4-0.6c-1,0-1.9,0.2-2.7,0.7c-0.9,0.5-1.5,1.1-1.9,1.9c-0.4,0.8-0.7,1.7-0.7,2.7c0,1.4,0.5,2.7,1.6,3.7
				c1,1,2.3,1.5,3.9,1.5c1.7,0,3.2-0.7,4.3-2l0.9,0.7c-0.6,0.8-1.4,1.4-2.3,1.8c-0.9,0.4-1.9,0.6-3,0.6c-2.2,0-3.9-0.7-5.1-2.2
				c-1-1.2-1.6-2.7-1.6-4.4c0-1.8,0.6-3.3,1.9-4.5c1.2-1.2,2.8-1.8,4.7-1.8c1.2,0,2.2,0.2,3.1,0.6
				C190.3,111.7,191.1,112.3,191.7,113.1z M198.2,113.8c1.4,0,2.6,0.5,3.5,1.5c0.9,0.9,1.2,2,1.2,3.3c0,1.2-0.4,2.4-1.3,3.3
				c-0.9,0.9-2,1.4-3.5,1.4c-1.4,0-2.5-0.5-3.4-1.4c-0.9-0.9-1.4-2.1-1.4-3.3c0-1.3,0.4-2.4,1.3-3.3
				C195.7,114.3,196.8,113.8,198.2,113.8z M198.2,115c-0.9,0-1.8,0.4-2.4,1.1c-0.7,0.7-1.1,1.6-1.1,2.6c0,0.6,0.1,1.3,0.5,1.8
				c0.3,0.6,0.7,1,1.3,1.4c0.5,0.3,1.1,0.4,1.7,0.4c0.6,0,1.3-0.1,1.8-0.4c0.6-0.4,1-0.8,1.3-1.4c0.3-0.5,0.5-1.2,0.5-1.8
				c0-1-0.4-1.9-1.1-2.6C200,115.3,199.2,115,198.2,115z M205.1,114h1.2v1.7c0.5-0.6,1-1.1,1.6-1.4c0.6-0.4,1.2-0.5,1.9-0.5
				s1.3,0.2,1.8,0.5c0.5,0.4,0.9,0.9,1.2,1.4c0.3,0.6,0.4,1.4,0.4,2.7v4.6h-1.2v-4.3c0-1,0-1.7-0.1-2.1c-0.1-0.6-0.4-1-0.8-1.4
				c-0.4-0.3-0.9-0.4-1.4-0.4c-0.7,0-1.4,0.2-1.9,0.7c-0.6,0.4-0.9,1-1.1,1.7c-0.1,0.4-0.2,1.3-0.2,2.4v3.3h-1.2V114z M219.3,110.6
				v1.2c-0.4-0.2-0.8-0.3-1.1-0.3c-0.2,0-0.4,0-0.6,0.1c-0.1,0.1-0.2,0.1-0.3,0.3c0,0.1-0.1,0.4-0.1,0.9v1.2h1.9v1h-1.9v8.1h-1.2
				v-8.1h-1.2v-1h1.2v-1.4c0-0.6,0.1-1.2,0.1-1.4c0.1-0.3,0.4-0.5,0.6-0.6s0.6-0.3,1-0.3C218.4,110.3,218.8,110.4,219.3,110.6z
				 M228.6,120.2l1,0.5c-0.4,0.6-0.7,1.2-1.2,1.5s-0.9,0.7-1.4,0.9c-0.5,0.2-1.1,0.4-1.8,0.4c-1.4,0-2.6-0.5-3.5-1.5
				c-0.9-0.9-1.2-2-1.2-3.2c0-1.2,0.4-2.2,1-3.1c0.9-1.2,2.2-1.7,3.7-1.7s2.7,0.6,3.7,1.8c0.6,0.8,1,1.8,1,3.1h-8.2
				c0.1,1,0.4,1.9,1,2.6c0.6,0.6,1.5,1,2.4,1c0.4,0,0.9-0.1,1.4-0.3s0.8-0.4,1.1-0.6C227.9,121.2,228.2,120.7,228.6,120.2z
				 M228.6,117.7c-0.1-0.6-0.4-1.2-0.6-1.5s-0.7-0.6-1.2-0.9c-0.4-0.2-1-0.3-1.5-0.3c-0.9,0-1.7,0.3-2.3,0.9c-0.5,0.4-0.9,1-1.1,1.9
				H228.6z M231.6,114h1.2v1.4c0.4-0.6,0.7-0.9,1.1-1.2c0.4-0.2,0.9-0.4,1.2-0.4c0.4,0,0.7,0.1,1.1,0.3l-0.6,1
				c-0.2-0.1-0.4-0.1-0.6-0.1c-0.4,0-0.8,0.1-1.2,0.5c-0.4,0.3-0.6,0.8-0.8,1.4c-0.1,0.5-0.2,1.6-0.2,3.2v3h-1.2V114z M244.9,120.2
				l1,0.5c-0.4,0.6-0.7,1.2-1.2,1.5s-0.9,0.7-1.4,0.9c-0.5,0.2-1.1,0.4-1.8,0.4c-1.4,0-2.6-0.5-3.5-1.5c-0.9-0.9-1.3-2-1.3-3.2
				c0-1.2,0.4-2.2,1.1-3.1c0.9-1.2,2.1-1.7,3.6-1.7c1.6,0,2.8,0.6,3.7,1.8c0.6,0.8,1,1.8,1,3.1H238c0,1,0.4,1.9,1,2.6
				c0.6,0.6,1.5,1,2.4,1c0.4,0,0.9-0.1,1.4-0.3s0.8-0.4,1.1-0.6C244.2,121.2,244.5,120.7,244.9,120.2z M244.9,117.7
				c-0.1-0.6-0.4-1.2-0.6-1.5s-0.7-0.6-1.2-0.9c-0.5-0.2-1-0.3-1.5-0.3c-0.9,0-1.7,0.3-2.3,0.9c-0.5,0.4-0.9,1-1.1,1.9H244.9z
				 M248.3,114h1.2v1.7c0.5-0.6,1-1.1,1.6-1.4c0.6-0.4,1.2-0.5,1.9-0.5c0.6,0,1.2,0.2,1.8,0.5c0.5,0.4,0.9,0.9,1.2,1.4
				c0.3,0.6,0.4,1.4,0.4,2.7v4.6h-1.2v-4.3c0-1-0.1-1.7-0.1-2.1c-0.1-0.6-0.4-1-0.8-1.4c-0.4-0.3-0.9-0.4-1.5-0.4
				c-0.7,0-1.3,0.2-1.9,0.7c-0.6,0.4-0.9,1-1.2,1.7c-0.1,0.4-0.1,1.3-0.1,2.4v3.3h-1.2V114z M267.5,115.9l-0.9,0.6
				c-0.9-1-1.9-1.6-3.3-1.6c-1.2,0-2,0.4-2.8,1.1c-0.7,0.7-1.1,1.6-1.1,2.6c0,0.6,0.1,1.3,0.5,1.9c0.4,0.6,0.8,1,1.4,1.4
				c0.6,0.3,1.3,0.5,2,0.5c1.4,0,2.4-0.6,3.3-1.7l0.9,0.6c-0.4,0.6-1,1.2-1.7,1.5c-0.7,0.4-1.6,0.6-2.5,0.6c-1.4,0-2.6-0.5-3.6-1.4
				c-0.9-0.9-1.4-2-1.4-3.4c0-0.9,0.2-1.7,0.6-2.4c0.4-0.7,1.1-1.3,1.8-1.7c0.8-0.4,1.7-0.6,2.7-0.6c0.6,0,1.2,0.1,1.7,0.3
				s1,0.4,1.4,0.7C267,115.1,267.3,115.5,267.5,115.9z M277.5,120.2l1,0.5c-0.4,0.6-0.7,1.2-1.2,1.5s-0.9,0.7-1.4,0.9
				c-0.5,0.2-1.1,0.4-1.8,0.4c-1.4,0-2.6-0.5-3.5-1.5c-0.9-0.9-1.3-2-1.3-3.2c0-1.2,0.4-2.2,1.1-3.1c0.9-1.2,2.1-1.7,3.6-1.7
				c1.6,0,2.8,0.6,3.7,1.8c0.6,0.8,1,1.8,1,3.1h-8.2c0,1,0.4,1.9,1,2.6c0.6,0.6,1.5,1,2.4,1c0.4,0,0.9-0.1,1.4-0.3
				c0.4-0.1,0.8-0.4,1.1-0.6C276.8,121.2,277.1,120.7,277.5,120.2z M277.5,117.7c-0.1-0.6-0.4-1.2-0.6-1.5s-0.7-0.6-1.2-0.9
				c-0.5-0.2-1-0.3-1.5-0.3c-0.9,0-1.7,0.3-2.3,0.9c-0.5,0.4-0.9,1-1.1,1.9H277.5z M285.5,115.1l-0.8,0.8c-0.6-0.6-1.2-0.9-1.8-0.9
				c-0.4,0-0.7,0.1-1,0.4c-0.3,0.3-0.4,0.6-0.4,0.9c0,0.3,0.1,0.6,0.3,0.8c0.2,0.3,0.7,0.6,1.4,1c0.9,0.4,1.4,0.9,1.7,1.3
				c0.4,0.4,0.5,0.9,0.5,1.4c0,0.8-0.3,1.4-0.8,1.9c-0.6,0.5-1.2,0.8-2,0.8c-0.5,0-1-0.1-1.4-0.4c-0.5-0.2-0.9-0.6-1.2-0.9l0.7-0.9
				c0.6,0.6,1.2,1,1.9,1c0.4,0,0.9-0.1,1.2-0.4c0.4-0.3,0.5-0.6,0.5-1.1c0-0.3-0.1-0.6-0.3-0.9c-0.2-0.3-0.7-0.6-1.5-1
				c-0.8-0.4-1.4-0.8-1.7-1.2s-0.4-0.9-0.4-1.4c0-0.6,0.2-1.2,0.7-1.7c0.4-0.5,1.1-0.7,1.8-0.7C283.8,113.8,284.7,114.3,285.5,115.1
				z"/>
		</g>
	</g>
</g>
</svg>
