<?xml version="1.0" encoding="utf-8"?>
<!-- Generator: Adobe Illustrator 22.1.0, SVG Export Plug-In . SVG Version: 6.00 Build 0)  -->
<svg version="1.1" id="Layer_1" xmlns="http://www.w3.org/2000/svg" xmlns:xlink="http://www.w3.org/1999/xlink" x="0px" y="0px"
	 viewBox="0 0 345.8 53.8" style="enable-background:new 0 0 345.8 53.8;" xml:space="preserve">
<style type="text/css">
	.st0{fill:#2B2A29;}
	.st1{fill:#E31E24;}
</style>
<g id="Layer_x0020_1">
	<path class="st0" d="M330.7,36.7c-6.9-0.5-4.5-4.7-2.8-5.4c1.7-0.7,7.5,2.2,12.3-3c3-3.2,3.5-8.8,1.2-12.6c-0.1-0.2-1-1.4-1-1.4
		c0-1.1,0.7-2.8,1.3-3.3c2.9-2.3,3.3,2.8,3.3-4.4c-4.3,0-6.3,0-7.4,5c-2-0.5-2.2-1.2-5-1.2c-4.2,0-7.8,2.6-9.3,5.8
		c-1.6,3.4-1.5,8.6,1.1,11.5c0.7,0.7,0.8,0.5,1,1.6c-3.2,0.9-5.1,6.3-2.3,9l1.3,1.3c-5.3,1.2-7.3,14.2,8.2,14.2
		c3.9,0,9.5-1,11.6-3.9c1.1-1.5,1.5-2.6,1.5-3.9V43C345.8,36,334.3,37,330.7,36.7z M331.9,14.4c2,0,3.6,0.1,5,2
		c2.6,3.8,1.1,11.4-4,11.4C324.5,27.8,325.9,14.4,331.9,14.4z M338.7,48.8c-1.2,0.6-3.9,1.1-5.6,1.1c-2.9,0-7.7-0.8-7.7-4.3
		c0-1.6-0.1-2.3,0.8-3.5c1.5-1.9,3.5-1.3,7.6-1.3c1.9,0,3.8,0.2,5.1,0.7C342.3,42.7,341.7,47.4,338.7,48.8z"/>
	<path class="st0" d="M184.6,38.6c-8,0-6.7-9.4-6.7-15.4c0-3.7,1.9-8.6,6.7-8.7c7.2-0.1,6.4,8.9,6.4,14c0,2.4-0.5,5.1-1.3,6.8
		C188.7,37.3,187.3,38.6,184.6,38.6z M173,42h2.7c0.1-1.5,0.9-2.8,0.9-4.1l0.5,0.7c2.8,3.9,3.5,3.9,8.6,3.9c3.5,0,6.4-2.3,8.1-5.1
		c4.1-6.7,4.2-26.8-8.4-26.8c-1.9,0-3.5,0.5-4.7,1.3c-1.6,1-1.8,1.7-3,3V0.5H173V42z"/>
	<path class="st0" d="M124.1,20.9H120V4.8h7.2c4.6,0,6.5,4.1,6.5,8.6C133.7,19.3,129.9,20.9,124.1,20.9z M115,42h5V25.2
		c9,0,18,0.3,19.2-11.8c0.1-1.5-0.6-4.4-1-5.5c-1.9-4.9-6-7.5-12-7.5H115V42z"/>
	<path class="st0" d="M252.7,42c6,0,4.8,1.4,4.8-7.7c0-4.6-0.5-12.1,1-16c2.2-5.4,7.6-4.6,9.1-2.1c0.6,1,0.9,2.4,0.9,3.9V42h4.8
		V20.4c0-12.8-11.8-11.4-14.6-7.2c-0.2,0.3-0.4,0.5-0.6,0.9l-0.7,1V0.5h-4.8V42z"/>
	<path class="st0" d="M298.5,15.4v-4.1h-4.3V42h4.6V24.7c0-4.7,1.3-10.3,5.8-10.3c4,0,5.5,1.2,5.5,6.5V42h4.6V18.7
		c0-2.4-0.9-4.7-2.1-6.1c-2.4-2.6-7.9-3.2-11.1-0.9c-1.3,0.9-1.7,1.8-2.5,3C298.6,15.2,298.8,15,298.5,15.4z"/>
	<path class="st0" d="M144.5,33.8c0,10.2,10.3,11,14.5,6.3l1.2-1.7c0.2-0.3,0.3-0.3,0.4-0.5V42h4.3V11.3h-4.6v16.8
		c0,4.2-1.3,10.8-6.2,10.8c-3.7,0-5-1.4-5-6.3V11.3h-4.6V33.8z"/>
	<path class="st0" d="M226.3,19.7c0,2.3,1,4,2.2,5.2c4.4,4.5,14.1,2.7,14.1,9.4c0,5.9-12.3,6.7-13-1.2c-1.7,0-2.8,0.7-4.3,0.7
		c0,2.2,1.2,4.4,2.7,6l0.3,0.2c2.1,2,4,2.6,7.7,2.7c2.9,0.1,5.6-0.7,7.6-2c4.3-2.7,6.2-10.4-0.2-14.4c-2.2-1.4-4.4-1.9-7.1-2.7
		c-2.6-0.9-5.1-1.4-5.4-4.4c-0.3-4.7,6.3-6.3,9.4-3.1c1.2,1.2,1.1,1.8,1.8,3.2c0.8,0,3.5-0.7,4.1-1c-0.5-2.3-1.5-4.2-3.1-5.6
		C237.7,7.8,226.3,10.7,226.3,19.7z"/>
	<polygon class="st0" points="202.8,42 207.6,42 207.6,0.5 202.8,0.5 	"/>
	<polygon class="st0" points="215.5,42 220.3,42 220.3,11.3 215.5,11.3 	"/>
	<polygon class="st0" points="281.5,42 286,42 286,11.3 281.5,11.3 	"/>
	<path class="st0" d="M281,1.2c0,6-1.2,4.8,5.3,4.8V0.5C283.1,0.5,281,0,281,1.2z"/>
	<polygon class="st0" points="215.3,6 220.3,6 220.3,0.5 215.3,0.5 	"/>
	<path class="st1" d="M54.4,9.2c-1.8-3-3.9-5.5-7.1-7.1C44,0.5,42.2,0.1,39.8,0h-4.7c-2.1,0-4.6,0.8-6,1.4c-2,0.9-3.1,1.7-4.7,2.9
		c-2.7,2.2-4.7,5.6-5.9,9.5c-1.9,6.3-1.2,13.1,1.7,18.9c2.6,5.2,7.5,8.5,13.2,9.6c8.4,1.6,16.7-1.8,20.8-9.1c1.8-3.3,3-7.3,3-12.3
		C57.1,17,56.3,12.3,54.4,9.2z M42.1,29.8c-1.4,3.2-5,4.3-7.7,2.4c-0.8-0.5-1.4-1.3-1.8-2.3c-0.8-1.8-1.3-4.4-1.3-6.9
		c0-5.5,0.1-13.7,6.5-13.7C45.3,9.4,43.4,26.7,42.1,29.8z"/>
	<path class="st1" d="M78.3,18h-3.8v-7.9c3,0,9.6-0.8,9.6,3.1C84,16.5,83.2,18,78.3,18z M61.4,42h13V27.6c0-1.2,2.5-0.7,3.6-0.7
		c4.4,0,8.1,0.3,12-1.7c9.4-4.9,8.4-16.8,2.4-21.4c-2.8-2.2-6.1-3.3-11.1-3.3H61.4V42z"/>
	<polygon class="st1" points="0,42 13,42 13,0.5 0,0.5 	"/>
</g>
</svg>
