<?xml version="1.0" encoding="utf-8"?>
<!-- Generator: Adobe Illustrator 22.1.0, SVG Export Plug-In . SVG Version: 6.00 Build 0)  -->
<svg version="1.1" id="Layer_1" xmlns="http://www.w3.org/2000/svg" xmlns:xlink="http://www.w3.org/1999/xlink" x="0px" y="0px"
	 viewBox="0 0 348.7 233.9" style="enable-background:new 0 0 348.7 233.9;" xml:space="preserve">
<style type="text/css">
	.st0{fill:#EAECF1;}
	.st1{fill:#2B2A29;}
	.st2{fill:#E31E24;}
</style>
<g id="Layer_x0020_1">
	<g id="_1848508970096">
		<rect class="st0" width="348.7" height="233.9"/>
	</g>
</g>
<g id="Layer_x0020_1_1_">
	<path class="st1" d="M282.3,123.7c-4.7-0.4-3.1-3.2-1.9-3.7c1.2-0.5,5.1,1.5,8.4-2.1c2-2.2,2.4-6,0.9-8.6c-0.1-0.1-0.7-1-0.7-1
		c0-0.8,0.4-1.9,0.9-2.2c2-1.6,2.2,1.9,2.2-3c-2.9,0-4.3,0-5.1,3.4c-1.4-0.3-1.5-0.8-3.5-0.8c-2.9,0-5.3,1.8-6.4,4
		c-1.1,2.3-1,5.9,0.7,7.9c0.4,0.5,0.5,0.3,0.7,1.1c-2.2,0.6-3.5,4.3-1.6,6.1l0.9,0.9c-3.6,0.9-5,9.7,5.6,9.7c2.7,0,6.5-0.7,8-2.7
		c0.8-1,1-1.8,1-2.7v-2C292.6,123.2,284.8,123.9,282.3,123.7z M283.1,108.4c1.4,0,2.5,0.1,3.4,1.4c1.8,2.6,0.8,7.8-2.7,7.8
		C278.1,117.6,279,108.4,283.1,108.4z M287.8,132c-0.9,0.4-2.7,0.7-3.9,0.7c-2,0-5.3-0.6-5.3-2.9c0-1.1-0.1-1.6,0.5-2.4
		c1-1.3,2.4-0.9,5.2-0.9c1.3,0,2.6,0.1,3.5,0.5C290.3,127.8,289.8,131,287.8,132z"/>
	<path class="st1" d="M182.3,125c-5.4,0-4.6-6.4-4.6-10.5c0-2.5,1.3-5.9,4.6-6c4.9-0.1,4.4,6.1,4.4,9.6c0,1.7-0.3,3.5-0.9,4.7
		C185.2,124.1,184.2,125,182.3,125z M174.4,127.3h1.8c0.1-1,0.6-1.9,0.6-2.8l0.4,0.4c1.9,2.7,2.4,2.7,5.9,2.7c2.4,0,4.4-1.6,5.6-3.5
		c2.8-4.6,2.9-18.3-5.7-18.3c-1.3,0-2.4,0.3-3.2,0.9c-1.1,0.7-1.3,1.2-2,2.1v-9.8h-3.3V127.3z"/>
	<path class="st1" d="M140.9,112.8h-2.8v-11h4.9c3.2,0,4.4,2.8,4.4,5.9C147.5,111.8,145,112.8,140.9,112.8z M134.7,127.3h3.4v-11.5
		c6.1,0,12.3,0.2,13.1-8.1c0.1-1-0.4-3-0.7-3.7c-1.3-3.4-4.1-5.1-8.2-5.1h-7.7V127.3z"/>
	<path class="st1" d="M228.9,127.3c4.1,0,3.3,1,3.3-5.3c0-3.1-0.3-8.3,0.7-10.9c1.5-3.7,5.2-3.1,6.2-1.4c0.4,0.7,0.6,1.6,0.6,2.7
		v14.9h3.3v-14.8c0-8.8-8.1-7.8-10-4.9c-0.2,0.2-0.3,0.4-0.4,0.6l-0.5,0.7v-10h-3.3V127.3z"/>
	<path class="st1" d="M260.3,109.1v-2.8h-3v21h3.1v-11.8c0-3.2,0.9-7.1,3.9-7.1c2.7,0,3.8,0.8,3.8,4.4v14.4h3.1v-15.9
		c0-1.7-0.6-3.2-1.4-4.1c-1.6-1.8-5.4-2.2-7.6-0.6c-0.9,0.6-1.1,1.2-1.7,2.1C260.3,109,260.5,108.8,260.3,109.1z"/>
	<path class="st1" d="M154.9,121.7c0,7,7,7.5,9.9,4.3l0.8-1.2c0.1-0.2,0.2-0.2,0.3-0.3v2.8h3v-21h-3.1v11.5c0,2.8-0.9,7.4-4.3,7.4
		c-2.5,0-3.5-1-3.5-4.3v-14.6h-3.1V121.7z"/>
	<path class="st1" d="M210.9,112c0,1.6,0.7,2.8,1.5,3.6c3,3.1,9.7,1.9,9.7,6.4c0,4.1-8.4,4.6-8.9-0.8c-1.2,0-1.9,0.5-3,0.5
		c0,1.5,0.8,3,1.8,4.1l0.2,0.2c1.4,1.4,2.8,1.8,5.3,1.9c2,0.1,3.8-0.5,5.2-1.4c2.9-1.9,4.3-7.1-0.1-9.9c-1.5-0.9-3-1.3-4.9-1.9
		c-1.8-0.6-3.5-0.9-3.7-3c-0.2-3.2,4.3-4.3,6.4-2.2c0.8,0.9,0.7,1.2,1.3,2.2c0.5,0,2.4-0.5,2.8-0.7c-0.4-1.6-1-2.8-2.1-3.8
		C218.7,103.9,210.9,105.9,210.9,112z"/>
	<polygon class="st1" points="194.8,127.3 198.1,127.3 198.1,98.9 194.8,98.9 	"/>
	<polygon class="st1" points="203.5,127.3 206.8,127.3 206.8,106.3 203.5,106.3 	"/>
	<polygon class="st1" points="248.6,127.3 251.7,127.3 251.7,106.3 248.6,106.3 	"/>
	<path class="st1" d="M248.3,99.4c0,4.1-0.8,3.3,3.6,3.3v-3.8C249.7,98.9,248.3,98.6,248.3,99.4z"/>
	<polygon class="st1" points="203.3,102.7 206.8,102.7 206.8,98.9 203.3,98.9 	"/>
	<path class="st2" d="M93.3,104.9c-1.2-2-2.7-3.8-4.8-4.8c-2.3-1.1-3.5-1.4-5.2-1.5h-3.2c-1.4,0-3.1,0.6-4.1,0.9
		c-1.4,0.6-2.2,1.2-3.2,2c-1.9,1.5-3.2,3.9-4,6.5c-1.3,4.3-0.9,9,1.1,12.9c1.8,3.5,5.1,5.8,9,6.6c5.7,1.1,11.4-1.2,14.2-6.2
		c1.3-2.3,2.1-5,2.1-8.4C95.2,110.2,94.6,107,93.3,104.9z M84.8,118.9c-1,2.2-3.4,2.9-5.3,1.6c-0.5-0.4-0.9-0.9-1.2-1.6
		c-0.5-1.2-0.9-3-0.9-4.7c0-3.8,0-9.4,4.4-9.4C87,105,85.8,116.8,84.8,118.9z"/>
	<path class="st2" d="M109.6,110.9H107v-5.4c2.1,0,6.6-0.5,6.6,2.1C113.5,109.8,113,110.9,109.6,110.9z M98.1,127.3h8.9v-9.8
		c0-0.8,1.7-0.5,2.5-0.5c3,0,5.6,0.2,8.2-1.1c6.4-3.3,5.8-11.5,1.6-14.6c-1.9-1.5-4.1-2.3-7.6-2.3H98.1V127.3z"/>
	<polygon class="st2" points="56.1,127.3 65,127.3 65,98.9 56.1,98.9 	"/>
</g>
</svg>
