<?xml version="1.0" encoding="utf-8"?>
<!-- Generator: Adobe Illustrator 22.1.0, SVG Export Plug-In . SVG Version: 6.00 Build 0)  -->
<svg version="1.1" id="Layer_1" xmlns="http://www.w3.org/2000/svg" xmlns:xlink="http://www.w3.org/1999/xlink" x="0px" y="0px"
	 viewBox="0 0 348.7 233.9" style="enable-background:new 0 0 348.7 233.9;" xml:space="preserve">
<style type="text/css">
	.st0{fill:#16456F;}
	.st1{fill:#FEFEFE;}
</style>
<g id="Layer_x0020_1">
	<g id="_1848318594960">
		<rect x="0" y="0" class="st0" width="348.7" height="233.9"/>
		<g>
			<path class="st1" d="M76.9,133.5v-7.1h2.7c0.6,0,1,0.1,1.4,0.2c0.3,0.1,0.6,0.4,0.7,0.6c0.2,0.3,0.3,0.6,0.3,0.9
				c0,0.3-0.1,0.6-0.2,0.9c-0.2,0.3-0.4,0.5-0.8,0.6c0.4,0.1,0.8,0.4,1,0.6s0.4,0.6,0.4,1.1c0,0.3-0.1,0.6-0.2,0.9s-0.3,0.5-0.5,0.6
				s-0.5,0.3-0.8,0.4c-0.3,0.1-0.7,0.1-1.2,0.1H76.9z M77.9,129.4h1.5c0.4,0,0.7,0,0.9-0.1c0.3-0.1,0.4-0.2,0.6-0.4s0.1-0.4,0.1-0.6
				c0-0.2,0-0.4-0.1-0.6c-0.1-0.2-0.3-0.3-0.5-0.4c-0.2-0.1-0.6-0.1-1.1-0.1h-1.4V129.4z M77.9,132.7h1.7c0.3,0,0.5,0,0.6-0.1
				c0.2,0,0.4-0.1,0.6-0.1c0.1-0.1,0.2-0.2,0.4-0.4c0.1-0.1,0.1-0.4,0.1-0.6c0-0.3,0-0.5-0.1-0.7c-0.1-0.2-0.4-0.4-0.6-0.4
				c-0.3-0.1-0.6-0.1-1.1-0.1h-1.6V132.7z M84.1,135.5l-0.1-0.8c0.1,0,0.4,0.1,0.5,0.1c0.1,0,0.4-0.1,0.4-0.1
				c0.1-0.1,0.2-0.1,0.3-0.2c0.1-0.1,0.1-0.4,0.3-0.6c0-0.1,0-0.1,0.1-0.2l-1.9-5.2h0.9l1.1,3c0.1,0.4,0.2,0.8,0.4,1.2
				c0.1-0.4,0.2-0.8,0.4-1.2l1.1-3h0.9l-1.9,5.3c-0.2,0.5-0.4,0.9-0.5,1.2c-0.1,0.3-0.3,0.5-0.5,0.6c-0.2,0.1-0.4,0.1-0.7,0.1
				C84.5,135.6,84.3,135.6,84.1,135.5z M94.2,133.5v-6.3h-2.3v-0.8h5.6v0.8h-2.3v6.3H94.2z M98.7,133.5v-5.1h0.8v0.8
				c0.2-0.4,0.4-0.6,0.6-0.7c0.1-0.1,0.4-0.2,0.5-0.2c0.4,0,0.6,0.1,0.9,0.3l-0.3,0.8c-0.2-0.1-0.4-0.1-0.6-0.1s-0.4,0.1-0.5,0.1
				c-0.1,0.1-0.3,0.3-0.4,0.5c-0.1,0.3-0.1,0.6-0.1,1v2.7H98.7z M106.1,132.8c-0.3,0.3-0.6,0.5-0.9,0.6c-0.3,0.1-0.6,0.1-0.9,0.1
				c-0.6,0-1-0.1-1.3-0.4c-0.4-0.3-0.5-0.6-0.5-1.1c0-0.2,0.1-0.4,0.2-0.6c0.1-0.2,0.2-0.4,0.4-0.5c0.2-0.1,0.4-0.2,0.6-0.3
				c0.1-0.1,0.4-0.1,0.8-0.1c0.6-0.1,1.2-0.1,1.5-0.3c0-0.1,0-0.2,0-0.2c0-0.4-0.1-0.6-0.2-0.8c-0.2-0.1-0.6-0.3-1-0.3
				c-0.4,0-0.7,0.1-0.9,0.2c-0.1,0.1-0.3,0.4-0.4,0.8l-0.9-0.1c0.1-0.4,0.2-0.6,0.4-0.9c0.1-0.2,0.4-0.4,0.7-0.5
				c0.4-0.1,0.8-0.2,1.2-0.2c0.4,0,0.8,0.1,1.1,0.1c0.2,0.1,0.4,0.3,0.6,0.4s0.2,0.4,0.3,0.6c0,0.1,0.1,0.4,0.1,0.8v1.2
				c0,0.9,0,1.4,0,1.6c0.1,0.2,0.1,0.4,0.2,0.6h-0.9C106.1,133.3,106.1,133.1,106.1,132.8z M106,131c-0.3,0.1-0.8,0.2-1.4,0.3
				c-0.4,0.1-0.6,0.1-0.7,0.1c-0.1,0.1-0.3,0.2-0.4,0.3c-0.1,0.1-0.1,0.3-0.1,0.4c0,0.2,0.1,0.4,0.3,0.6s0.4,0.2,0.8,0.2
				c0.3,0,0.6-0.1,0.9-0.2c0.3-0.1,0.5-0.3,0.6-0.6c0.1-0.2,0.1-0.5,0.1-0.9V131z M108.9,133.5v-5.1h0.8v0.7
				c0.4-0.6,0.9-0.9,1.7-0.9c0.3,0,0.6,0.1,0.9,0.2c0.3,0.1,0.4,0.2,0.6,0.4c0.1,0.1,0.2,0.4,0.3,0.6c0,0.1,0.1,0.4,0.1,0.8v3.2
				h-0.9v-3.1c0-0.4,0-0.6-0.1-0.8c-0.1-0.2-0.2-0.4-0.4-0.4c-0.1-0.1-0.4-0.1-0.6-0.1c-0.4,0-0.7,0.1-1,0.4
				c-0.3,0.2-0.4,0.6-0.4,1.3v2.8H108.9z M114.8,132l0.9-0.1c0,0.4,0.1,0.6,0.4,0.8c0.2,0.2,0.6,0.3,0.9,0.3c0.4,0,0.7-0.1,0.9-0.2
				c0.1-0.2,0.3-0.4,0.3-0.6c0-0.2-0.1-0.4-0.3-0.5c-0.1-0.1-0.4-0.1-0.9-0.3c-0.6-0.1-1.1-0.3-1.4-0.4c-0.2-0.1-0.4-0.3-0.6-0.5
				c-0.1-0.1-0.1-0.4-0.1-0.6c0-0.2,0-0.4,0.1-0.6c0.1-0.2,0.2-0.4,0.4-0.5c0.1-0.1,0.3-0.1,0.6-0.2c0.2-0.1,0.4-0.1,0.7-0.1
				c0.4,0,0.8,0.1,1.1,0.2c0.3,0.1,0.5,0.3,0.6,0.4c0.1,0.2,0.3,0.5,0.3,0.8l-0.9,0.1c0-0.3-0.1-0.5-0.3-0.6
				c-0.2-0.1-0.4-0.2-0.8-0.2c-0.4,0-0.7,0.1-0.9,0.2s-0.3,0.3-0.3,0.4s0.1,0.2,0.1,0.4c0.1,0.1,0.1,0.1,0.4,0.2
				c0.1,0,0.3,0.1,0.7,0.2c0.6,0.1,1.1,0.3,1.3,0.4c0.3,0.1,0.4,0.2,0.6,0.4c0.1,0.2,0.2,0.4,0.2,0.7c0,0.3-0.1,0.6-0.2,0.9
				c-0.2,0.2-0.4,0.4-0.8,0.6c-0.3,0.1-0.6,0.2-1.1,0.2c-0.6,0-1.2-0.1-1.5-0.4C115.1,132.9,114.8,132.5,114.8,132z M125.2,133.5
				v-6.3h-2.3v-0.8h5.6v0.8h-2.4v6.3H125.2z M132.5,131.8l0.9,0.1c-0.1,0.5-0.4,0.9-0.8,1.2c-0.4,0.3-0.9,0.4-1.4,0.4
				c-0.8,0-1.4-0.2-1.8-0.7c-0.4-0.4-0.6-1.1-0.6-1.9s0.2-1.5,0.6-2c0.4-0.4,1-0.7,1.7-0.7c0.7,0,1.2,0.3,1.7,0.7
				c0.5,0.5,0.7,1.2,0.7,1.9c0,0.1,0,0.1-0.1,0.3h-3.8c0.1,0.6,0.2,1,0.5,1.3s0.6,0.4,1.1,0.4c0.3,0,0.6-0.1,0.8-0.3
				C132.1,132.5,132.3,132.2,132.5,131.8z M129.6,130.5h2.9c-0.1-0.4-0.1-0.8-0.4-1c-0.3-0.3-0.6-0.5-1.1-0.5c-0.4,0-0.7,0.1-1,0.4
				S129.6,130,129.6,130.5z M138.5,131.6l0.8,0.1c-0.1,0.6-0.3,1-0.7,1.4c-0.4,0.4-0.9,0.5-1.4,0.5c-0.7,0-1.3-0.2-1.7-0.7
				c-0.4-0.4-0.6-1.1-0.6-1.9c0-0.6,0.1-1.1,0.3-1.4c0.2-0.4,0.4-0.7,0.9-0.9c0.4-0.2,0.8-0.4,1.2-0.4c0.6,0,1,0.1,1.4,0.4
				s0.6,0.7,0.6,1.2l-0.8,0.1c-0.1-0.4-0.3-0.6-0.4-0.8c-0.2-0.2-0.5-0.3-0.8-0.3c-0.4,0-0.8,0.1-1.1,0.5c-0.2,0.3-0.4,0.8-0.4,1.5
				c0,0.6,0.1,1.2,0.4,1.4c0.3,0.4,0.6,0.5,1.1,0.5c0.3,0,0.6-0.1,0.8-0.3C138.3,132.4,138.5,132,138.5,131.6z M140.8,133.5v-7.1
				h0.9v2.5c0.4-0.4,0.9-0.7,1.6-0.7c0.4,0,0.6,0.1,0.9,0.2c0.3,0.2,0.5,0.4,0.6,0.6c0.1,0.3,0.1,0.6,0.1,1.2v3.2h-0.9v-3.2
				c0-0.4-0.1-0.7-0.3-0.9c-0.2-0.2-0.4-0.3-0.8-0.3c-0.3,0-0.5,0.1-0.7,0.2c-0.2,0.1-0.4,0.3-0.5,0.5c-0.1,0.2-0.1,0.6-0.1,0.9v2.8
				H140.8z M149.8,133.5v-7.1h2.7c0.5,0,0.9,0,1.1,0.1c0.4,0,0.6,0.1,0.9,0.3c0.3,0.1,0.4,0.4,0.6,0.7s0.2,0.6,0.2,0.9
				c0,0.6-0.1,1.2-0.6,1.5c-0.4,0.4-1.1,0.6-2.1,0.6h-1.8v2.9H149.8z M150.8,129.8h1.8c0.6,0,1.1-0.1,1.3-0.4
				c0.3-0.2,0.4-0.6,0.4-0.9c0-0.4-0.1-0.6-0.2-0.8s-0.4-0.4-0.6-0.4c-0.1,0-0.4-0.1-0.9-0.1h-1.8V129.8z M160.3,133.5v-0.7
				c-0.4,0.6-0.9,0.9-1.6,0.9c-0.3,0-0.6-0.1-0.9-0.2c-0.3-0.1-0.4-0.2-0.6-0.4c-0.1-0.1-0.2-0.4-0.3-0.6c0-0.1-0.1-0.4-0.1-0.8
				v-3.2h0.9v2.8c0,0.5,0.1,0.8,0.1,0.9c0.1,0.2,0.2,0.4,0.4,0.6c0.2,0.1,0.4,0.1,0.6,0.1c0.3,0,0.5-0.1,0.7-0.1
				c0.3-0.1,0.4-0.4,0.5-0.6c0.1-0.2,0.1-0.6,0.1-1v-2.7h0.9v5.1H160.3z M164,133.5h-0.8v-7.1h0.9v2.5c0.4-0.5,0.8-0.7,1.4-0.7
				c0.4,0,0.6,0.1,0.9,0.2s0.5,0.3,0.6,0.5c0.2,0.3,0.4,0.5,0.4,0.9c0.1,0.4,0.2,0.6,0.2,1.1c0,0.9-0.2,1.5-0.7,2
				c-0.4,0.5-0.9,0.7-1.5,0.7c-0.6,0-1.1-0.3-1.4-0.8V133.5z M164,130.9c0,0.6,0.1,1.1,0.2,1.4c0.3,0.4,0.6,0.6,1.2,0.6
				c0.4,0,0.7-0.1,0.9-0.5c0.3-0.4,0.4-0.8,0.4-1.4c0-0.7-0.1-1.2-0.4-1.5c-0.3-0.4-0.6-0.5-1-0.5c-0.4,0-0.7,0.2-1,0.5
				C164.2,129.8,164,130.2,164,130.9z M169.3,133.5v-7.1h0.9v7.1H169.3z M172.3,127.4v-0.9h0.9v0.9H172.3z M172.3,133.5v-5.1h0.9
				v5.1H172.3z M178.5,131.6l0.9,0.1c-0.1,0.6-0.3,1-0.7,1.4c-0.4,0.4-0.9,0.5-1.4,0.5c-0.6,0-1.2-0.2-1.7-0.7
				c-0.4-0.4-0.6-1.1-0.6-1.9c0-0.6,0.1-1.1,0.3-1.4c0.1-0.4,0.4-0.7,0.8-0.9c0.4-0.2,0.8-0.4,1.3-0.4s1,0.1,1.4,0.4
				c0.3,0.3,0.6,0.7,0.6,1.2l-0.9,0.1c-0.1-0.4-0.2-0.6-0.4-0.8c-0.2-0.2-0.4-0.3-0.7-0.3c-0.4,0-0.8,0.1-1.1,0.5
				c-0.3,0.3-0.4,0.8-0.4,1.5c0,0.6,0.1,1.2,0.4,1.4c0.3,0.4,0.6,0.5,1,0.5c0.4,0,0.6-0.1,0.9-0.3
				C178.3,132.4,178.4,132,178.5,131.6z M184.2,132.8c-0.4,0.3-0.6,0.5-0.9,0.6c-0.4,0.1-0.6,0.1-1,0.1c-0.6,0-1-0.1-1.3-0.4
				s-0.4-0.6-0.4-1.1c0-0.2,0-0.4,0.1-0.6c0.1-0.2,0.3-0.4,0.4-0.5c0.2-0.1,0.4-0.2,0.6-0.3c0.1-0.1,0.4-0.1,0.8-0.1
				c0.7-0.1,1.2-0.1,1.6-0.3c0-0.1,0-0.2,0-0.2c0-0.4-0.1-0.6-0.3-0.8c-0.2-0.1-0.6-0.3-1-0.3c-0.4,0-0.7,0.1-0.9,0.2
				c-0.2,0.1-0.4,0.4-0.4,0.8l-0.9-0.1c0.1-0.4,0.2-0.6,0.4-0.9c0.2-0.2,0.4-0.4,0.8-0.5c0.3-0.1,0.7-0.2,1.2-0.2s0.8,0.1,1.1,0.1
				c0.3,0.1,0.5,0.3,0.6,0.4c0.1,0.1,0.3,0.4,0.3,0.6c0.1,0.1,0.1,0.4,0.1,0.8v1.2c0,0.9,0,1.4,0.1,1.6c0,0.2,0.1,0.4,0.2,0.6h-0.9
				C184.2,133.3,184.2,133.1,184.2,132.8z M184.1,131c-0.4,0.1-0.8,0.2-1.4,0.3c-0.4,0.1-0.6,0.1-0.8,0.1c-0.1,0.1-0.3,0.2-0.4,0.3
				c-0.1,0.1-0.1,0.3-0.1,0.4c0,0.2,0.1,0.4,0.2,0.6c0.2,0.1,0.4,0.2,0.8,0.2c0.4,0,0.6-0.1,0.9-0.2c0.2-0.1,0.4-0.3,0.6-0.6
				c0.1-0.2,0.1-0.5,0.1-0.9V131z M188.9,132.8l0.1,0.7c-0.3,0.1-0.5,0.1-0.6,0.1c-0.4,0-0.6,0-0.8-0.1c-0.1-0.1-0.3-0.2-0.4-0.4
				c-0.1-0.2-0.1-0.5-0.1-1.1v-3h-0.6v-0.6h0.6v-1.3l0.9-0.5v1.8h0.9v0.6H188v3c0,0.3,0,0.4,0.1,0.5c0,0.1,0.1,0.1,0.1,0.1
				c0.1,0.1,0.1,0.1,0.3,0.1C188.6,132.8,188.7,132.8,188.9,132.8z M190.4,127.4v-0.9h0.9v0.9H190.4z M190.4,133.5v-5.1h0.9v5.1
				H190.4z M193,131c0-1,0.3-1.7,0.8-2.2c0.4-0.4,1-0.6,1.6-0.6c0.7,0,1.3,0.3,1.7,0.7c0.5,0.4,0.7,1.1,0.7,1.9
				c0,0.6-0.1,1.2-0.3,1.5c-0.2,0.4-0.5,0.7-0.9,0.9c-0.4,0.1-0.8,0.3-1.3,0.3c-0.7,0-1.3-0.2-1.7-0.7
				C193.2,132.5,193,131.8,193,131z M193.8,131c0,0.6,0.1,1.2,0.4,1.4c0.3,0.4,0.6,0.5,1.1,0.5s0.8-0.1,1.1-0.5
				c0.3-0.3,0.4-0.8,0.4-1.5c0-0.6-0.1-1.1-0.4-1.4c-0.3-0.3-0.6-0.5-1.1-0.5s-0.8,0.2-1.1,0.5C194,129.8,193.8,130.2,193.8,131z
				 M199.4,133.5v-5.1h0.8v0.7c0.4-0.6,0.9-0.9,1.7-0.9c0.3,0,0.6,0.1,0.9,0.2c0.2,0.1,0.4,0.2,0.6,0.4c0.1,0.1,0.2,0.4,0.3,0.6
				c0,0.1,0,0.4,0,0.8v3.2h-0.9v-3.1c0-0.4,0-0.6-0.1-0.8c-0.1-0.2-0.2-0.4-0.4-0.4c-0.2-0.1-0.4-0.1-0.6-0.1
				c-0.4,0-0.6,0.1-0.9,0.4c-0.3,0.2-0.4,0.6-0.4,1.3v2.8H199.4z M205.3,132l0.9-0.1c0,0.4,0.1,0.6,0.4,0.8c0.2,0.2,0.6,0.3,0.9,0.3
				c0.4,0,0.7-0.1,0.9-0.2c0.1-0.2,0.3-0.4,0.3-0.6c0-0.2-0.1-0.4-0.3-0.5c-0.1-0.1-0.4-0.1-0.9-0.3c-0.6-0.1-1.1-0.3-1.4-0.4
				c-0.2-0.1-0.4-0.3-0.6-0.5c-0.1-0.1-0.1-0.4-0.1-0.6c0-0.2,0-0.4,0.1-0.6c0.1-0.2,0.2-0.4,0.4-0.5c0.1-0.1,0.3-0.1,0.5-0.2
				c0.3-0.1,0.5-0.1,0.8-0.1c0.4,0,0.7,0.1,1.1,0.2c0.3,0.1,0.5,0.3,0.6,0.4c0.1,0.2,0.2,0.5,0.3,0.8l-0.9,0.1
				c0-0.3-0.1-0.5-0.3-0.6c-0.2-0.1-0.5-0.2-0.8-0.2c-0.4,0-0.7,0.1-0.9,0.2s-0.3,0.3-0.3,0.4s0.1,0.2,0.1,0.4
				c0.1,0.1,0.1,0.1,0.3,0.2c0.1,0,0.4,0.1,0.8,0.2c0.6,0.1,1.1,0.3,1.3,0.4c0.2,0.1,0.4,0.2,0.6,0.4c0.1,0.2,0.2,0.4,0.2,0.7
				c0,0.3-0.1,0.6-0.3,0.9c-0.1,0.2-0.4,0.4-0.7,0.6c-0.3,0.1-0.6,0.2-1.1,0.2c-0.6,0-1.2-0.1-1.5-0.4
				C205.6,132.9,205.4,132.5,205.3,132z M214.1,133.5v-7.1h0.9v6.3h3.5v0.8H214.1z M222.1,132.8l0.1,0.7c-0.2,0.1-0.5,0.1-0.6,0.1
				c-0.4,0-0.6,0-0.7-0.1c-0.2-0.1-0.4-0.2-0.4-0.4c-0.1-0.2-0.1-0.5-0.1-1.1v-3h-0.6v-0.6h0.6v-1.3l0.9-0.5v1.8h0.9v0.6h-0.9v3
				c0,0.3,0,0.4,0.1,0.5c0,0.1,0.1,0.1,0.1,0.1c0.1,0.1,0.1,0.1,0.3,0.1C221.8,132.8,222,132.8,222.1,132.8z M227,133.5v-0.6
				c-0.4,0.5-0.8,0.8-1.4,0.8c-0.4,0-0.8-0.1-1.2-0.4c-0.4-0.2-0.6-0.5-0.8-0.9c-0.2-0.4-0.3-0.9-0.3-1.4c0-0.5,0.1-1,0.3-1.4
				c0.1-0.4,0.4-0.7,0.7-0.9c0.4-0.2,0.7-0.4,1.2-0.4c0.4,0,0.6,0.1,0.9,0.2c0.2,0.1,0.4,0.3,0.6,0.5v-2.5h0.9v7.1H227z M224.2,131
				c0,0.6,0.1,1.2,0.4,1.4c0.3,0.4,0.6,0.5,1,0.5c0.4,0,0.7-0.1,0.9-0.5c0.3-0.3,0.4-0.7,0.4-1.4c0-0.7-0.1-1.2-0.4-1.6
				c-0.2-0.3-0.6-0.5-1-0.5c-0.4,0-0.7,0.2-0.9,0.5C224.3,129.7,224.2,130.2,224.2,131z"/>
			<path class="st1" d="M76.9,114.6v-12.9h2.6l3,9.1c0.3,0.9,0.5,1.5,0.6,1.9c0.1-0.5,0.4-1.2,0.6-2.1l3.1-9h2.3v12.9h-1.7v-10.7
				l-3.7,10.7h-1.5l-3.7-10.9v10.9H76.9z"/>
			<path id="_x31_" class="st1" d="M97.8,113.5c-0.6,0.5-1.2,0.9-1.7,1.1c-0.6,0.2-1.2,0.3-1.8,0.3c-1,0-1.8-0.2-2.4-0.7
				c-0.5-0.5-0.8-1.2-0.8-1.9c0-0.4,0.1-0.9,0.3-1.2c0.2-0.4,0.5-0.7,0.9-0.9c0.3-0.2,0.7-0.4,1.1-0.5c0.4-0.1,0.8-0.1,1.4-0.2
				c1.3-0.1,2.2-0.4,2.8-0.6c0-0.2,0-0.4,0-0.4c0-0.6-0.1-1.1-0.4-1.3c-0.4-0.4-1-0.6-1.8-0.6c-0.7,0-1.3,0.1-1.7,0.4
				c-0.4,0.2-0.6,0.7-0.8,1.4l-1.5-0.2c0.1-0.6,0.4-1.2,0.6-1.6c0.4-0.4,0.8-0.7,1.4-1c0.6-0.2,1.3-0.3,2.1-0.3s1.4,0.1,1.9,0.3
				c0.5,0.1,0.9,0.4,1.2,0.7c0.2,0.3,0.4,0.6,0.5,1.1c0,0.2,0.1,0.7,0.1,1.4v2.1c0,1.4,0,2.4,0.1,2.8c0.1,0.4,0.2,0.7,0.4,1.1h-1.7
				C98,114.3,97.9,113.9,97.8,113.5z M97.7,109.9c-0.6,0.3-1.4,0.4-2.6,0.6c-0.6,0.1-1.1,0.1-1.4,0.3s-0.4,0.3-0.6,0.5
				c-0.2,0.2-0.3,0.5-0.3,0.7c0,0.4,0.2,0.8,0.5,1.1c0.4,0.3,0.8,0.4,1.4,0.4c0.6,0,1.2-0.1,1.6-0.4c0.5-0.2,0.9-0.6,1.1-1.1
				c0.1-0.4,0.2-0.9,0.2-1.6V109.9z"/>
			<path id="_x32_" class="st1" d="M105.2,113.3l0.2,1.4c-0.4,0.1-0.8,0.1-1.2,0.1c-0.6,0-1-0.1-1.4-0.3c-0.3-0.1-0.5-0.4-0.6-0.7
				s-0.2-0.9-0.2-1.9v-5.3h-1.2v-1.2h1.2V103l1.6-1v3.3h1.6v1.2h-1.6v5.5c0,0.4,0.1,0.7,0.1,0.9c0.1,0.1,0.1,0.2,0.3,0.3
				s0.3,0.1,0.6,0.1C104.7,113.3,104.9,113.3,105.2,113.3z"/>
			<path id="_x33_" class="st1" d="M113.1,111.6l1.7,0.2c-0.2,1-0.7,1.7-1.4,2.2c-0.6,0.5-1.6,0.8-2.7,0.8c-1.4,0-2.4-0.4-3.2-1.2
				c-0.8-0.9-1.2-2-1.2-3.5c0-1.6,0.4-2.8,1.2-3.7c0.9-0.9,1.9-1.3,3.2-1.3c1.2,0,2.3,0.4,3,1.3c0.8,0.8,1.2,2,1.2,3.5
				c0,0.1,0,0.3,0,0.4h-7c0.1,1,0.4,1.8,0.9,2.4c0.5,0.5,1.2,0.8,1.9,0.8c0.6,0,1.1-0.1,1.5-0.4
				C112.6,112.8,112.9,112.3,113.1,111.6z M107.9,109.1h5.3c-0.1-0.8-0.3-1.4-0.6-1.7c-0.5-0.6-1.2-0.9-1.9-0.9
				c-0.7,0-1.3,0.2-1.8,0.7C108.3,107.6,108,108.3,107.9,109.1z"/>
			<path id="_x34_" class="st1" d="M116.8,114.6v-9.3h1.4v1.4c0.4-0.6,0.7-1.1,1-1.3c0.4-0.2,0.6-0.3,1.1-0.3c0.5,0,1.1,0.1,1.6,0.5
				l-0.6,1.4c-0.4-0.2-0.7-0.3-1.2-0.3c-0.3,0-0.6,0.1-0.9,0.3c-0.3,0.2-0.5,0.5-0.6,0.9c-0.1,0.6-0.2,1.2-0.2,1.9v4.8H116.8z"/>
			<path id="_x35_" class="st1" d="M122.8,103.5v-1.8h1.6v1.8H122.8z M122.8,114.6v-9.3h1.6v9.3H122.8z"/>
			<path id="_x36_" class="st1" d="M132.9,113.5c-0.6,0.5-1.2,0.9-1.7,1.1c-0.6,0.2-1.2,0.3-1.7,0.3c-1.1,0-1.9-0.2-2.4-0.7
				c-0.6-0.5-0.9-1.2-0.9-1.9c0-0.4,0.1-0.9,0.4-1.2c0.2-0.4,0.4-0.7,0.8-0.9c0.4-0.2,0.7-0.4,1.2-0.5c0.3-0.1,0.8-0.1,1.4-0.2
				c1.3-0.1,2.2-0.4,2.9-0.6c0-0.2,0-0.4,0-0.4c0-0.6-0.1-1.1-0.4-1.3c-0.4-0.4-1-0.6-1.9-0.6c-0.7,0-1.3,0.1-1.7,0.4
				c-0.3,0.2-0.6,0.7-0.7,1.4l-1.6-0.2c0.1-0.6,0.4-1.2,0.7-1.6c0.3-0.4,0.8-0.7,1.4-1c0.6-0.2,1.4-0.3,2.2-0.3
				c0.8,0,1.4,0.1,1.9,0.3c0.5,0.1,0.9,0.4,1.1,0.7c0.2,0.3,0.4,0.6,0.5,1.1c0.1,0.2,0.1,0.7,0.1,1.4v2.1c0,1.4,0,2.4,0.1,2.8
				c0.1,0.4,0.2,0.7,0.4,1.1h-1.7C133.1,114.3,132.9,113.9,132.9,113.5z M132.8,109.9c-0.6,0.3-1.4,0.4-2.6,0.6
				c-0.6,0.1-1.2,0.1-1.4,0.3c-0.3,0.1-0.5,0.3-0.6,0.5s-0.2,0.5-0.2,0.7c0,0.4,0.1,0.8,0.4,1.1c0.4,0.3,0.8,0.4,1.4,0.4
				c0.6,0,1.2-0.1,1.7-0.4c0.4-0.2,0.8-0.6,1-1.1c0.1-0.4,0.3-0.9,0.3-1.6V109.9z"/>
			<polygon id="_x37_" class="st1" points="136.7,114.6 136.7,101.7 138.3,101.7 138.3,114.6 			"/>
			<path id="_x38_" class="st1" d="M140.2,111.9l1.5-0.3c0.1,0.6,0.4,1.1,0.8,1.4c0.4,0.4,0.9,0.5,1.7,0.5s1.3-0.1,1.7-0.4
				c0.3-0.3,0.5-0.6,0.5-1.1c0-0.3-0.1-0.6-0.5-0.8c-0.2-0.1-0.7-0.4-1.6-0.6c-1.2-0.3-1.9-0.5-2.4-0.7c-0.4-0.2-0.8-0.5-1-0.9
				c-0.2-0.4-0.4-0.8-0.4-1.2s0.1-0.8,0.3-1.2c0.2-0.4,0.5-0.6,0.8-0.9s0.6-0.4,1-0.5c0.4-0.1,0.9-0.1,1.4-0.1
				c0.7,0,1.4,0.1,1.9,0.3c0.5,0.2,0.9,0.5,1.2,0.9c0.2,0.4,0.4,0.9,0.5,1.4l-1.5,0.2c-0.1-0.4-0.3-0.9-0.6-1.1
				c-0.3-0.3-0.8-0.4-1.4-0.4c-0.7,0-1.3,0.1-1.6,0.4s-0.4,0.5-0.4,0.9c0,0.1,0,0.4,0.1,0.5c0.1,0.2,0.4,0.4,0.6,0.4
				c0.1,0.1,0.6,0.2,1.4,0.4c1.2,0.3,1.9,0.5,2.4,0.7c0.4,0.2,0.8,0.4,1,0.8c0.3,0.4,0.4,0.9,0.4,1.4s-0.1,1-0.4,1.5
				c-0.3,0.4-0.8,0.8-1.4,1.1c-0.6,0.2-1.2,0.4-1.9,0.4c-1.2,0-2.2-0.2-2.7-0.7C140.8,113.6,140.3,112.8,140.2,111.9z"/>
			<path id="_x39_" class="st1" d="M154.4,110.5l1.6-0.1c0.1,0.6,0.3,1.2,0.5,1.6c0.3,0.4,0.7,0.7,1.3,1c0.6,0.3,1.3,0.4,2,0.4
				c0.6,0,1.2-0.1,1.7-0.3c0.5-0.1,0.9-0.4,1.1-0.8c0.3-0.4,0.4-0.7,0.4-1.1c0-0.4-0.1-0.8-0.4-1.1c-0.2-0.3-0.6-0.5-1.2-0.7
				c-0.3-0.1-1.1-0.4-2.3-0.6c-1.2-0.3-2-0.6-2.4-0.8c-0.6-0.4-1.1-0.7-1.4-1.2c-0.3-0.5-0.4-1-0.4-1.6c0-0.6,0.1-1.3,0.5-1.9
				c0.4-0.5,0.9-0.9,1.7-1.3c0.7-0.3,1.5-0.4,2.4-0.4c0.9,0,1.8,0.1,2.5,0.5c0.7,0.3,1.3,0.7,1.7,1.4c0.4,0.6,0.6,1.2,0.6,2
				l-1.7,0.1c-0.1-0.9-0.4-1.4-0.9-1.9c-0.5-0.4-1.3-0.6-2.3-0.6s-1.7,0.2-2.2,0.6c-0.4,0.4-0.7,0.9-0.7,1.4s0.2,0.9,0.5,1.2
				c0.4,0.3,1.2,0.6,2.6,0.9s2.3,0.6,2.9,0.8c0.7,0.4,1.3,0.8,1.7,1.3c0.4,0.6,0.5,1.2,0.5,1.9c0,0.6-0.2,1.3-0.6,1.9
				c-0.4,0.6-0.9,1.1-1.7,1.4c-0.7,0.4-1.5,0.5-2.4,0.5c-1.2,0-2.2-0.1-3-0.5c-0.8-0.3-1.4-0.9-1.8-1.5
				C154.7,112.2,154.4,111.4,154.4,110.5z"/>
			<path id="_x31_0" class="st1" d="M172.9,111.2l1.6,0.2c-0.2,1.1-0.6,1.9-1.3,2.5c-0.7,0.6-1.6,0.9-2.6,0.9
				c-1.3,0-2.3-0.4-3.1-1.2c-0.8-0.9-1.2-2-1.2-3.6c0-1,0.1-1.9,0.5-2.7c0.4-0.7,0.9-1.3,1.5-1.7c0.7-0.4,1.4-0.6,2.2-0.6
				c1,0,1.9,0.2,2.5,0.8c0.6,0.5,1,1.2,1.2,2.2l-1.5,0.2c-0.1-0.6-0.4-1.1-0.8-1.4c-0.4-0.3-0.9-0.4-1.4-0.4c-0.8,0-1.4,0.3-1.9,0.9
				c-0.5,0.6-0.7,1.4-0.7,2.7c0,1.3,0.2,2.2,0.7,2.7c0.4,0.6,1.1,0.9,1.9,0.9c0.6,0,1.2-0.2,1.5-0.6
				C172.5,112.6,172.8,112,172.9,111.2z"/>
			<path id="_x31_1" class="st1" d="M175.8,103.5v-1.8h1.6v1.8H175.8z M175.8,114.6v-9.3h1.6v9.3H175.8z"/>
			<path id="_x31_2" class="st1" d="M186.2,111.6l1.6,0.2c-0.2,1-0.7,1.7-1.4,2.2c-0.7,0.5-1.6,0.8-2.7,0.8c-1.3,0-2.4-0.4-3.2-1.2
				c-0.8-0.9-1.2-2-1.2-3.5c0-1.6,0.4-2.8,1.2-3.7c0.8-0.9,1.8-1.3,3.1-1.3c1.3,0,2.3,0.4,3.1,1.3c0.8,0.8,1.2,2,1.2,3.5
				c0,0.1,0,0.3,0,0.4h-7c0.1,1,0.4,1.8,0.9,2.4c0.6,0.5,1.2,0.8,1.9,0.8c0.6,0,1.1-0.1,1.5-0.4
				C185.6,112.8,185.9,112.3,186.2,111.6z M181,109.1h5.2c-0.1-0.8-0.3-1.4-0.6-1.7c-0.5-0.6-1.2-0.9-2-0.9c-0.7,0-1.3,0.2-1.8,0.7
				C181.3,107.6,181,108.3,181,109.1z"/>
			<path id="_x31_3" class="st1" d="M189.8,114.6v-9.3h1.4v1.3c0.6-1,1.7-1.5,3-1.5c0.6,0,1.1,0.1,1.6,0.3c0.4,0.2,0.8,0.5,1,0.8
				c0.3,0.4,0.4,0.7,0.5,1.2c0.1,0.3,0.1,0.9,0.1,1.6v5.7h-1.6V109c0-0.6,0-1.2-0.1-1.5c-0.1-0.3-0.4-0.6-0.6-0.7
				c-0.4-0.2-0.7-0.3-1.2-0.3c-0.6,0-1.2,0.2-1.7,0.6c-0.4,0.4-0.7,1.2-0.7,2.4v5H189.8z"/>
			<path id="_x31_4" class="st1" d="M205.9,111.2l1.5,0.2c-0.1,1.1-0.6,1.9-1.3,2.5c-0.6,0.6-1.5,0.9-2.5,0.9
				c-1.3,0-2.3-0.4-3.1-1.2c-0.8-0.9-1.2-2-1.2-3.6c0-1,0.1-1.9,0.5-2.7c0.3-0.7,0.8-1.3,1.5-1.7c0.6-0.4,1.4-0.6,2.2-0.6
				c1,0,1.8,0.2,2.4,0.8c0.6,0.5,1.1,1.2,1.2,2.2l-1.5,0.2c-0.1-0.6-0.4-1.1-0.8-1.4c-0.4-0.3-0.8-0.4-1.3-0.4
				c-0.8,0-1.4,0.3-1.9,0.9c-0.5,0.6-0.8,1.4-0.8,2.7c0,1.3,0.3,2.2,0.7,2.7c0.5,0.6,1.2,0.9,1.9,0.9c0.6,0,1.2-0.2,1.6-0.6
				S205.8,112,205.9,111.2z"/>
			<path id="_x31_5" class="st1" d="M215.2,111.6l1.6,0.2c-0.2,1-0.7,1.7-1.4,2.2c-0.7,0.5-1.6,0.8-2.7,0.8c-1.4,0-2.4-0.4-3.2-1.2
				c-0.9-0.9-1.2-2-1.2-3.5c0-1.6,0.4-2.8,1.2-3.7c0.8-0.9,1.8-1.3,3.1-1.3s2.3,0.4,3.1,1.3c0.8,0.8,1.2,2,1.2,3.5
				c0,0.1,0,0.3,0,0.4h-7c0.1,1,0.4,1.8,0.9,2.4c0.5,0.5,1.2,0.8,1.9,0.8c0.6,0,1-0.1,1.4-0.4C214.6,112.8,214.9,112.3,215.2,111.6z
				 M210,109.1h5.2c-0.1-0.8-0.3-1.4-0.6-1.7c-0.5-0.6-1.2-0.9-2-0.9c-0.7,0-1.3,0.2-1.8,0.7S210,108.3,210,109.1z"/>
			<polygon id="_x31_6" class="st1" points="224.1,114.6 224.1,101.7 232.8,101.7 232.8,103.2 225.8,103.2 225.8,107.3 231.8,107.3 
				231.8,108.8 225.8,108.8 225.8,114.6 			"/>
			<path id="_x31_7" class="st1" d="M234.2,109.9c0-1.7,0.5-3,1.4-3.8c0.8-0.6,1.8-1,3-1c1.3,0,2.3,0.4,3.2,1.2
				c0.8,0.9,1.2,2,1.2,3.5c0,1.2-0.2,2.1-0.6,2.8c-0.4,0.6-0.9,1.2-1.6,1.6c-0.6,0.4-1.4,0.6-2.2,0.6c-1.3,0-2.4-0.4-3.2-1.2
				C234.6,112.8,234.2,111.5,234.2,109.9z M235.9,110c0,1.2,0.2,2.1,0.8,2.7c0.5,0.6,1.2,0.9,1.9,0.9s1.4-0.3,1.9-0.9
				c0.6-0.6,0.8-1.5,0.8-2.7c0-1.2-0.3-2-0.8-2.7c-0.5-0.6-1.2-0.9-1.9-0.9s-1.4,0.3-1.9,0.9C236.1,107.9,235.9,108.8,235.9,110z"/>
			<path id="_x31_8" class="st1" d="M244.8,114.6v-9.3h1.4v1.4c0.4-0.6,0.7-1.1,1-1.3s0.6-0.3,1-0.3c0.5,0,1.1,0.1,1.7,0.5l-0.6,1.4
				c-0.4-0.2-0.8-0.3-1.2-0.3c-0.4,0-0.6,0.1-0.9,0.3s-0.5,0.5-0.6,0.9c-0.2,0.6-0.3,1.2-0.3,1.9v4.8H244.8z"/>
			<path id="_x31_9" class="st1" d="M256.9,114.6v-1.4c-0.7,1.1-1.7,1.6-3,1.6c-0.5,0-1-0.1-1.5-0.3c-0.5-0.2-0.9-0.5-1.1-0.8
				c-0.2-0.4-0.4-0.7-0.4-1.2c-0.1-0.3-0.1-0.8-0.1-1.4v-5.8h1.6v5.1c0,0.9,0.1,1.4,0.1,1.7c0.1,0.4,0.3,0.7,0.6,0.9
				c0.4,0.2,0.7,0.4,1.2,0.4c0.4,0,0.9-0.1,1.3-0.4c0.4-0.2,0.7-0.6,0.9-1c0.1-0.4,0.2-1,0.2-1.8v-5h1.6v9.3H256.9z"/>
			<path id="_x32_0" class="st1" d="M260.9,114.6v-9.3h1.4v1.3c0.4-0.4,0.7-0.9,1.2-1.1c0.4-0.3,1-0.4,1.7-0.4
				c0.6,0,1.2,0.1,1.7,0.4c0.4,0.3,0.8,0.6,0.9,1.2c0.8-1.2,1.7-1.7,2.9-1.7c0.9,0,1.7,0.2,2.2,0.8c0.5,0.5,0.8,1.3,0.8,2.3v6.4
				h-1.6v-5.8c0-0.6-0.1-1.1-0.1-1.4c-0.1-0.3-0.3-0.5-0.6-0.7c-0.3-0.1-0.6-0.2-0.9-0.2c-0.7,0-1.2,0.2-1.7,0.6
				c-0.4,0.4-0.6,1.2-0.6,2.1v5.4h-1.6v-6c0-0.7-0.1-1.2-0.4-1.6c-0.2-0.4-0.6-0.5-1.2-0.5c-0.4,0-0.9,0.1-1.2,0.4
				c-0.4,0.2-0.6,0.6-0.9,1c-0.1,0.4-0.2,1.1-0.2,1.9v4.8H260.9z"/>
			<polygon class="st1" points="68.9,96.4 68.9,137.4 67.5,137.4 67.5,96.4 			"/>
			<polygon class="st1" points="281.2,122 68.2,122 68.2,120.5 281.2,120.5 			"/>
		</g>
	</g>
</g>
</svg>
