<svg id="Layer_2" data-name="Layer 2" xmlns="http://www.w3.org/2000/svg" viewBox="0 0 507.41 153.7"><defs><style>.cls-1,.cls-3,.cls-5{fill:#2c6489;}.cls-2{fill:#ca2a2a;}.cls-3{font-size:31.63px;}.cls-3,.cls-5{font-family:Arial-BoldMT, Arial;font-weight:700;}.cls-4{letter-spacing:-0.07em;}.cls-5{font-size:13.08px;}.cls-6{font-size:26.4px;fill:#474747;font-family:ArialMT, Arial;}</style></defs><title>ttp-logo</title><polygon class="cls-1" points="75.93 34 2 34 2 56.27 27.83 56.27 27.83 113.1 50.1 113.1 50.1 56.27 75.93 56.27 75.93 34"/><polygon class="cls-1" points="155.6 34 81.67 34 81.67 56.27 107.5 56.27 107.5 113.1 129.77 113.1 129.77 56.27 155.6 56.27 155.6 34"/><path class="cls-2" d="M228.49,0H2V22.27H219.43a8.5,8.5,0,0,1,8.5,8.51v3.73a8.5,8.5,0,0,1-8.5,8.5h-35.8a22.27,22.27,0,0,0-22.27,22.28V113.1h22.27V73.79a8.5,8.5,0,0,1,8.51-8.5h36.35A22.28,22.28,0,0,0,250.76,43h0V22.28h0A22.27,22.27,0,0,0,228.49,0Z" transform="translate(0 0)"/><text class="cls-3" transform="translate(261.75 44.33) scale(0.93 1)">TRANS<tspan x="0" y="35">TECH</tspan><tspan class="cls-2"><tspan x="0" y="70">PUBLIC</tspan><tspan class="cls-4" x="117.73" y="70">A</tspan><tspan x="138.23" y="70">TIONS</tspan></tspan></text><text class="cls-5" transform="translate(483.08 115.07) scale(0.93 1)">INC.</text><text class="cls-6" transform="translate(0 145.13) scale(0.98 1)">Materials Science &amp; Engineering</text></svg>