<?xml version="1.0" encoding="UTF-8" standalone="no"?>
<!-- Creator: CorelDRAW X7 -->

<svg
   xmlns:dc="http://purl.org/dc/elements/1.1/"
   xmlns:cc="http://creativecommons.org/ns#"
   xmlns:rdf="http://www.w3.org/1999/02/22-rdf-syntax-ns#"
   xmlns:svg="http://www.w3.org/2000/svg"
   xmlns="http://www.w3.org/2000/svg"
   xmlns:sodipodi="http://sodipodi.sourceforge.net/DTD/sodipodi-0.dtd"
   xmlns:inkscape="http://www.inkscape.org/namespaces/inkscape"
   xml:space="preserve"
   width="464.92099"
   height="311.80301"
   version="1.1"
   style="clip-rule:evenodd;fill-rule:evenodd;image-rendering:optimizeQuality;shape-rendering:geometricPrecision;text-rendering:geometricPrecision"
   viewBox="0 0 4842.8899 3247.9995"
   id="svg19"
   sodipodi:docname="e3s.svg"
   inkscape:version="0.92.4 (5da689c313, 2019-01-14)"><metadata
   id="metadata23"><rdf:RDF><cc:Work
       rdf:about=""><dc:format>image/svg+xml</dc:format><dc:type
         rdf:resource="http://purl.org/dc/dcmitype/StillImage" /><dc:title></dc:title></cc:Work></rdf:RDF></metadata><sodipodi:namedview
   pagecolor="#ffffff"
   bordercolor="#666666"
   borderopacity="1"
   objecttolerance="10"
   gridtolerance="10"
   guidetolerance="10"
   inkscape:pageopacity="0"
   inkscape:pageshadow="2"
   inkscape:window-width="1600"
   inkscape:window-height="847"
   id="namedview21"
   showgrid="false"
   units="px"
   inkscape:zoom="0.12927914"
   inkscape:cx="-331.67638"
   inkscape:cy="912.75357"
   inkscape:window-x="-8"
   inkscape:window-y="-8"
   inkscape:window-maximized="1"
   inkscape:current-layer="svg19" />
 <defs
   id="defs4">
  <style
   type="text/css"
   id="style2">
   <![CDATA[
    .fil1 {fill:#FEFEFE}
    .fil0 {fill:#EB5E00}
    .fil2 {fill:#EB5E00;fill-rule:nonzero}
   ]]>
  </style>
 </defs>
 <g
   id="Layer_x0020_1"
   transform="translate(-1486.055,-9682.0003)">
  <metadata
   id="CorelCorpID_0Corel-Layer" />
  <g
   id="_1848508970096">
   <rect
   class="fil0"
   x="1486"
   y="9682"
   width="4843"
   height="3248"
   id="rect7"
   style="fill:#eb5e00" />
   <g
   id="g15">
    <path
   class="fil1"
   d="m 2344,11010 h 3126 c 45,0 81,37 81,81 v 429 c 0,44 -36,81 -81,81 H 2344 c -45,0 -81,-37 -81,-81 v -429 c 0,-44 36,-81 81,-81 z"
   id="path9"
   inkscape:connector-curvature="0"
   style="fill:#fefefe" />
    <path
   class="fil2"
   d="m 2399,11185 h 132 v 45 h -86 v 43 h 86 v 45 h -86 v 63 h 86 v 46 h -132 z m 211,59 h -44 c 2,-18 9,-32 19,-43 15,-15 33,-22 55,-22 20,0 37,6 50,18 14,13 20,28 20,45 0,11 -3,21 -8,30 -6,9 -15,16 -26,22 15,4 26,12 34,22 9,11 13,24 13,39 0,22 -8,40 -24,55 -16,15 -37,23 -61,23 -24,0 -43,-7 -58,-22 -14,-14 -23,-33 -24,-58 h 46 c 2,13 6,22 13,28 6,6 15,10 25,10 11,0 20,-4 27,-11 7,-7 10,-15 10,-25 0,-11 -4,-20 -14,-28 -9,-8 -23,-11 -41,-12 v -39 c 11,-1 19,-3 25,-5 5,-3 9,-6 12,-11 3,-4 5,-9 5,-14 0,-7 -2,-12 -7,-17 -5,-4 -11,-6 -18,-6 -7,0 -13,2 -18,6 -5,4 -9,9 -11,15 z m 279,-26 -34,30 c -12,-17 -24,-25 -36,-25 -6,0 -11,1 -15,5 -4,3 -6,6 -6,10 0,5 1,8 4,12 4,5 15,15 34,31 18,15 28,24 32,28 9,9 16,18 20,27 4,9 6,18 6,28 0,20 -7,36 -21,49 -14,13 -32,20 -54,20 -17,0 -32,-5 -45,-13 -12,-8 -23,-22 -33,-40 l 39,-23 c 12,21 25,32 40,32 8,0 15,-2 20,-7 6,-5 9,-10 9,-16 0,-5 -2,-11 -7,-16 -4,-6 -13,-14 -26,-26 -27,-21 -44,-38 -52,-49 -7,-12 -11,-24 -11,-35 0,-17 6,-31 19,-43 13,-12 29,-18 47,-18 12,0 24,2 35,8 11,6 23,16 35,31 z"
   id="path11"
   inkscape:connector-curvature="0"
   style="fill:#eb5e00;fill-rule:nonzero" />
    <path
   class="fil2"
   d="m 3073,11222 h 18 l 35,123 49,-123 h 3 l 48,123 36,-123 h 17 l -49,170 h -3 l -50,-129 -52,129 h -3 z m 342,129 14,7 c -5,9 -10,16 -16,21 -6,5 -13,10 -20,12 -7,3 -16,5 -25,5 -21,0 -37,-7 -48,-21 -12,-13 -18,-28 -18,-45 0,-16 5,-30 15,-43 12,-16 29,-24 50,-24 22,0 39,8 52,25 9,11 14,25 14,43 h -114 c 0,14 5,26 14,36 9,9 20,14 34,14 6,0 12,-2 18,-4 6,-2 12,-5 16,-9 4,-3 9,-9 14,-17 z m 0,-34 c -2,-9 -5,-16 -10,-21 -4,-5 -9,-9 -16,-13 -7,-3 -14,-4 -22,-4 -12,0 -23,4 -32,12 -6,5 -11,14 -15,26 z m 49,75 v -174 h 16 v 70 c 7,-8 14,-14 23,-19 8,-4 18,-6 28,-6 17,0 33,7 45,20 13,13 19,28 19,47 0,18 -6,33 -19,46 -13,13 -28,20 -46,20 -10,0 -19,-3 -28,-7 -8,-4 -16,-11 -22,-20 v 23 z m 65,-12 c 9,0 17,-2 25,-7 8,-4 14,-10 18,-18 5,-8 7,-17 7,-26 0,-9 -2,-17 -7,-25 -4,-8 -11,-15 -18,-19 -8,-5 -16,-7 -25,-7 -9,0 -17,2 -25,7 -8,4 -14,10 -19,18 -4,8 -6,16 -6,26 0,14 5,26 14,36 10,10 22,15 36,15 z m 221,-117 c 20,0 36,7 49,21 11,13 17,28 17,46 0,17 -6,33 -18,46 -13,13 -28,20 -48,20 -19,0 -35,-7 -47,-20 -13,-13 -19,-29 -19,-46 0,-18 6,-33 18,-46 13,-14 29,-21 48,-21 z m 0,16 c -13,0 -25,5 -34,15 -10,10 -15,22 -15,36 0,9 2,18 7,25 4,8 10,14 18,19 7,4 15,6 24,6 9,0 18,-2 25,-6 8,-5 14,-11 18,-19 4,-7 7,-16 7,-25 0,-14 -5,-26 -15,-36 -10,-10 -21,-15 -35,-15 z m 148,-61 v 16 c -6,-3 -11,-4 -15,-4 -3,0 -6,0 -8,2 -2,1 -3,2 -4,4 0,2 -1,6 -1,13 v 17 h 27 v 14 h -27 v 112 h -16 v -112 h -17 v -14 h 17 v -19 c 0,-9 1,-16 2,-20 2,-4 5,-7 9,-9 4,-2 9,-4 14,-4 6,0 12,2 19,4 z m 250,35 -13,11 c -8,-10 -17,-17 -27,-22 -11,-5 -22,-8 -34,-8 -14,0 -27,3 -38,10 -12,7 -21,15 -27,26 -6,11 -10,24 -10,38 0,20 7,38 22,52 14,14 32,21 54,21 24,0 44,-10 60,-28 l 13,10 c -8,11 -19,19 -32,25 -12,6 -27,9 -42,9 -30,0 -54,-10 -71,-30 -14,-17 -22,-37 -22,-61 0,-25 9,-46 27,-63 17,-17 39,-25 65,-25 16,0 31,3 43,9 13,6 24,15 32,26 z m 91,10 c 20,0 36,7 49,21 12,13 17,28 17,46 0,17 -6,33 -18,46 -12,13 -28,20 -48,20 -19,0 -35,-7 -47,-20 -12,-13 -19,-29 -19,-46 0,-18 6,-33 18,-46 13,-14 29,-21 48,-21 z m 0,16 c -13,0 -25,5 -34,15 -10,10 -15,22 -15,36 0,9 2,18 7,25 4,8 10,14 18,19 7,4 15,6 24,6 9,0 18,-2 25,-6 8,-5 14,-11 18,-19 4,-7 7,-16 7,-25 0,-14 -5,-26 -15,-36 -10,-10 -21,-15 -35,-15 z m 96,-13 h 16 v 23 c 7,-9 14,-15 22,-19 8,-5 17,-7 26,-7 9,0 18,3 25,7 7,5 13,12 16,20 4,8 5,20 5,38 v 64 h -16 v -60 c 0,-14 0,-24 -2,-29 -2,-8 -5,-14 -11,-19 -5,-4 -12,-6 -20,-6 -10,0 -19,3 -27,10 -8,6 -13,14 -15,24 -2,6 -3,18 -3,34 v 46 h -16 z m 197,-48 v 16 c -6,-3 -11,-4 -15,-4 -3,0 -6,0 -8,2 -2,1 -3,2 -4,4 0,2 -1,6 -1,13 v 17 h 27 v 14 h -27 v 112 h -16 v -112 h -17 v -14 h 17 v -19 c 0,-9 1,-16 2,-20 2,-4 5,-7 9,-9 4,-2 9,-4 14,-4 6,0 12,2 19,4 z m 129,133 14,7 c -5,9 -10,16 -16,21 -6,5 -12,10 -20,12 -7,3 -15,5 -25,5 -20,0 -36,-7 -48,-21 -12,-13 -17,-28 -17,-45 0,-16 5,-30 14,-43 13,-16 30,-24 51,-24 21,0 38,8 51,25 9,11 14,25 14,43 h -114 c 1,14 5,26 14,36 9,9 21,14 34,14 6,0 13,-2 19,-4 6,-2 11,-5 15,-9 5,-3 9,-9 14,-17 z m 0,-34 c -2,-9 -5,-16 -9,-21 -4,-5 -10,-9 -17,-13 -6,-3 -14,-4 -21,-4 -13,0 -23,4 -32,12 -7,5 -12,14 -15,26 z m 42,-51 h 17 v 19 c 5,-8 10,-13 15,-17 6,-3 12,-5 17,-5 5,0 10,2 15,4 l -9,14 c -3,-1 -6,-2 -8,-2 -6,0 -11,2 -16,7 -5,4 -9,11 -11,20 -2,7 -3,22 -3,44 v 42 h -17 z m 184,85 14,7 c -5,9 -10,16 -16,21 -6,5 -12,10 -20,12 -7,3 -15,5 -25,5 -20,0 -36,-7 -48,-21 -12,-13 -18,-28 -18,-45 0,-16 5,-30 15,-43 13,-16 29,-24 50,-24 22,0 39,8 52,25 9,11 14,25 14,43 h -114 c 0,14 5,26 14,36 9,9 21,14 34,14 6,0 13,-2 19,-4 6,-2 11,-5 15,-9 5,-3 9,-9 14,-17 z m 0,-34 c -2,-9 -5,-16 -9,-21 -4,-5 -10,-9 -17,-13 -7,-3 -14,-4 -21,-4 -13,0 -24,4 -32,12 -7,5 -12,14 -15,26 z m 48,-51 h 16 v 23 c 7,-9 14,-15 22,-19 8,-5 16,-7 26,-7 9,0 17,3 25,7 7,5 13,12 16,20 4,8 5,20 5,38 v 64 h -16 v -60 c 0,-14 -1,-24 -2,-29 -2,-8 -5,-14 -11,-19 -5,-4 -12,-6 -21,-6 -10,0 -18,3 -26,10 -8,6 -13,14 -16,24 -1,6 -2,18 -2,34 v 46 h -16 z m 267,26 -12,8 c -12,-14 -27,-22 -46,-22 -16,0 -28,5 -39,15 -10,10 -15,22 -15,36 0,9 2,18 7,26 5,8 11,14 19,19 9,4 18,7 28,7 19,0 34,-8 46,-23 l 12,9 c -6,9 -14,16 -24,21 -10,5 -22,8 -35,8 -20,0 -36,-7 -50,-19 -13,-13 -19,-28 -19,-47 0,-12 3,-23 9,-34 6,-10 15,-18 25,-24 11,-6 23,-9 37,-9 8,0 16,1 24,4 8,3 14,6 20,10 5,4 10,9 13,15 z m 138,59 14,7 c -5,9 -10,16 -16,21 -6,5 -12,10 -20,12 -7,3 -15,5 -25,5 -20,0 -36,-7 -48,-21 -12,-13 -18,-28 -18,-45 0,-16 5,-30 15,-43 13,-16 29,-24 50,-24 22,0 39,8 52,25 9,11 14,25 14,43 h -114 c 0,14 5,26 14,36 9,9 21,14 34,14 6,0 13,-2 19,-4 6,-2 11,-5 15,-9 5,-3 9,-9 14,-17 z m 0,-34 c -2,-9 -5,-16 -9,-21 -4,-5 -10,-9 -17,-13 -7,-3 -14,-4 -21,-4 -13,0 -24,4 -32,12 -7,5 -12,14 -15,26 z m 112,-37 -11,11 c -8,-9 -17,-13 -25,-13 -5,0 -10,2 -14,5 -4,4 -5,8 -5,13 0,4 1,8 4,11 3,4 10,8 20,14 12,6 20,12 24,18 5,5 7,12 7,19 0,11 -4,20 -11,27 -8,7 -17,11 -28,11 -7,0 -14,-2 -20,-5 -7,-3 -13,-8 -17,-13 l 10,-12 c 9,9 17,14 27,14 6,0 12,-2 16,-6 5,-4 7,-9 7,-15 0,-4 -1,-9 -4,-12 -3,-4 -10,-8 -21,-14 -11,-6 -19,-11 -23,-17 -4,-6 -6,-12 -6,-20 0,-9 3,-17 10,-23 6,-7 15,-10 25,-10 11,0 23,6 35,17 z"
   id="path13"
   inkscape:connector-curvature="0"
   style="fill:#eb5e00;fill-rule:nonzero" />
   </g>
  </g>
 </g>
</svg>