<?xml version="1.0" encoding="UTF-8" standalone="no"?>
<!-- Creator: CorelDRAW X7 -->

<svg
   xmlns:dc="http://purl.org/dc/elements/1.1/"
   xmlns:cc="http://creativecommons.org/ns#"
   xmlns:rdf="http://www.w3.org/1999/02/22-rdf-syntax-ns#"
   xmlns:svg="http://www.w3.org/2000/svg"
   xmlns="http://www.w3.org/2000/svg"
   xmlns:sodipodi="http://sodipodi.sourceforge.net/DTD/sodipodi-0.dtd"
   xmlns:inkscape="http://www.inkscape.org/namespaces/inkscape"
   xml:space="preserve"
   width="464.92099"
   height="311.80301"
   version="1.1"
   style="clip-rule:evenodd;fill-rule:evenodd;image-rendering:optimizeQuality;shape-rendering:geometricPrecision;text-rendering:geometricPrecision"
   viewBox="0 0 4842.8898 3247.9995"
   id="svg21"
   sodipodi:docname="ieee.svg"
   inkscape:version="0.92.4 (5da689c313, 2019-01-14)"><metadata
   id="metadata25"><rdf:RDF><cc:Work
       rdf:about=""><dc:format>image/svg+xml</dc:format><dc:type
         rdf:resource="http://purl.org/dc/dcmitype/StillImage" /><dc:title></dc:title></cc:Work></rdf:RDF></metadata><sodipodi:namedview
   pagecolor="#ffffff"
   bordercolor="#666666"
   borderopacity="1"
   objecttolerance="10"
   gridtolerance="10"
   guidetolerance="10"
   inkscape:pageopacity="0"
   inkscape:pageshadow="2"
   inkscape:window-width="1600"
   inkscape:window-height="847"
   id="namedview23"
   showgrid="false"
   units="px"
   inkscape:zoom="0.12927914"
   inkscape:cx="-331.67638"
   inkscape:cy="912.75357"
   inkscape:window-x="-8"
   inkscape:window-y="-8"
   inkscape:window-maximized="1"
   inkscape:current-layer="svg21" />
 <defs
   id="defs4">
  <style
   type="text/css"
   id="style2">
   <![CDATA[
    .fil2 {fill:#FEFEFE}
    .fil0 {fill:#324388}
    .fil1 {fill:#FEFEFE;fill-rule:nonzero}
   ]]>
  </style>
 </defs>
 <g
   id="Layer_x0020_1"
   transform="translate(-1398.0551,-5345.0003)">
  <metadata
   id="CorelCorpID_0Corel-Layer" />
  <g
   id="_1848509316400">
   <rect
   class="fil0"
   x="1398"
   y="5345"
   width="4843"
   height="3248"
   id="rect7"
   style="fill:#324388" />
   <g
   id="g17">
    <path
   class="fil1"
   d="m 4476,6757 h 371 v 96 h -232 v 71 h 216 v 91 h -216 v 89 h 239 v 101 h -378 z m -414,-1 h 372 v 96 h -233 v 71 h 216 v 92 h -216 v 88 h 239 v 102 h -378 z m -414,0 h 372 v 96 h -233 v 71 h 216 v 92 h -216 v 88 h 240 v 102 h -379 z m -186,0 h 139 v 449 h -139 z"
   id="path9"
   inkscape:connector-curvature="0"
   style="fill:#fefefe;fill-rule:nonzero" />
    <path
   class="fil2"
   d="m 2943,7054 c 2,5 16,17 23,26 8,9 22,20 32,30 2,2 -1,1 2,1 4,1 12,8 14,11 2,2 4,4 6,5 l 11,8 c 8,8 13,12 23,19 10,7 16,15 29,18 7,1 6,0 10,-2 4,-1 5,-1 9,-3 7,-6 6,-3 13,-10 l 28,-20 c 5,-4 15,-12 19,-17 4,-5 14,-11 19,-16 3,-5 7,-8 12,-12 6,-6 16,-17 23,-24 2,-2 4,-4 6,-6 4,-4 9,-8 12,-12 1,-2 1,-2 3,-4 5,-4 9,-10 13,-15 l 21,-27 c 10,-14 28,-28 17,-48 -4,-8 -10,-14 -15,-21 -3,-5 -19,-25 -23,-30 l -11,-12 c -2,-3 -1,-2 -3,-3 -2,-2 -3,-4 -6,-7 -5,-4 -13,-12 -17,-18 -3,-5 -9,-7 -12,-11 -2,-3 -22,-23 -24,-24 l -48,-42 -11,-7 c -8,-5 -24,-23 -40,-14 -16,8 -38,26 -52,38 -2,2 -1,1 -3,3 -8,6 -19,13 -26,22 -2,2 -33,29 -36,34 -3,4 -9,9 -12,12 -2,2 -4,5 -5,7 -4,4 -9,7 -12,12 -1,2 -1,1 -3,3 l -5,7 c -2,3 -6,5 -9,8 l -21,27 c -1,2 -3,4 -5,7 -1,2 -3,4 -4,7 -11,19 3,36 14,48 8,9 14,18 22,27 1,1 1,2 3,3 l 5,7 c 4,4 12,9 14,15 z m 189,-130 c 2,7 4,14 7,21 2,8 10,-1 20,2 8,2 13,5 17,10 10,9 8,15 -2,24 -19,16 -76,23 -99,20 -17,-2 -52,-7 -64,-16 -2,-1 -6,-4 -7,-6 -7,-6 -5,-11 0,-18 7,-8 15,-11 25,-15 6,-2 14,-3 19,-6 l -10,-7 c -9,-7 -15,-13 -22,-11 -14,2 -24,7 -36,15 -4,2 -7,4 -10,6 -6,4 -5,3 -9,9 -5,8 -8,16 -2,26 5,7 11,12 19,15 5,2 8,3 12,6 7,3 32,9 40,10 37,7 73,6 111,0 4,-1 8,-3 13,-4 11,-2 16,-4 25,-9 11,-6 24,-15 23,-28 -1,-5 -3,-9 -5,-12 -3,-4 -14,-12 -20,-14 5,-3 5,-2 9,-3 z m -67,187 c 5,2 32,1 40,1 l -4,-92 h -32 z m -13,-206 h 22 l -3,90 h 28 l -3,-90 24,-1 c 0,-3 -33,-92 -35,-95 z"
   id="path11"
   inkscape:connector-curvature="0"
   style="fill:#fefefe" />
    <path
   class="fil2"
   d="m 3078,6750 c 14,-3 23,2 33,8 3,1 6,3 8,5 5,4 10,8 16,12 7,5 8,7 15,12 7,5 24,20 30,26 2,2 2,2 4,3 3,2 23,22 24,23 l 6,6 c 6,4 2,1 5,5 9,10 20,23 29,32 7,7 31,38 37,46 4,5 8,10 12,16 1,3 4,5 5,8 1,3 4,7 4,9 3,12 1,15 -4,23 0,1 -1,2 -2,4 -1,2 -2,3 -3,5 -1,3 -14,21 -16,24 -1,1 -2,2 -3,4 -2,1 -2,2 -4,4 -9,10 -16,20 -25,29 -3,2 -4,5 -6,7 l -27,28 c -5,5 -35,35 -43,40 -6,5 -6,6 -15,13 l -15,12 c -6,6 -23,19 -31,24 -3,2 -15,9 -18,9 -17,2 -20,-3 -28,-6 l -13,-8 c -4,-2 -2,-3 -8,-6 -11,-8 -11,-9 -22,-18 l -30,-26 -36,-33 c -5,-4 -10,-10 -14,-14 -2,-3 -4,-5 -6,-7 -11,-11 -8,-8 -17,-18 -6,-7 -10,-9 -17,-20 -6,-9 -10,-13 -16,-22 -3,-2 -4,-5 -6,-8 -5,-6 -14,-18 -16,-25 -4,-15 8,-32 14,-40 4,-6 7,-11 11,-17 3,-3 4,-4 7,-7 4,-5 14,-16 19,-22 5,-5 9,-9 14,-14 l 20,-21 c 2,-4 3,-3 7,-6 9,-7 19,-19 28,-27 l 14,-14 c 5,-4 10,-8 15,-12 7,-6 7,-5 15,-12 17,-15 16,-13 31,-24 3,-2 6,-4 9,-5 6,-4 1,-3 9,-5 z m 179,328 c 35,-35 79,-60 117,-92 11,-11 8,-7 10,-16 2,-5 0,-4 -2,-9 -4,-6 -7,-9 -14,-13 -1,-1 -1,-1 -2,-2 l -8,-5 c -3,-2 -5,-4 -7,-5 -9,-7 -18,-12 -25,-19 l -25,-20 c -3,-3 -6,-3 -10,-7 -6,-6 -11,-11 -18,-16 -4,-3 -10,-9 -14,-13 l -13,-13 -52,-52 c -9,-8 -14,-14 -21,-23 -4,-5 -8,-8 -12,-13 l -16,-19 c -2,-2 -2,-3 -4,-5 l -27,-35 c -1,-1 -2,-3 -3,-5 -3,-3 -4,-6 -7,-10 -2,-5 -9,-10 -15,-12 -5,-2 -9,1 -13,3 -3,3 -6,5 -8,9 l -11,15 c -5,7 -15,17 -19,24 -7,10 -16,20 -24,29 -2,2 -2,3 -4,5 -4,4 -8,8 -12,13 -3,4 -5,7 -8,10 l -13,13 c -8,8 -5,5 -13,13 l -8,10 c -7,7 -14,14 -22,21 -6,5 -11,12 -18,17 -10,7 -21,20 -32,29 -3,3 -3,3 -7,6 -5,2 -8,6 -12,9 -2,2 -3,3 -5,4 -2,1 -3,2 -5,4 l -25,19 c -12,9 -23,14 -35,26 -4,4 -9,9 -10,15 0,4 1,4 3,6 8,13 28,20 39,31 7,7 10,6 15,11 l 5,4 c 5,4 14,12 19,16 10,6 19,15 28,23 6,6 13,11 19,17 l 9,8 c 5,4 8,9 13,13 2,1 3,2 5,4 6,5 31,29 35,34 4,6 15,19 20,24 6,6 12,11 17,18 l 19,24 c 1,2 2,3 3,5 2,2 3,3 4,5 3,4 6,6 8,10 3,4 5,7 7,11 3,3 5,6 7,9 l 7,11 c 4,6 15,15 22,11 3,-1 15,-14 18,-17 5,-9 12,-17 18,-25 33,-49 89,-100 132,-143 z"
   id="path13"
   inkscape:connector-curvature="0"
   style="fill:#fefefe" />
    <path
   class="fil1"
   d="m 3208,7182 c 6,0 12,2 17,5 5,3 10,7 13,12 3,6 4,11 4,17 0,6 -1,12 -4,17 -3,5 -7,10 -13,13 -5,3 -11,4 -17,4 -6,0 -11,-1 -17,-4 -5,-3 -9,-8 -12,-13 -3,-5 -4,-11 -4,-17 0,-6 1,-11 4,-17 3,-5 7,-9 13,-12 5,-3 11,-5 16,-5 z m 0,7 c -4,0 -9,1 -13,3 -4,3 -8,6 -10,10 -3,5 -4,9 -4,14 0,5 1,9 4,14 2,4 6,7 10,10 4,2 9,3 13,3 5,0 10,-1 14,-3 4,-3 8,-6 10,-10 2,-5 4,-9 4,-14 0,-5 -2,-9 -4,-14 -3,-4 -6,-7 -10,-10 -4,-2 -9,-3 -14,-3 z m -15,45 v -36 h 7 c 7,0 11,0 12,0 2,1 4,1 5,2 2,1 3,2 4,3 1,2 1,4 1,5 0,3 -1,5 -2,7 -2,2 -4,3 -7,4 1,0 1,0 2,1 1,0 1,1 2,3 1,0 2,1 3,4 l 4,7 h -9 l -3,-6 c -2,-3 -3,-6 -5,-7 -1,-1 -3,-1 -5,-1 h -2 v 14 z m 7,-20 h 3 c 5,0 7,0 8,-1 1,0 2,0 3,-1 0,-1 0,-2 0,-3 0,-1 0,-2 0,-3 -1,-1 -2,-1 -3,-1 -1,-1 -4,-1 -8,-1 h -3 z"
   id="path15"
   inkscape:connector-curvature="0"
   style="fill:#fefefe;fill-rule:nonzero" />
   </g>
  </g>
 </g>
</svg>