<?xml version="1.0" encoding="UTF-8" standalone="no"?>
<!-- Creator: CorelDRAW X7 -->

<svg
   xmlns:dc="http://purl.org/dc/elements/1.1/"
   xmlns:cc="http://creativecommons.org/ns#"
   xmlns:rdf="http://www.w3.org/1999/02/22-rdf-syntax-ns#"
   xmlns:svg="http://www.w3.org/2000/svg"
   xmlns="http://www.w3.org/2000/svg"
   xmlns:sodipodi="http://sodipodi.sourceforge.net/DTD/sodipodi-0.dtd"
   xmlns:inkscape="http://www.inkscape.org/namespaces/inkscape"
   xml:space="preserve"
   width="464.92099"
   height="311.80301"
   version="1.1"
   style="clip-rule:evenodd;fill-rule:evenodd;image-rendering:optimizeQuality;shape-rendering:geometricPrecision;text-rendering:geometricPrecision"
   viewBox="0 0 4842.8898 3247.9995"
   id="svg41"
   sodipodi:docname="msf.svg"
   inkscape:version="0.92.4 (5da689c313, 2019-01-14)"><metadata
   id="metadata45"><rdf:RDF><cc:Work
       rdf:about=""><dc:format>image/svg+xml</dc:format><dc:type
         rdf:resource="http://purl.org/dc/dcmitype/StillImage" /><dc:title></dc:title></cc:Work></rdf:RDF></metadata><sodipodi:namedview
   pagecolor="#ffffff"
   bordercolor="#666666"
   borderopacity="1"
   objecttolerance="10"
   gridtolerance="10"
   guidetolerance="10"
   inkscape:pageopacity="0"
   inkscape:pageshadow="2"
   inkscape:window-width="1600"
   inkscape:window-height="847"
   id="namedview43"
   showgrid="false"
   units="px"
   inkscape:zoom="0.12927914"
   inkscape:cx="-331.67638"
   inkscape:cy="912.75357"
   inkscape:window-x="-8"
   inkscape:window-y="-8"
   inkscape:window-maximized="1"
   inkscape:current-layer="svg41" />
 <defs
   id="defs4">
  <style
   type="text/css"
   id="style2">
   <![CDATA[
    .fil0 {fill:#16456F}
    .fil1 {fill:#FEFEFE;fill-rule:nonzero}
   ]]>
  </style>
 </defs>
 <g
   id="Layer_x0020_1"
   transform="translate(-7126.0551,-13930)">
  <metadata
   id="CorelCorpID_0Corel-Layer" />
  <g
   id="_1848318594960">
   <rect
   class="fil0"
   x="7126"
   y="13930"
   width="4843"
   height="3248"
   id="rect7"
   style="fill:#16456f" />
   <g
   id="g37">
    <path
   class="fil1"
   d="m 8194,15784 v -98 h 37 c 8,0 14,1 19,3 4,2 8,5 10,9 3,4 4,8 4,13 0,4 -1,8 -3,12 -3,4 -6,7 -11,9 6,2 11,5 14,9 3,4 5,9 5,15 0,4 -1,9 -3,13 -2,4 -4,7 -7,9 -3,2 -7,4 -11,5 -4,1 -10,1 -16,1 z m 14,-57 h 21 c 6,0 10,0 12,-1 4,-1 6,-3 8,-5 2,-2 2,-5 2,-9 0,-3 0,-6 -2,-8 -2,-3 -4,-4 -7,-5 -3,-1 -8,-2 -15,-2 h -19 z m 0,46 h 24 c 4,0 7,0 9,-1 3,0 6,-1 8,-2 2,-2 3,-3 5,-6 1,-2 1,-5 1,-8 0,-4 0,-7 -2,-10 -2,-3 -5,-5 -8,-6 -4,-1 -8,-1 -15,-1 h -22 z m 86,39 -1,-11 c 2,0 5,1 7,1 2,0 5,-1 6,-2 2,-1 3,-2 4,-3 1,-2 2,-5 4,-9 0,-1 0,-2 1,-3 l -27,-72 h 13 l 15,41 c 2,5 3,11 5,17 1,-6 3,-11 5,-16 l 15,-42 h 12 l -27,73 c -3,7 -5,13 -7,16 -2,4 -4,7 -7,9 -3,1 -6,2 -10,2 -2,0 -5,0 -8,-1 z m 141,-28 v -87 h -32 v -11 h 78 v 11 h -32 v 87 z m 62,0 v -71 h 11 v 11 c 3,-5 5,-9 8,-10 2,-2 5,-3 7,-3 5,0 9,2 13,4 l -4,11 c -3,-1 -6,-2 -9,-2 -3,0 -5,1 -7,2 -2,2 -4,4 -5,7 -1,4 -2,9 -2,14 v 37 z m 102,-9 c -4,4 -9,7 -13,9 -4,1 -8,2 -13,2 -8,0 -14,-2 -18,-6 -5,-4 -7,-9 -7,-15 0,-3 1,-6 3,-9 1,-3 3,-5 6,-7 3,-2 5,-3 9,-4 2,-1 6,-1 11,-2 9,-1 17,-2 21,-4 0,-2 0,-3 0,-3 0,-5 -1,-9 -3,-11 -3,-2 -8,-4 -14,-4 -6,0 -10,1 -13,3 -2,2 -4,6 -6,11 l -12,-2 c 1,-5 3,-9 6,-12 2,-3 6,-5 10,-7 5,-2 11,-3 17,-3 6,0 11,1 15,2 3,2 6,4 8,6 2,2 3,5 4,8 0,2 1,6 1,11 v 16 c 0,12 0,19 0,22 1,3 2,6 3,8 h -12 c -2,-2 -2,-5 -3,-9 z m -1,-26 c -4,1 -11,3 -20,4 -5,1 -8,2 -10,2 -2,1 -4,3 -5,4 -1,2 -2,4 -2,6 0,3 2,6 4,8 2,2 6,3 11,3 4,0 9,-1 12,-3 4,-2 7,-4 8,-8 2,-3 2,-7 2,-12 z m 40,35 v -71 h 11 v 10 c 6,-8 13,-12 23,-12 4,0 8,1 12,3 4,1 6,3 8,6 2,2 3,5 4,9 0,2 1,6 1,11 v 44 h -13 v -43 c 0,-5 0,-9 -1,-11 -1,-3 -3,-5 -5,-6 -2,-2 -5,-2 -8,-2 -6,0 -10,1 -14,5 -4,3 -5,9 -5,18 v 39 z m 82,-21 12,-2 c 0,5 2,9 5,11 3,3 8,4 13,4 6,0 10,-1 13,-3 2,-3 4,-5 4,-8 0,-3 -2,-5 -4,-7 -2,-1 -6,-2 -12,-4 -9,-2 -15,-4 -19,-6 -3,-1 -6,-4 -8,-7 -1,-2 -2,-6 -2,-9 0,-3 0,-6 2,-9 1,-3 3,-5 6,-7 2,-1 4,-2 8,-3 3,-1 6,-2 10,-2 6,0 11,1 15,3 4,1 7,4 9,6 2,3 4,7 4,11 l -12,2 c 0,-4 -2,-7 -4,-9 -3,-2 -6,-3 -11,-3 -6,0 -10,1 -12,3 -2,2 -4,4 -4,6 0,2 1,3 2,5 1,1 2,2 5,3 1,0 4,1 10,3 9,2 15,4 18,6 4,1 6,3 8,6 2,3 3,6 3,10 0,4 -1,8 -3,12 -3,3 -6,6 -11,8 -4,2 -9,3 -15,3 -9,0 -16,-2 -21,-6 -5,-4 -8,-9 -9,-17 z m 145,21 v -87 h -32 v -11 h 78 v 11 h -33 v 87 z m 101,-23 12,2 c -2,7 -5,13 -11,17 -5,4 -12,6 -20,6 -11,0 -19,-3 -25,-10 -6,-6 -9,-15 -9,-27 0,-12 3,-21 9,-28 6,-6 14,-10 24,-10 10,0 17,4 23,10 7,7 10,16 10,27 0,1 0,2 -1,4 h -53 c 1,8 3,14 7,18 4,4 9,6 15,6 4,0 8,-1 11,-4 3,-2 6,-6 8,-11 z m -40,-19 h 40 c -1,-6 -2,-11 -5,-14 -4,-4 -9,-7 -15,-7 -5,0 -10,2 -14,6 -4,4 -6,9 -6,15 z m 124,16 11,2 c -1,8 -4,14 -10,19 -5,5 -12,7 -19,7 -10,0 -18,-3 -24,-10 -6,-6 -9,-15 -9,-27 0,-8 2,-15 4,-20 3,-6 6,-10 12,-13 5,-3 11,-5 17,-5 8,0 14,2 19,6 5,4 8,10 9,17 l -11,2 c -2,-5 -4,-9 -6,-11 -3,-3 -7,-4 -11,-4 -6,0 -11,2 -15,7 -3,4 -5,11 -5,21 0,9 1,16 5,20 4,5 9,7 15,7 4,0 8,-1 11,-4 4,-3 6,-8 7,-14 z m 31,26 v -98 h 12 v 35 c 6,-6 13,-10 22,-10 5,0 9,1 13,3 4,3 7,5 9,9 1,4 2,9 2,16 v 45 h -12 v -45 c 0,-6 -1,-10 -4,-13 -3,-3 -6,-4 -11,-4 -4,0 -7,1 -10,3 -3,1 -5,4 -7,7 -1,3 -2,8 -2,13 v 39 z m 126,0 v -98 h 37 c 7,0 12,0 15,1 5,0 9,2 12,4 4,2 6,6 8,10 2,4 3,8 3,13 0,8 -2,16 -8,21 -5,6 -15,9 -29,9 h -25 v 40 z m 13,-51 h 25 c 9,0 15,-2 18,-5 4,-3 6,-8 6,-13 0,-5 -1,-8 -3,-11 -2,-3 -5,-5 -9,-6 -2,0 -6,-1 -12,-1 h -25 z m 133,51 v -10 c -5,8 -13,12 -22,12 -4,0 -8,-1 -12,-3 -4,-1 -6,-3 -8,-6 -2,-2 -3,-5 -4,-9 0,-2 -1,-6 -1,-11 v -44 h 12 v 39 c 0,7 1,11 1,13 1,3 3,6 5,8 3,1 6,2 9,2 4,0 7,-1 10,-2 4,-2 6,-5 7,-8 1,-3 2,-8 2,-14 v -38 h 12 v 71 z m 51,0 h -11 v -98 h 12 v 35 c 5,-7 11,-10 19,-10 5,0 9,1 13,3 4,2 7,4 9,7 3,4 5,7 6,12 2,5 3,9 3,15 0,12 -3,21 -10,28 -6,7 -13,10 -21,10 -9,0 -15,-4 -20,-11 z m 0,-36 c 0,9 1,15 3,19 4,6 9,9 16,9 5,0 10,-2 13,-7 4,-5 6,-11 6,-20 0,-10 -2,-17 -5,-21 -4,-5 -9,-7 -14,-7 -5,0 -10,3 -14,7 -3,5 -5,11 -5,20 z m 74,36 v -98 h 12 v 98 z m 41,-85 v -13 h 12 v 13 z m 0,85 v -71 h 12 v 71 z m 86,-26 12,2 c -1,8 -4,14 -10,19 -5,5 -12,7 -20,7 -9,0 -17,-3 -23,-10 -6,-6 -9,-15 -9,-27 0,-8 1,-15 4,-20 2,-6 6,-10 11,-13 6,-3 11,-5 18,-5 7,0 14,2 19,6 4,4 8,10 9,17 l -12,2 c -1,-5 -3,-9 -6,-11 -3,-3 -6,-4 -10,-4 -6,0 -11,2 -15,7 -4,4 -6,11 -6,21 0,9 2,16 6,20 4,5 8,7 14,7 5,0 9,-1 12,-4 3,-3 5,-8 6,-14 z m 79,17 c -5,4 -9,7 -13,9 -5,1 -9,2 -14,2 -8,0 -14,-2 -18,-6 -4,-4 -6,-9 -6,-15 0,-3 0,-6 2,-9 2,-3 4,-5 6,-7 3,-2 6,-3 9,-4 2,-1 6,-1 11,-2 10,-1 17,-2 22,-4 0,-2 0,-3 0,-3 0,-5 -2,-9 -4,-11 -3,-2 -8,-4 -14,-4 -5,0 -10,1 -12,3 -3,2 -5,6 -6,11 l -12,-2 c 1,-5 3,-9 5,-12 3,-3 6,-5 11,-7 4,-2 10,-3 16,-3 6,0 11,1 15,2 4,2 7,4 8,6 2,2 4,5 4,8 1,2 1,6 1,11 v 16 c 0,12 0,19 1,22 0,3 1,6 3,8 h -13 c -1,-2 -2,-5 -2,-9 z m -1,-26 c -5,1 -11,3 -20,4 -5,1 -9,2 -11,2 -2,1 -4,3 -5,4 -1,2 -1,4 -1,6 0,3 1,6 3,8 3,2 6,3 11,3 5,0 9,-1 13,-3 3,-2 6,-4 8,-8 1,-3 2,-7 2,-12 z m 66,25 2,10 c -4,1 -7,1 -9,1 -5,0 -8,0 -11,-2 -2,-1 -4,-3 -5,-5 -1,-3 -1,-7 -1,-15 v -41 h -9 v -9 h 9 v -18 l 12,-7 v 25 h 12 v 9 h -12 v 42 c 0,4 0,6 1,7 0,1 1,2 2,2 1,1 2,1 4,1 1,0 3,0 5,0 z m 21,-75 v -13 h 13 v 13 z m 0,85 v -71 h 13 v 71 z m 36,-35 c 0,-14 4,-23 11,-30 6,-5 14,-8 22,-8 10,0 18,4 24,10 7,6 10,15 10,27 0,9 -2,16 -4,21 -3,6 -7,10 -12,13 -6,2 -11,4 -18,4 -10,0 -18,-3 -24,-10 -6,-6 -9,-15 -9,-27 z m 12,0 c 0,9 2,16 6,20 4,5 9,7 15,7 6,0 11,-2 15,-7 4,-4 6,-11 6,-21 0,-9 -2,-15 -6,-20 -4,-4 -9,-7 -15,-7 -6,0 -11,3 -15,7 -4,5 -6,11 -6,21 z m 78,35 v -71 h 11 v 10 c 6,-8 13,-12 23,-12 4,0 8,1 12,3 3,1 6,3 8,6 2,2 3,5 4,9 0,2 0,6 0,11 v 44 h -12 v -43 c 0,-5 0,-9 -1,-11 -1,-3 -3,-5 -5,-6 -3,-2 -5,-2 -9,-2 -5,0 -9,1 -13,5 -4,3 -5,9 -5,18 v 39 z m 82,-21 12,-2 c 0,5 2,9 5,11 3,3 8,4 13,4 6,0 10,-1 13,-3 2,-3 4,-5 4,-8 0,-3 -2,-5 -4,-7 -2,-1 -6,-2 -12,-4 -9,-2 -15,-4 -19,-6 -3,-1 -6,-4 -8,-7 -1,-2 -2,-6 -2,-9 0,-3 0,-6 2,-9 1,-3 3,-5 6,-7 2,-1 4,-2 7,-3 4,-1 7,-2 11,-2 6,0 10,1 15,3 4,1 7,4 9,6 2,3 3,7 4,11 l -12,2 c 0,-4 -2,-7 -4,-9 -3,-2 -7,-3 -11,-3 -6,0 -10,1 -12,3 -2,2 -4,4 -4,6 0,2 1,3 2,5 1,1 2,2 4,3 2,0 5,1 11,3 9,2 15,4 18,6 3,1 6,3 8,6 2,3 3,6 3,10 0,4 -1,8 -4,12 -2,3 -5,6 -10,8 -4,2 -9,3 -15,3 -9,0 -16,-2 -21,-6 -5,-4 -8,-9 -9,-17 z m 122,21 v -98 h 13 v 87 h 49 v 11 z m 111,-10 2,10 c -3,1 -7,1 -9,1 -5,0 -8,0 -10,-2 -3,-1 -5,-3 -6,-5 -1,-3 -1,-7 -1,-15 v -41 h -9 v -9 h 9 v -18 l 12,-7 v 25 h 12 v 9 h -12 v 42 c 0,4 0,6 1,7 0,1 1,2 2,2 1,1 2,1 4,1 1,0 3,0 5,0 z m 68,10 v -9 c -5,7 -11,11 -20,11 -6,0 -11,-2 -16,-5 -5,-3 -8,-7 -11,-13 -3,-6 -4,-12 -4,-19 0,-7 1,-14 4,-20 2,-6 6,-10 10,-13 5,-3 10,-5 16,-5 5,0 8,1 12,3 3,2 6,4 8,7 v -35 h 12 v 98 z m -39,-35 c 0,9 2,16 6,20 4,5 9,7 14,7 5,0 10,-2 13,-7 4,-4 6,-10 6,-19 0,-10 -2,-17 -6,-22 -3,-4 -8,-7 -14,-7 -5,0 -10,3 -13,7 -4,4 -6,11 -6,21 z"
   id="path9"
   inkscape:connector-curvature="0"
   style="fill:#fefefe;fill-rule:nonzero" />
    <path
   class="fil1"
   d="m 8194,15522 v -179 h 36 l 42,127 c 4,12 7,21 9,27 2,-7 5,-17 9,-29 l 43,-125 h 32 v 179 h -23 v -149 l -52,149 h -21 l -52,-152 v 152 z"
   id="path11"
   inkscape:connector-curvature="0"
   style="fill:#fefefe;fill-rule:nonzero" />
    <path
   id="1"
   class="fil1"
   d="m 8485,15506 c -8,7 -16,12 -23,15 -8,3 -16,4 -25,4 -14,0 -25,-3 -33,-10 -7,-7 -11,-16 -11,-27 0,-6 1,-12 4,-17 3,-6 7,-10 12,-13 4,-3 10,-5 15,-7 5,-1 11,-2 20,-3 18,-2 31,-5 39,-8 0,-3 0,-5 0,-6 0,-9 -2,-15 -6,-18 -5,-5 -14,-8 -25,-8 -10,0 -18,2 -23,6 -5,3 -8,10 -11,19 l -21,-3 c 2,-9 5,-17 9,-22 5,-6 11,-10 20,-14 8,-3 18,-4 29,-4 11,0 20,1 27,4 7,2 12,6 16,10 3,4 5,9 7,15 0,3 1,10 1,20 v 29 c 0,20 0,33 1,39 1,5 3,10 5,15 h -23 c -2,-4 -3,-10 -4,-16 z m -2,-49 c -8,4 -20,6 -36,9 -9,1 -15,2 -19,4 -4,2 -6,4 -8,7 -3,3 -4,7 -4,10 0,6 3,11 7,15 5,4 11,6 20,6 8,0 16,-2 22,-6 7,-3 12,-8 15,-15 2,-5 3,-12 3,-22 z"
   inkscape:connector-curvature="0"
   style="fill:#fefefe;fill-rule:nonzero" />
    <path
   id="2"
   class="fil1"
   d="m 8587,15503 3,19 c -6,1 -11,2 -16,2 -8,0 -14,-1 -19,-4 -4,-2 -7,-6 -9,-10 -2,-4 -3,-12 -3,-26 v -74 h -16 v -17 h 16 v -32 l 22,-14 v 46 h 22 v 17 h -22 v 76 c 0,6 1,10 1,12 1,2 2,3 4,4 2,1 4,2 8,2 2,0 5,-1 9,-1 z"
   inkscape:connector-curvature="0"
   style="fill:#fefefe;fill-rule:nonzero" />
    <path
   id="3"
   class="fil1"
   d="m 8697,15480 23,3 c -3,14 -10,24 -20,31 -9,7 -22,11 -37,11 -19,0 -34,-6 -45,-17 -11,-12 -16,-28 -16,-49 0,-22 5,-39 16,-51 12,-12 26,-18 44,-18 17,0 32,6 42,18 11,11 17,28 17,49 0,2 0,4 0,6 h -97 c 1,14 5,25 12,33 7,7 17,11 27,11 8,0 15,-2 21,-6 6,-5 10,-11 13,-21 z m -72,-35 h 73 c -1,-11 -4,-19 -9,-24 -7,-9 -16,-13 -27,-13 -10,0 -18,3 -25,10 -7,7 -11,16 -12,27 z"
   inkscape:connector-curvature="0"
   style="fill:#fefefe;fill-rule:nonzero" />
    <path
   id="4"
   class="fil1"
   d="m 8748,15522 v -129 h 19 v 19 c 6,-9 10,-15 14,-18 5,-3 9,-4 15,-4 7,0 15,2 22,7 l -8,20 c -5,-3 -10,-4 -16,-4 -4,0 -9,1 -12,4 -4,3 -7,7 -9,12 -2,8 -3,16 -3,26 v 67 z"
   inkscape:connector-curvature="0"
   style="fill:#fefefe;fill-rule:nonzero" />
    <path
   id="5"
   class="fil1"
   d="m 8831,15368 v -25 h 22 v 25 z m 0,154 v -129 h 22 v 129 z"
   inkscape:connector-curvature="0"
   style="fill:#fefefe;fill-rule:nonzero" />
    <path
   id="6"
   class="fil1"
   d="m 8972,15506 c -9,7 -17,12 -24,15 -8,3 -16,4 -24,4 -15,0 -26,-3 -33,-10 -8,-7 -12,-16 -12,-27 0,-6 2,-12 5,-17 3,-6 6,-10 11,-13 5,-3 10,-5 16,-7 4,-1 11,-2 19,-3 18,-2 31,-5 40,-8 0,-3 0,-5 0,-6 0,-9 -2,-15 -6,-18 -6,-5 -14,-8 -26,-8 -10,0 -18,2 -23,6 -4,3 -8,10 -10,19 l -22,-3 c 2,-9 5,-17 10,-22 4,-6 11,-10 19,-14 9,-3 19,-4 30,-4 11,0 20,1 27,4 7,2 12,6 15,10 3,4 6,9 7,15 1,3 1,10 1,20 v 29 c 0,20 0,33 1,39 1,5 3,10 6,15 h -23 c -2,-4 -4,-10 -4,-16 z m -2,-49 c -8,4 -20,6 -36,9 -9,1 -16,2 -19,4 -4,2 -7,4 -9,7 -2,3 -3,7 -3,10 0,6 2,11 6,15 5,4 11,6 20,6 8,0 16,-2 23,-6 6,-3 11,-8 14,-15 2,-5 4,-12 4,-22 z"
   inkscape:connector-curvature="0"
   style="fill:#fefefe;fill-rule:nonzero" />
    <polygon
   id="7"
   class="fil1"
   points="9047,15522 9025,15522 9025,15343 9047,15343 "
   style="fill:#fefefe;fill-rule:nonzero" />
    <path
   id="8"
   class="fil1"
   d="m 9073,15484 21,-4 c 2,9 5,15 11,20 5,5 13,7 23,7 10,0 18,-2 23,-6 4,-4 7,-9 7,-15 0,-4 -2,-8 -7,-11 -3,-2 -10,-5 -22,-8 -16,-4 -27,-7 -34,-10 -6,-3 -11,-7 -14,-13 -3,-5 -5,-11 -5,-17 0,-6 2,-11 4,-16 3,-5 7,-9 11,-12 4,-3 8,-5 14,-7 6,-1 12,-2 19,-2 10,0 19,1 27,4 7,3 13,7 17,12 3,5 6,12 7,20 l -21,3 c -1,-6 -4,-12 -9,-15 -4,-4 -11,-6 -19,-6 -10,0 -18,2 -22,5 -4,3 -6,7 -6,12 0,2 0,5 2,7 2,3 5,5 9,6 2,1 8,3 19,6 16,4 26,7 33,10 6,3 11,6 14,11 4,5 5,12 5,19 0,7 -2,14 -6,21 -4,6 -11,11 -19,15 -8,3 -17,5 -27,5 -17,0 -30,-3 -38,-10 -9,-7 -15,-18 -17,-31 z"
   inkscape:connector-curvature="0"
   style="fill:#fefefe;fill-rule:nonzero" />
    <path
   id="9"
   class="fil1"
   d="m 9271,15465 22,-2 c 1,9 4,16 7,22 4,6 10,10 18,14 9,4 18,5 28,5 9,0 17,-1 24,-4 7,-2 12,-6 15,-11 4,-5 5,-10 5,-15 0,-6 -1,-11 -5,-15 -3,-4 -8,-7 -16,-10 -4,-2 -15,-5 -32,-9 -16,-4 -28,-8 -34,-11 -9,-5 -15,-10 -19,-17 -4,-7 -6,-14 -6,-22 0,-9 2,-18 7,-26 5,-7 13,-13 23,-18 10,-4 21,-6 33,-6 13,0 25,2 35,7 10,4 18,10 23,19 5,8 8,17 9,28 l -23,2 c -1,-12 -5,-20 -12,-26 -7,-6 -18,-9 -32,-9 -14,0 -24,3 -31,8 -6,5 -10,12 -10,19 0,7 3,12 7,16 5,4 17,9 36,13 19,4 32,8 40,11 10,5 18,11 23,18 5,8 7,16 7,26 0,9 -3,18 -8,27 -6,8 -13,15 -24,19 -10,5 -21,7 -34,7 -16,0 -30,-2 -41,-7 -11,-4 -19,-12 -25,-21 -7,-9 -10,-20 -10,-32 z"
   inkscape:connector-curvature="0"
   style="fill:#fefefe;fill-rule:nonzero" />
    <path
   id="10"
   class="fil1"
   d="m 9527,15475 22,3 c -3,15 -9,26 -18,35 -10,8 -22,12 -36,12 -18,0 -32,-6 -43,-17 -11,-12 -16,-28 -16,-50 0,-14 2,-26 7,-37 5,-10 12,-18 21,-23 10,-6 20,-8 31,-8 14,0 26,3 35,11 9,7 14,17 17,30 l -21,3 c -2,-9 -6,-15 -11,-20 -5,-4 -12,-6 -19,-6 -11,0 -20,4 -27,12 -7,8 -10,20 -10,37 0,18 3,30 10,38 6,8 15,12 26,12 8,0 16,-3 21,-8 6,-5 10,-13 11,-24 z"
   inkscape:connector-curvature="0"
   style="fill:#fefefe;fill-rule:nonzero" />
    <path
   id="11"
   class="fil1"
   d="m 9568,15368 v -25 h 22 v 25 z m 0,154 v -129 h 22 v 129 z"
   inkscape:connector-curvature="0"
   style="fill:#fefefe;fill-rule:nonzero" />
    <path
   id="12"
   class="fil1"
   d="m 9712,15480 22,3 c -3,14 -10,24 -19,31 -10,7 -22,11 -38,11 -18,0 -33,-6 -45,-17 -11,-12 -16,-28 -16,-49 0,-22 5,-39 17,-51 11,-12 25,-18 43,-18 18,0 32,6 43,18 11,11 16,28 16,49 0,2 0,4 0,6 h -97 c 1,14 5,25 12,33 8,7 17,11 27,11 9,0 15,-2 21,-6 6,-5 10,-11 14,-21 z m -72,-35 h 72 c -1,-11 -4,-19 -8,-24 -7,-9 -16,-13 -28,-13 -10,0 -18,3 -25,10 -7,7 -11,16 -11,27 z"
   inkscape:connector-curvature="0"
   style="fill:#fefefe;fill-rule:nonzero" />
    <path
   id="13"
   class="fil1"
   d="m 9762,15522 v -129 h 20 v 18 c 9,-14 23,-21 41,-21 8,0 15,1 22,4 6,3 11,7 14,11 4,5 6,10 7,16 1,4 1,12 1,22 v 79 h -22 v -78 c 0,-9 0,-16 -2,-21 -2,-4 -5,-8 -9,-10 -5,-3 -10,-4 -16,-4 -9,0 -17,3 -24,9 -6,6 -10,17 -10,34 v 70 z"
   inkscape:connector-curvature="0"
   style="fill:#fefefe;fill-rule:nonzero" />
    <path
   id="14"
   class="fil1"
   d="m 9986,15475 21,3 c -2,15 -8,26 -18,35 -9,8 -21,12 -35,12 -18,0 -32,-6 -43,-17 -11,-12 -16,-28 -16,-50 0,-14 2,-26 7,-37 4,-10 11,-18 21,-23 9,-6 20,-8 31,-8 14,0 25,3 34,11 9,7 15,17 17,30 l -21,3 c -2,-9 -5,-15 -11,-20 -5,-4 -11,-6 -18,-6 -11,0 -20,4 -27,12 -7,8 -11,20 -11,37 0,18 4,30 10,38 7,8 16,12 26,12 9,0 16,-3 22,-8 6,-5 9,-13 11,-24 z"
   inkscape:connector-curvature="0"
   style="fill:#fefefe;fill-rule:nonzero" />
    <path
   id="15"
   class="fil1"
   d="m 10115,15480 22,3 c -3,14 -10,24 -19,31 -10,7 -22,11 -37,11 -19,0 -34,-6 -45,-17 -12,-12 -17,-28 -17,-49 0,-22 6,-39 17,-51 11,-12 25,-18 43,-18 18,0 32,6 43,18 11,11 16,28 16,49 0,2 0,4 0,6 h -97 c 1,14 5,25 13,33 7,7 16,11 27,11 8,0 14,-2 20,-6 6,-5 10,-11 14,-21 z m -72,-35 h 72 c -1,-11 -4,-19 -8,-24 -7,-9 -16,-13 -28,-13 -10,0 -18,3 -25,10 -7,7 -11,16 -11,27 z"
   inkscape:connector-curvature="0"
   style="fill:#fefefe;fill-rule:nonzero" />
    <polygon
   id="16"
   class="fil1"
   points="10346,15441 10262,15441 10262,15522 10239,15522 10239,15343 10359,15343 10359,15364 10262,15364 10262,15420 10346,15420 "
   style="fill:#fefefe;fill-rule:nonzero" />
    <path
   id="17"
   class="fil1"
   d="m 10379,15457 c 0,-23 7,-41 20,-53 11,-9 25,-14 41,-14 18,0 32,6 44,17 11,12 17,28 17,49 0,16 -3,29 -8,39 -5,9 -12,17 -22,22 -9,5 -20,8 -31,8 -18,0 -33,-6 -44,-17 -11,-12 -17,-29 -17,-51 z m 23,1 c 0,16 3,29 11,37 7,8 16,12 27,12 11,0 20,-4 27,-12 8,-9 11,-21 11,-38 0,-16 -4,-28 -11,-37 -7,-8 -16,-12 -27,-12 -11,0 -20,4 -27,12 -8,9 -11,21 -11,38 z"
   inkscape:connector-curvature="0"
   style="fill:#fefefe;fill-rule:nonzero" />
    <path
   id="18"
   class="fil1"
   d="m 10526,15522 v -129 h 20 v 19 c 5,-9 10,-15 14,-18 4,-3 9,-4 14,-4 7,0 15,2 23,7 l -8,20 c -5,-3 -11,-4 -16,-4 -5,0 -9,1 -13,4 -4,3 -7,7 -8,12 -3,8 -4,16 -4,26 v 67 z"
   inkscape:connector-curvature="0"
   style="fill:#fefefe;fill-rule:nonzero" />
    <path
   id="19"
   class="fil1"
   d="m 10694,15522 v -19 c -10,15 -23,22 -41,22 -7,0 -14,-1 -21,-4 -7,-3 -12,-7 -15,-11 -3,-5 -5,-10 -6,-17 -1,-4 -2,-11 -2,-20 v -80 h 22 v 71 c 0,12 1,20 2,24 1,5 4,10 8,13 5,3 10,5 17,5 6,0 13,-2 18,-5 6,-3 10,-8 13,-14 2,-6 3,-14 3,-25 v -69 h 22 v 129 z"
   inkscape:connector-curvature="0"
   style="fill:#fefefe;fill-rule:nonzero" />
    <path
   id="20"
   class="fil1"
   d="m 10749,15522 v -129 h 19 v 18 c 5,-6 10,-12 17,-15 6,-4 14,-6 23,-6 9,0 17,2 23,6 6,4 11,9 13,17 11,-16 24,-23 40,-23 13,0 23,3 30,11 7,7 11,18 11,32 v 89 h -22 v -81 c 0,-9 -1,-15 -2,-19 -2,-4 -4,-7 -8,-10 -4,-2 -8,-3 -13,-3 -10,0 -17,3 -23,9 -6,6 -9,16 -9,29 v 75 h -22 v -84 c 0,-10 -2,-17 -6,-22 -3,-5 -9,-7 -17,-7 -6,0 -12,1 -17,5 -6,3 -9,8 -12,14 -2,6 -3,15 -3,27 v 67 z"
   inkscape:connector-curvature="0"
   style="fill:#fefefe;fill-rule:nonzero" />
    <polygon
   class="fil1"
   points="8064,15269 8083,15269 8083,15838 8064,15838 "
   id="polygon33"
   style="fill:#fefefe;fill-rule:nonzero" />
    <polygon
   class="fil1"
   points="11031,15604 11031,15624 8073,15624 8073,15604 "
   id="polygon35"
   style="fill:#fefefe;fill-rule:nonzero" />
   </g>
  </g>
 </g>
</svg>